NotoSerifTamilSlanted-SemiCondensedSemiBold.ufo
<glyph name="exclam" format="2">
  <advance width="349.3183908045977"/>
  <unicode hex="0021"/>
  <outline>
    <contour>
      <point x="133.95402298850576" y="217.316091954023" type="line"/>
      <point x="192.01379310344828" y="217.316091954023" type="line"/>
      <point x="348.19310344827585" y="714.0" type="line"/>
      <point x="202.8183908045977" y="714.0" type="line"/>
    </contour>
    <contour>
      <point x="134.84942528735633" y="-8.0" type="curve" smooth="yes"/>
      <point x="172.70229885057472" y="-8.0"/>
      <point x="212.44252873563218" y="15.202298850574712"/>
      <point x="212.44252873563218" y="78.5735632183908" type="curve" smooth="yes"/>
      <point x="212.44252873563218" y="121.61839080459771"/>
      <point x="183.86551724137934" y="142.64597701149427"/>
      <point x="144.80689655172415" y="142.64597701149427" type="curve" smooth="yes"/>
      <point x="100.56896551724138" y="142.64597701149427"/>
      <point x="67.30229885057472" y="109.8448275862069"/>
      <point x="67.30229885057472" y="57.00804597701149" type="curve" smooth="yes"/>
      <point x="67.30229885057472" y="14.405747126436781"/>
      <point x="94.86551724137931" y="-8.0"/>
    </contour>
  </outline>
</glyph>
<glyph name="quotedbl" format="2">
  <advance width="437.3471264367816"/>
  <unicode hex="0022"/>
  <outline>
    <contour>
      <point x="136.04367816091957" y="457.23218390804595" type="line"/>
      <point x="191.71379310344827" y="457.23218390804595" type="line"/>
      <point x="291.59080459770115" y="714.0" type="line"/>
      <point x="160.7264367816092" y="714.0" type="line"/>
    </contour>
    <contour>
      <point x="330.0206896551724" y="457.23218390804595" type="line"/>
      <point x="385.4632183908046" y="457.23218390804595" type="line"/>
      <point x="485.34022988505745" y="714.0" type="line"/>
      <point x="354.84252873563224" y="714.0" type="line"/>
    </contour>
  </outline>
</glyph>
<glyph name="numbersign" format="2">
  <advance width="519.0712643678162"/>
  <unicode hex="0023"/>
  <outline>
    <contour>
      <point x="56.65977011494253" y="0.0" type="line"/>
      <point x="119.73218390804598" y="0.0" type="line"/>
      <point x="177.632183908046" y="201.3655172413793" type="line"/>
      <point x="289.4206896551724" y="201.3655172413793" type="line"/>
      <point x="232.28045977011493" y="0.0" type="line"/>
      <point x="294.9862068965518" y="0.0" type="line"/>
      <point x="352.12643678160924" y="201.3655172413793" type="line"/>
      <point x="465.53218390804597" y="201.3655172413793" type="line"/>
      <point x="472.89885057471264" y="265.8896551724138" type="line"/>
      <point x="372.1402298850575" y="265.8896551724138" type="line"/>
      <point x="425.4183908045977" y="453.6287356321839" type="line"/>
      <point x="523.1655172413793" y="453.6287356321839" type="line"/>
      <point x="530.912643678161" y="518.6344827586206" type="line"/>
      <point x="444.6735632183908" y="518.6344827586206" type="line"/>
      <point x="500.81379310344835" y="714.0" type="line"/>
      <point x="437.9689655172414" y="714.0" type="line"/>
      <point x="381.8287356321839" y="518.6344827586206" type="line"/>
      <point x="270.04022988505744" y="518.6344827586206" type="line"/>
      <point x="325.332183908046" y="714.0" type="line"/>
      <point x="261.85402298850573" y="714.0" type="line"/>
      <point x="207.3344827586207" y="518.6344827586206" type="line"/>
      <point x="93.32988505747126" y="518.6344827586206" type="line"/>
      <point x="85.72183908045977" y="453.6287356321839" type="line"/>
      <point x="188.07931034482758" y="453.6287356321839" type="line"/>
      <point x="133.80114942528738" y="265.8896551724138" type="line"/>
      <point x="35.07586206896552" y="265.8896551724138" type="line"/>
      <point x="27.70919540229885" y="201.3655172413793" type="line"/>
      <point x="114.9264367816092" y="201.3655172413793" type="line"/>
    </contour>
    <contour>
      <point x="196.51954022988508" y="265.8896551724138" type="line"/>
      <point x="250.5574712643678" y="453.6287356321839" type="line"/>
      <point x="362.9666666666667" y="453.6287356321839" type="line"/>
      <point x="309.067816091954" y="265.8896551724138" type="line"/>
    </contour>
  </outline>
</glyph>
<glyph name="percent" format="2">
  <advance width="839.0402298850574"/>
  <unicode hex="0025"/>
  <outline>
    <contour>
      <point x="166.1413793103448" y="0.0" type="line"/>
      <point x="237.62988505747128" y="0.0" type="line"/>
      <point x="707.7701149425286" y="714.0" type="line"/>
      <point x="639.658643678161" y="714.0" type="line"/>
    </contour>
    <contour>
      <point x="196.68965517241378" y="280.37931034482756" type="curve" smooth="yes"/>
      <point x="345.85747126436786" y="280.37931034482756"/>
      <point x="413.25402298850577" y="463.8057471264368"/>
      <point x="413.25402298850577" y="574.4563218390804" type="curve" smooth="yes"/>
      <point x="413.25402298850577" y="661.5931034482759"/>
      <point x="374.07126436781607" y="723.6206896551724"/>
      <point x="284.03333333333336" y="723.6206896551724" type="curve" smooth="yes"/>
      <point x="137.27126436781606" y="723.6206896551724"/>
      <point x="71.46896551724137" y="546.7390804597701"/>
      <point x="71.46896551724137" y="427.9091954022989" type="curve"/>
      <point x="71.46896551724137" y="329.9126436781609"/>
      <point x="120.17241379310344" y="280.37931034482756"/>
    </contour>
    <contour>
      <point x="206.1344827586207" y="326.764367816092" type="curve" smooth="yes"/>
      <point x="174.95632183908046" y="326.764367816092"/>
      <point x="163.4367816091954" y="360.53678160919543"/>
      <point x="163.4367816091954" y="415.1931034482758" type="curve" smooth="yes"/>
      <point x="163.4367816091954" y="499.5793103448276"/>
      <point x="205.283908045977" y="676.7666666666668"/>
      <point x="280.0597701149425" y="676.7666666666668" type="curve" smooth="yes"/>
      <point x="311.85862068965514" y="676.7666666666668"/>
      <point x="322.75747126436784" y="644.2091954022987"/>
      <point x="322.75747126436784" y="589.6413793103449" type="curve" smooth="yes"/>
      <point x="322.75747126436784" y="504.4068965517241"/>
      <point x="280.91034482758624" y="326.764367816092"/>
    </contour>
    <contour>
      <point x="592.648275862069" y="-9.013793103448275" type="curve" smooth="yes"/>
      <point x="741.816091954023" y="-9.013793103448275"/>
      <point x="808.8459770114943" y="174.55172413793105"/>
      <point x="808.8459770114943" y="284.83563218390805" type="curve" smooth="yes"/>
      <point x="808.8459770114943" y="371.97241379310344"/>
      <point x="769.890804597701" y="434.0"/>
      <point x="679.6252873563218" y="434.0" type="curve" smooth="yes"/>
      <point x="533.0908045977012" y="434.0"/>
      <point x="467.42758620689654" y="257.3459770114942"/>
      <point x="467.42758620689654" y="138.2885057471264" type="curve"/>
      <point x="467.42758620689654" y="40.51954022988506"/>
      <point x="515.9034482758622" y="-9.013793103448275"/>
    </contour>
    <contour>
      <point x="601.6379310344827" y="37.37126436781609" type="curve" smooth="yes"/>
      <point x="570.548275862069" y="37.37126436781609"/>
      <point x="559.028735632184" y="70.91609195402299"/>
      <point x="559.028735632184" y="126.07816091954024" type="curve" smooth="yes"/>
      <point x="559.028735632184" y="209.95862068965516"/>
      <point x="601.0149425287357" y="387.3735632183908"/>
      <point x="675.6517241379311" y="387.3735632183908" type="curve" smooth="yes"/>
      <point x="707.5896551724139" y="387.3735632183908"/>
      <point x="718.4885057471264" y="354.4494252873563"/>
      <point x="718.4885057471264" y="300.0206896551725" type="curve" smooth="yes"/>
      <point x="718.4885057471264" y="214.7862068965517"/>
      <point x="676.8689655172415" y="37.37126436781609"/>
    </contour>
  </outline>
</glyph>
<glyph name="quotesingle" format="2">
  <advance width="245.97471264367815"/>
  <unicode hex="0027"/>
  <outline>
    <contour>
      <point x="137.49770114942527" y="457.23218390804595" type="line"/>
      <point x="193.16781609195405" y="457.23218390804595" type="line"/>
      <point x="286.5597701149425" y="714.0" type="line"/>
      <point x="156.06206896551726" y="714.0" type="line"/>
    </contour>
  </outline>
</glyph>
<glyph name="parenleft" format="2">
  <advance width="356.2022988505747"/>
  <unicode hex="0028"/>
  <outline>
    <contour>
      <point x="234.07931034482758" y="-134.00574712643677" type="curve"/>
      <point x="246.3080459770115" y="-78.24942528735632" type="line"/>
      <point x="186.79540229885058" y="-32.09655172413793"/>
      <point x="166.7551724137931" y="55.41954022988506"/>
      <point x="166.7551724137931" y="136.49655172413793" type="curve" smooth="yes"/>
      <point x="166.7551724137931" y="270.48735632183906"/>
      <point x="216.37471264367818" y="595.6965517241379"/>
      <point x="414.4597701149425" y="711.8701149425287" type="curve"/>
      <point x="424.5482758620689" y="766.2597701149425" type="line"/>
      <point x="167.20229885057472" y="697.7436781609196"/>
      <point x="41.49425287356322" y="422.46896551724143"/>
      <point x="41.49425287356322" y="178.47701149425288" type="curve" smooth="yes"/>
      <point x="41.49425287356322" y="40.179310344827584"/>
      <point x="98.22758620689655" y="-80.23103448275862"/>
    </contour>
  </outline>
</glyph>
<glyph name="parenright" format="2">
  <advance width="356.2022988505747"/>
  <unicode hex="0029"/>
  <outline>
    <contour>
      <point x="-44.51839080459769" y="-137.01379310344828" type="line"/>
      <point x="213.19425287356322" y="-68.35862068965517"/>
      <point x="338.3965517241379" y="207.14367816091954"/>
      <point x="338.3965517241379" y="450.90804597701145" type="curve" smooth="yes"/>
      <point x="338.3965517241379" y="589.2057471264367"/>
      <point x="281.9413793103448" y="709.2494252873563"/>
      <point x="145.9505747126437" y="763.251724137931" type="curve"/>
      <point x="134.08850574712645" y="707.6344827586206" type="line"/>
      <point x="193.2344827586207" y="661.4816091954024"/>
      <point x="213.0471264367816" y="574.1931034482758"/>
      <point x="213.0471264367816" y="492.88850574712643" type="curve" smooth="yes"/>
      <point x="213.0471264367816" y="359.264367816092"/>
      <point x="164.02183908045976" y="33.827586206896555"/>
      <point x="-34.29080459770115" y="-82.25747126436782" type="curve"/>
    </contour>
  </outline>
</glyph>
<glyph name="asterisk" format="2">
  <advance width="528.4574712643679"/>
  <unicode hex="002A"/>
  <outline>
    <contour>
      <point x="340.7931034482759" y="365.10574712643677" type="line"/>
      <point x="344.2310344827586" y="528.235632183908" type="line"/>
      <point x="460.6080459770115" y="399.76206896551724" type="line"/>
      <point x="517.6298850574713" y="478.0" type="line"/>
      <point x="382.0252873563218" y="554.9942528735633" type="line"/>
      <point x="535.5264367816092" y="564.2436781609196" type="line"/>
      <point x="516.8505747126436" y="660.8758620689655" type="line"/>
      <point x="358.9908045977012" y="594.8701149425287" type="line"/>
      <point x="422.6551724137931" y="744.1241379310345" type="line"/>
      <point x="328.0425287356322" y="765.0" type="line"/>
      <point x="322.07241379310346" y="601.1241379310345" type="line"/>
      <point x="207.69540229885058" y="733.8758620689655" type="line"/>
      <point x="150.29425287356324" y="653.1057471264369" type="line"/>
      <point x="285.7977011494253" y="575.9862068965517" type="line"/>
      <point x="131.916091954023" y="564.8885057471264" type="line"/>
      <point x="151.21264367816093" y="469.24367816091956" type="line"/>
      <point x="308.07241379310346" y="536.8701149425287" type="line"/>
      <point x="246.66206896551722" y="385.61494252873564" type="line"/>
    </contour>
  </outline>
</glyph>
<glyph name="plus" format="2">
  <advance width="509.8666666666667"/>
  <unicode hex="002B"/>
  <outline>
    <contour>
      <point x="229.5344827586207" y="143.0" type="line"/>
      <point x="296.02183908045976" y="143.0" type="line"/>
      <point x="296.02183908045976" y="324.87011494252874" type="line"/>
      <point x="462.30229885057474" y="324.87011494252874" type="line"/>
      <point x="462.30229885057474" y="390.12988505747126" type="line"/>
      <point x="296.02183908045976" y="390.12988505747126" type="line"/>
      <point x="296.02183908045976" y="572.0" type="line"/>
      <point x="229.5344827586207" y="572.0" type="line"/>
      <point x="229.5344827586207" y="390.12988505747126" type="line"/>
      <point x="64.02643678160919" y="390.12988505747126" type="line"/>
      <point x="64.02643678160919" y="324.87011494252874" type="line"/>
      <point x="229.5344827586207" y="324.87011494252874" type="line"/>
    </contour>
  </outline>
</glyph>
<glyph name="comma" format="2">
  <advance width="266.9413793103448"/>
  <unicode hex="002C"/>
  <outline>
    <contour>
      <point x="-20.501149425287352" y="-148.87586206896552" type="line"/>
      <point x="110.51609195402298" y="-122.01379310344828"/>
      <point x="175.7793103448276" y="-41.808045977011496"/>
      <point x="175.7793103448276" y="54.91954022988505" type="curve" smooth="yes"/>
      <point x="175.7793103448276" y="110.10000000000001"/>
      <point x="140.8505747126437" y="141.50689655172414"/>
      <point x="98.65402298850576" y="141.50689655172414" type="curve" smooth="yes"/>
      <point x="62.851724137931036" y="141.50689655172414"/>
      <point x="31.9735632183908" y="117.64367816091954"/>
      <point x="31.9735632183908" y="75.93333333333334" type="curve" smooth="yes"/>
      <point x="31.9735632183908" y="21.751724137931035"/>
      <point x="84.96436781609195" y="21.639080459770113"/>
      <point x="84.96436781609195" y="-16.529885057471265" type="curve" smooth="yes"/>
      <point x="84.96436781609195" y="-56.50344827586207"/>
      <point x="52.30344827586207" y="-84.88275862068966"/>
      <point x="-11.650574712643676" y="-100.87011494252873" type="curve"/>
    </contour>
  </outline>
</glyph>
<glyph name="hyphen" format="2">
  <advance width="287.9494252873563"/>
  <unicode hex="002D"/>
  <outline>
    <contour>
      <point x="14.083908045977012" y="227.10574712643677" type="line"/>
      <point x="255.47241379310344" y="227.10574712643677" type="line"/>
      <point x="276.18390804597703" y="317.89425287356323" type="line"/>
      <point x="34.56781609195402" y="317.89425287356323" type="line"/>
    </contour>
  </outline>
</glyph>
<glyph name="period" format="2">
  <advance width="266.9413793103448"/>
  <unicode hex="002E"/>
  <outline>
    <contour>
      <point x="97.55172413793103" y="-8.0" type="curve" smooth="yes"/>
      <point x="135.4045977011494" y="-8.0"/>
      <point x="175.28390804597703" y="15.202298850574712"/>
      <point x="175.28390804597703" y="79.5344827586207" type="curve" smooth="yes"/>
      <point x="175.28390804597703" y="121.61839080459771"/>
      <point x="146.567816091954" y="142.64597701149427"/>
      <point x="107.50919540229886" y="142.64597701149427" type="curve" smooth="yes"/>
      <point x="63.27126436781609" y="142.64597701149427"/>
      <point x="30.004597701149425" y="109.8448275862069"/>
      <point x="30.004597701149425" y="56.04712643678161" type="curve" smooth="yes"/>
      <point x="30.004597701149425" y="14.405747126436781"/>
      <point x="57.567816091954015" y="-8.0"/>
    </contour>
  </outline>
</glyph>
<glyph name="slash" format="2">
  <advance width="267.5551724137931"/>
  <unicode hex="002F"/>
  <outline>
    <contour>
      <point x="-94.7183908045977" y="-121.0" type="line"/>
      <point x="-26.757471264367815" y="-121.0" type="line"/>
      <point x="378.20344827586206" y="760.0" type="line"/>
      <point x="309.7367816091954" y="760.0" type="line"/>
    </contour>
  </outline>
</glyph>
<glyph name="zero" format="2">
  <advance width="528.7563218390806"/>
  <unicode hex="0030"/>
  <outline>
    <contour>
      <point x="227.6022988505747" y="-11.0" type="curve" smooth="yes"/>
      <point x="434.61954022988505" y="-11.0"/>
      <point x="525.7528735632185" y="304.0896551724138"/>
      <point x="525.7528735632185" y="502.51149425287355" type="curve" smooth="yes"/>
      <point x="525.7528735632185" y="656.6057471264368"/>
      <point x="445.8172413793103" y="724.8609195402299"/>
      <point x="343.51264367816094" y="724.8609195402299" type="curve" smooth="yes"/>
      <point x="137.01379310344828" y="724.8609195402299"/>
      <point x="42.38620689655173" y="428.64367816091954"/>
      <point x="42.38620689655173" y="223.7551724137931" type="curve" smooth="yes"/>
      <point x="42.38620689655173" y="70.8"/>
      <point x="116.77701149425287" y="-11.0"/>
    </contour>
    <contour>
      <point x="234.58850574712645" y="51.24712643678161" type="curve" smooth="yes"/>
      <point x="187.33563218390805" y="51.24712643678161"/>
      <point x="157.9045977011494" y="94.82758620689656"/>
      <point x="157.9045977011494" y="188.316091954023" type="curve" smooth="yes"/>
      <point x="157.9045977011494" y="357.4057471264368"/>
      <point x="222.20000000000002" y="663.6137931034483"/>
      <point x="336.66666666666663" y="663.6137931034483" type="curve" smooth="yes"/>
      <point x="385.91954022988506" y="663.6137931034483"/>
      <point x="413.47701149425285" y="620.0333333333333"/>
      <point x="413.47701149425285" y="528.6839080459771" type="curve" smooth="yes"/>
      <point x="413.47701149425285" y="360.9620689655172"/>
      <point x="352.4229885057471" y="51.24712643678161"/>
    </contour>
  </outline>
</glyph>
<glyph name="one" format="2">
  <advance width="528.7563218390806"/>
  <unicode hex="0031"/>
  <outline>
    <contour>
      <point x="39.64597701149425" y="0.0" type="line"/>
      <point x="411.0229885057471" y="0.0" type="line"/>
      <point x="421.2643678160919" y="48.00574712643679" type="line"/>
      <point x="374.31264367816095" y="48.00574712643679" type="line" smooth="yes"/>
      <point x="335.35862068965514" y="48.00574712643679"/>
      <point x="306.31724137931036" y="52.764367816091955"/>
      <point x="306.31724137931036" y="83.38275862068966" type="curve" smooth="yes"/>
      <point x="306.31724137931036" y="90.7632183908046"/>
      <point x="309.33103448275864" y="107.27241379310345"/>
      <point x="312.20344827586206" y="120.0896551724138" type="curve" smooth="yes"/>
      <point x="439.31724137931036" y="718.0" type="line"/>
      <point x="349.26666666666665" y="718.0" type="line"/>
      <point x="273.5390804597701" y="666.0" type="line" smooth="yes"/>
      <point x="202.07816091954024" y="617.0"/>
      <point x="159.00919540229884" y="601.0"/>
      <point x="116.08160919540231" y="589.0" type="curve"/>
      <point x="115.48735632183909" y="549.2574712643678"/>
      <point x="131.63103448275862" y="524.3689655172415"/>
      <point x="157.65862068965518" y="524.3689655172415" type="curve" smooth="yes"/>
      <point x="197.35862068965517" y="524.3689655172415"/>
      <point x="235.6" y="562.7747126436782"/>
      <point x="296.67816091954023" y="628.3689655172415" type="curve"/>
      <point x="300.17241379310343" y="628.3689655172415" type="line"/>
      <point x="287.52758620689656" y="584.3793103448274"/>
      <point x="276.5022988505747" y="536.622988505747"/>
      <point x="265.3390804597701" y="483.3781609195402" type="curve" smooth="yes"/>
      <point x="187.8206896551724" y="115.88850574712644" type="line" smooth="yes"/>
      <point x="176.31609195402297" y="61.377011494252876"/>
      <point x="145.64597701149424" y="48.00574712643679"/>
      <point x="102.70459770114942" y="48.00574712643679" type="curve" smooth="yes"/>
      <point x="49.5080459770115" y="48.00574712643679" type="line"/>
    </contour>
  </outline>
</glyph>
<glyph name="two" format="2">
  <advance width="528.7563218390806"/>
  <unicode hex="0032"/>
  <outline>
    <contour>
      <point x="-12.242528735632183" y="0.0" type="line"/>
      <point x="415.4804597701149" y="0.0" type="line"/>
      <point x="461.57241379310346" y="192.00804597701148" type="line"/>
      <point x="411.39770114942525" y="192.00804597701148" type="line"/>
      <point x="404.5367816091954" y="175.13333333333333" type="line" smooth="yes"/>
      <point x="388.5241379310345" y="135.2712643678161"/>
      <point x="366.9896551724138" y="96.24367816091954"/>
      <point x="308.3" y="96.24367816091954" type="curve" smooth="yes"/>
      <point x="92.45747126436781" y="96.24367816091954" type="line"/>
      <point x="299.9632183908046" y="281.2402298850575" type="line" smooth="yes"/>
      <point x="450.7390804597701" y="410.8183908045977"/>
      <point x="516.9114942528735" y="488.76781609195405"/>
      <point x="516.9114942528735" y="584.2287356321839" type="curve" smooth="yes"/>
      <point x="516.9114942528735" y="670.367816091954"/>
      <point x="451.0781609195402" y="724.0"/>
      <point x="328.6183908045977" y="724.0" type="curve" smooth="yes"/>
      <point x="190.46436781609196" y="724.0"/>
      <point x="113.60919540229887" y="656.1413793103449"/>
      <point x="113.60919540229887" y="581.528735632184" type="curve" smooth="yes"/>
      <point x="113.60919540229887" y="529.9885057471264"/>
      <point x="153.30344827586208" y="506.7563218390804"/>
      <point x="207.4942528735632" y="506.7563218390804" type="curve"/>
      <point x="216.09885057471266" y="595.1057471264369"/>
      <point x="253.2632183908046" y="667.7402298850575"/>
      <point x="319.78160919540227" y="667.7402298850575" type="curve" smooth="yes"/>
      <point x="364.62988505747126" y="667.7402298850575"/>
      <point x="389.68045977011496" y="629.0816091954023"/>
      <point x="389.68045977011496" y="573.8793103448276" type="curve" smooth="yes"/>
      <point x="389.68045977011496" y="488.8045977011494"/>
      <point x="359.8919540229885" y="418.61609195402303"/>
      <point x="228.8103448275862" y="297.1678160919541" type="curve" smooth="yes"/>
      <point x="8.11264367816092" y="92.87241379310346" type="line"/>
    </contour>
  </outline>
</glyph>
<glyph name="three" format="2">
  <advance width="528.7563218390806"/>
  <unicode hex="0033"/>
  <outline>
    <contour>
      <point x="191.2873563218391" y="-10.0" type="curve" smooth="yes"/>
      <point x="314.6931034482759" y="-10.0"/>
      <point x="465.9735632183908" y="48.87241379310345"/>
      <point x="465.9735632183908" y="227.93333333333334" type="curve" smooth="yes"/>
      <point x="465.9735632183908" y="311.73333333333335"/>
      <point x="412.8793103448276" y="363.60574712643677"/>
      <point x="328.71839080459773" y="373.2390804597701" type="curve"/>
      <point x="454.8793103448276" y="397.60574712643677"/>
      <point x="518.8068965517241" y="489.6942528735632"/>
      <point x="518.8068965517241" y="583.2" type="curve" smooth="yes"/>
      <point x="518.8068965517241" y="672.7333333333333"/>
      <point x="445.0632183908046" y="724.0"/>
      <point x="335.51609195402295" y="724.0" type="curve" smooth="yes"/>
      <point x="212.24827586206897" y="724.0"/>
      <point x="113.65402298850574" y="662.0988505747127"/>
      <point x="113.65402298850574" y="580.0988505747127" type="curve" smooth="yes"/>
      <point x="113.65402298850574" y="533.4885057471265"/>
      <point x="154.05632183908045" y="518.9942528735633"/>
      <point x="206.74022988505746" y="518.9942528735633" type="curve"/>
      <point x="221.87816091954022" y="598.1333333333334"/>
      <point x="249.45977011494253" y="668.1333333333334"/>
      <point x="322.4977011494253" y="668.1333333333334" type="curve" smooth="yes"/>
      <point x="370.16896551724136" y="668.1333333333334"/>
      <point x="391.14367816091954" y="632.196551724138"/>
      <point x="391.14367816091954" y="581.7413793103448" type="curve" smooth="yes"/>
      <point x="391.14367816091954" y="471.21494252873566"/>
      <point x="312.1770114942529" y="397.87586206896555"/>
      <point x="206.09425287356322" y="397.87586206896555" type="curve" smooth="yes"/>
      <point x="176.2942528735632" y="397.87586206896555" type="line"/>
      <point x="166.43333333333334" y="340.87011494252874" type="line"/>
      <point x="206.3609195402299" y="340.87011494252874" type="line" smooth="yes"/>
      <point x="289.0770114942529" y="340.87011494252874"/>
      <point x="336.3103448275862" y="296.17471264367816"/>
      <point x="336.3103448275862" y="220.33908045977012" type="curve" smooth="yes"/>
      <point x="336.3103448275862" y="109.58735632183908"/>
      <point x="271.8942528735633" y="53.742528735632185"/>
      <point x="202.51724137931035" y="53.742528735632185" type="curve" smooth="yes"/>
      <point x="126.38850574712643" y="53.742528735632185"/>
      <point x="94.43448275862069" y="113.38505747126437"/>
      <point x="95.53448275862068" y="183.74827586206897" type="curve"/>
      <point x="38.50804597701149" y="183.74827586206897"/>
      <point x="1.857471264367816" y="153.89655172413794"/>
      <point x="1.857471264367816" y="103.56551724137931" type="curve" smooth="yes"/>
      <point x="1.857471264367816" y="48.45057471264368"/>
      <point x="51.30689655172414" y="-10.0"/>
    </contour>
  </outline>
</glyph>
<glyph name="four" format="2">
  <advance width="528.7563218390806"/>
  <unicode hex="0034"/>
  <outline>
    <contour>
      <point x="122.88045977011495" y="0.0" type="line"/>
      <point x="441.9551724137931" y="0.0" type="line"/>
      <point x="452.5632183908046" y="48.00574712643679" type="line"/>
      <point x="434.27241379310345" y="48.00574712643679" type="line" smooth="yes"/>
      <point x="397.09195402298855" y="48.00574712643679"/>
      <point x="372.14137931034486" y="53.778160919540234"/>
      <point x="372.14137931034486" y="86.67816091954023" type="curve" smooth="yes"/>
      <point x="372.14137931034486" y="93.27241379310345"/>
      <point x="374.14137931034486" y="109.2735632183908"/>
      <point x="376.14137931034486" y="117.50114942528735" type="curve" smooth="yes"/>
      <point x="502.67241379310343" y="714.0" type="line"/>
      <point x="383.74942528735636" y="714.0" type="line"/>
      <point x="15.454022988505749" y="243.00574712643677" type="line"/>
      <point x="3.3505747126436787" y="191.25977011494254" type="line"/>
      <point x="492.7494252873564" y="191.25977011494254" type="line"/>
      <point x="505.9908045977012" y="251.49425287356323" type="line"/>
      <point x="53.29195402298851" y="251.49425287356323" type="line"/>
      <point x="67.30689655172415" y="224.683908045977" type="line"/>
      <point x="273.75402298850577" y="487.21954022988507" type="line" smooth="yes"/>
      <point x="298.7586206896552" y="519.0080459770115"/>
      <point x="343.4229885057471" y="582.8885057471264"/>
      <point x="367.84597701149426" y="625.4988505747126" type="curve"/>
      <point x="349.21264367816093" y="563.4988505747126"/>
      <point x="331.57931034482755" y="488.00344827586207"/>
      <point x="320.2" y="432.7402298850575" type="curve" smooth="yes"/>
      <point x="254.9229885057471" y="120.00574712643679" type="line" smooth="yes"/>
      <point x="241.30229885057472" y="54.12988505747126"/>
      <point x="201.3862068965517" y="48.00574712643679"/>
      <point x="163.3218390804598" y="48.00574712643679" type="curve" smooth="yes"/>
      <point x="132.3494252873563" y="48.00574712643679" type="line"/>
    </contour>
  </outline>
</glyph>
<glyph name="five" format="2">
  <advance width="528.7563218390806"/>
  <unicode hex="0035"/>
  <outline>
    <contour>
      <point x="185.26896551724138" y="-10.0" type="curve" smooth="yes"/>
      <point x="360.0977011494253" y="-10.0"/>
      <point x="465.37471264367815" y="102.35287356321838"/>
      <point x="465.37471264367815" y="248.92183908045976" type="curve" smooth="yes"/>
      <point x="465.37471264367815" y="366.59655172413795"/>
      <point x="385.99655172413793" y="430.7505747126437"/>
      <point x="261.9172413793103" y="430.7505747126437" type="curve" smooth="yes"/>
      <point x="217.96206896551726" y="430.7505747126437"/>
      <point x="189.55402298850578" y="421.8896551724138"/>
      <point x="167.9183908045977" y="414.8896551724138" type="curve"/>
      <point x="226.132183908046" y="618.2379310344828" type="line"/>
      <point x="412.2402298850575" y="618.2379310344828" type="line" smooth="yes"/>
      <point x="446.548275862069" y="618.2379310344828"/>
      <point x="456.435632183908" y="608.6045977011495"/>
      <point x="456.435632183908" y="594.3505747126437" type="curve" smooth="yes"/>
      <point x="456.435632183908" y="586.8563218390805"/>
      <point x="454.06896551724134" y="563.8689655172413"/>
      <point x="452.70229885057466" y="546.3632183908046" type="curve"/>
      <point x="504.11839080459777" y="546.3632183908046" type="line"/>
      <point x="533.0931034482759" y="714.0" type="line"/>
      <point x="194.5034482758621" y="714.0" type="line"/>
      <point x="93.45172413793102" y="364.1804597701149" type="line"/>
      <point x="129.62298850574712" y="348.11149425287357" type="line"/>
      <point x="154.1816091954023" y="359.11149425287357"/>
      <point x="181.9551724137931" y="370.11149425287357"/>
      <point x="227.28735632183907" y="370.11149425287357" type="curve" smooth="yes"/>
      <point x="291.65977011494255" y="370.11149425287357"/>
      <point x="339.5252873563218" y="327.4793103448276"/>
      <point x="339.5252873563218" y="241.55517241379312" type="curve" smooth="yes"/>
      <point x="339.5252873563218" y="117.06666666666668"/>
      <point x="282.05747126436785" y="52.89425287356322"/>
      <point x="196.06896551724137" y="52.89425287356322" type="curve" smooth="yes"/>
      <point x="114.18850574712643" y="52.89425287356322"/>
      <point x="95.99655172413793" y="120.21379310344828"/>
      <point x="95.72988505747126" y="174.57126436781607" type="curve"/>
      <point x="39.16436781609195" y="174.57126436781607"/>
      <point x="13.540229885057471" y="142.55402298850575"/>
      <point x="13.540229885057471" y="100.3367816091954" type="curve" smooth="yes"/>
      <point x="13.540229885057471" y="41.078160919540224"/>
      <point x="59.91149425287357" y="-10.0"/>
    </contour>
  </outline>
</glyph>
<glyph name="six" format="2">
  <advance width="528.7563218390806"/>
  <unicode hex="0036"/>
  <outline>
    <contour>
      <point x="241.6149425287356" y="-10.0" type="curve" smooth="yes"/>
      <point x="408.05057471264365" y="-10.0"/>
      <point x="488.4885057471264" y="123.83218390804598"/>
      <point x="488.4885057471264" y="264.04712643678164" type="curve" smooth="yes"/>
      <point x="488.4885057471264" y="357.46781609195403"/>
      <point x="440.02758620689656" y="435.88850574712643"/>
      <point x="334.7114942528736" y="435.88850574712643" type="curve" smooth="yes"/>
      <point x="271.8448275862069" y="435.88850574712643"/>
      <point x="225.5264367816092" y="407.3712643678161"/>
      <point x="197.3597701149425" y="385.12988505747126" type="curve"/>
      <point x="240.14252873563217" y="574.3793103448276"/>
      <point x="305.2310344827586" y="669.9942528735633"/>
      <point x="389.01839080459774" y="669.9942528735633" type="curve" smooth="yes"/>
      <point x="440.6022988505747" y="669.9942528735633"/>
      <point x="445.65402298850574" y="609.0034482758621"/>
      <point x="444.5540229885058" y="546.7344827586207" type="curve"/>
      <point x="511.7068965517241" y="546.7344827586207"/>
      <point x="551.3471264367817" y="577.3563218390806"/>
      <point x="551.3471264367817" y="627.2080459770115" type="curve" smooth="yes"/>
      <point x="551.3471264367817" y="679.6034482758621"/>
      <point x="500.64367816091954" y="724.0"/>
      <point x="402.883908045977" y="724.0" type="curve" smooth="yes"/>
      <point x="190.1287356321839" y="724.0"/>
      <point x="56.91724137931035" y="473.47701149425285"/>
      <point x="56.91724137931035" y="224.33793103448275" type="curve" smooth="yes"/>
      <point x="56.91724137931035" y="64.85402298850575"/>
      <point x="139.30919540229885" y="-10.0"/>
    </contour>
    <contour>
      <point x="253.08620689655172" y="49.74022988505747" type="curve" smooth="yes"/>
      <point x="202.97011494252874" y="49.74022988505747"/>
      <point x="171.53793103448277" y="94.96666666666667"/>
      <point x="171.53793103448277" y="193.26091954022988" type="curve" smooth="yes"/>
      <point x="171.53793103448277" y="234.17931034482757"/>
      <point x="176.00574712643677" y="273.7747126436782"/>
      <point x="185.11839080459768" y="325.0" type="curve"/>
      <point x="211.916091954023" y="351.3655172413793"/>
      <point x="255.13103448275862" y="379.87011494252874"/>
      <point x="297.82758620689657" y="379.87011494252874" type="curve" smooth="yes"/>
      <point x="344.70344827586206" y="379.87011494252874"/>
      <point x="369.50114942528734" y="336.9448275862069"/>
      <point x="369.50114942528734" y="259.32183908045977" type="curve" smooth="yes"/>
      <point x="369.50114942528734" y="141.5183908045977"/>
      <point x="321.81954022988504" y="49.74022988505747"/>
    </contour>
  </outline>
</glyph>
<glyph name="seven" format="2">
  <advance width="528.7563218390806"/>
  <unicode hex="0037"/>
  <outline>
    <contour>
      <point x="102.60919540229887" y="0.0" type="line"/>
      <point x="179.32758620689654" y="0.0" type="line"/>
      <point x="566.5632183908046" y="668.7563218390804" type="line"/>
      <point x="575.3" y="714.0" type="line"/>
      <point x="142.71724137931034" y="714.0" type="line"/>
      <point x="99.59310344827587" y="517.2379310344828" type="line"/>
      <point x="151.00919540229884" y="517.2379310344828" type="line"/>
      <point x="164.64252873563217" y="567.2379310344828" type="line" smooth="yes"/>
      <point x="173.64252873563217" y="600.2379310344828"/>
      <point x="195.8977011494253" y="618.6045977011495"/>
      <point x="229.33103448275864" y="618.6045977011495" type="curve" smooth="yes"/>
      <point x="470.22298850574714" y="618.6045977011495" type="line"/>
    </contour>
  </outline>
</glyph>
<glyph name="eight" format="2">
  <advance width="528.7563218390806"/>
  <unicode hex="0038"/>
  <outline>
    <contour>
      <point x="232.0298850574713" y="-10.0" type="curve" smooth="yes"/>
      <point x="373.367816091954" y="-10.0"/>
      <point x="480.1471264367816" y="57.46666666666667"/>
      <point x="480.1471264367816" y="205.07241379310346" type="curve" smooth="yes"/>
      <point x="480.1471264367816" y="284.32758620689657"/>
      <point x="433.28045977011493" y="338.7471264367816"/>
      <point x="368.0609195402299" y="381.41954022988506" type="curve"/>
      <point x="464.7597701149425" y="426.7471264367816"/>
      <point x="529.7137931034483" y="478.1"/>
      <point x="529.7137931034483" y="580.2" type="curve" smooth="yes"/>
      <point x="529.7137931034483" y="662.8724137931034"/>
      <point x="463.9701149425287" y="724.0"/>
      <point x="349.89310344827584" y="724.0" type="curve" smooth="yes"/>
      <point x="182.57241379310346" y="724.0"/>
      <point x="116.50344827586207" y="636.2057471264367"/>
      <point x="116.50344827586207" y="531.9827586206897" type="curve" smooth="yes"/>
      <point x="116.50344827586207" y="465.93908045977014"/>
      <point x="151.21724137931034" y="405.77126436781606"/>
      <point x="203.95632183908046" y="363.3655172413793" type="curve"/>
      <point x="96.95057471264369" y="319.9988505747126"/>
      <point x="17.48850574712644" y="272.116091954023"/>
      <point x="17.48850574712644" y="158.64942528735634" type="curve" smooth="yes"/>
      <point x="17.48850574712644" y="60.621839080459765"/>
      <point x="99.86896551724138" y="-10.0"/>
    </contour>
    <contour>
      <point x="235.5793103448276" y="43.764367816091955" type="curve" smooth="yes"/>
      <point x="170.05862068965516" y="43.764367816091955"/>
      <point x="131.47471264367817" y="87.01609195402298"/>
      <point x="131.47471264367817" y="155.82528735632184" type="curve" smooth="yes"/>
      <point x="131.47471264367817" y="243.3"/>
      <point x="178.6632183908046" y="298.00689655172414"/>
      <point x="255.02988505747126" y="331.10574712643677" type="curve"/>
      <point x="327.70344827586206" y="287.8666666666666"/>
      <point x="365.41379310344826" y="245.4609195402299"/>
      <point x="365.41379310344826" y="178.81724137931036" type="curve" smooth="yes"/>
      <point x="365.41379310344826" y="88.97586206896551"/>
      <point x="305.9459770114943" y="43.764367816091955"/>
    </contour>
    <contour>
      <point x="315.8091954022988" y="409.764367816092" type="curve"/>
      <point x="260.6816091954023" y="445.1425287356322"/>
      <point x="233.2241379310345" y="487.28390804597706"/>
      <point x="233.2241379310345" y="540.4471264367816" type="curve" smooth="yes"/>
      <point x="233.2241379310345" y="619.4172413793103"/>
      <point x="279.4666666666667" y="669.628735632184"/>
      <point x="343.71724137931034" y="669.628735632184" type="curve" smooth="yes"/>
      <point x="397.5908045977012" y="669.628735632184"/>
      <point x="423.0080459770115" y="628.5908045977012"/>
      <point x="423.0080459770115" y="573.7942528735633" type="curve" smooth="yes"/>
      <point x="423.0080459770115" y="506.5574712643678"/>
      <point x="395.8436781609196" y="452.2298850574713"/>
    </contour>
  </outline>
</glyph>
<glyph name="nine" format="2">
  <advance width="528.7563218390806"/>
  <unicode hex="0039"/>
  <outline>
    <contour>
      <point x="168.97471264367815" y="-10.0" type="curve" smooth="yes"/>
      <point x="421.76089655172416" y="-10.0"/>
      <point x="517.4114942528736" y="347.88160919540223"/>
      <point x="517.4114942528736" y="533.5620689655173" type="curve" smooth="yes"/>
      <point x="517.4114942528736" y="655.4781609195402"/>
      <point x="449.2632183908046" y="724.0"/>
      <point x="341.32528735632184" y="724.0" type="curve" smooth="yes"/>
      <point x="201.17013793103447" y="724.0"/>
      <point x="80.68045977011494" y="605.8"/>
      <point x="80.68045977011494" y="437.1942528735632" type="curve" smooth="yes"/>
      <point x="80.68045977011494" y="342.39425287356323"/>
      <point x="135.55977011494252" y="275.0"/>
      <point x="233.86091954022987" y="275.0" type="curve" smooth="yes"/>
      <point x="298.3344827586207" y="275.0"/>
      <point x="343.780459770115" y="308.0"/>
      <point x="375.80804597701155" y="343.0" type="curve"/>
      <point x="325.93333333333334" y="156.18965517241378"/>
      <point x="271.37471264367815" y="46.64022988505747"/>
      <point x="179.4816091954023" y="46.64022988505747" type="curve" smooth="yes"/>
      <point x="123.38850574712643" y="46.64022988505747"/>
      <point x="102.08160919540231" y="103.38850574712643"/>
      <point x="101.95402298850576" y="152.90919540229888" type="curve"/>
      <point x="58.50459770114943" y="152.90919540229888"/>
      <point x="32.248275862068965" y="125.9367816091954"/>
      <point x="32.248275862068965" y="85.78045977011494" type="curve" smooth="yes"/>
      <point x="32.248275862068965" y="35.748275862068965"/>
      <point x="70.30689655172414" y="-10.0"/>
    </contour>
    <contour>
      <point x="274.5942528735632" y="338.99655172413793" type="curve" smooth="yes"/>
      <point x="230.13793103448273" y="338.99655172413793"/>
      <point x="201.6816091954023" y="373.1735632183908"/>
      <point x="201.6816091954023" y="438.47701149425285" type="curve" smooth="yes"/>
      <point x="201.6816091954023" y="545.9528735632184"/>
      <point x="256.7057471264368" y="663.2459770114943"/>
      <point x="333.50114942528734" y="663.2459770114943" type="curve" smooth="yes"/>
      <point x="375.85632183908046" y="663.2459770114943"/>
      <point x="406.31264367816095" y="627.2080459770116"/>
      <point x="406.31264367816095" y="539.2333333333333" type="curve" smooth="yes"/>
      <point x="406.31264367816095" y="507.71954022988507"/>
      <point x="399.1735632183908" y="454.8505747126437"/>
      <point x="390.2" y="420.38505747126436" type="curve"/>
      <point x="365.89655172413796" y="380.88045977011495"/>
      <point x="326.70804597701147" y="339.2241379310345"/>
    </contour>
  </outline>
</glyph>
<glyph name="colon" format="2">
  <advance width="312.4701149425287"/>
  <unicode hex="003A"/>
  <outline>
    <contour>
      <point x="193.9712643678161" y="390.1137931034483" type="curve" smooth="yes"/>
      <point x="231.82413793103447" y="390.1137931034483"/>
      <point x="271.564367816092" y="413.316091954023"/>
      <point x="271.564367816092" y="476.6873563218391" type="curve" smooth="yes"/>
      <point x="271.564367816092" y="519.7321839080461"/>
      <point x="242.9873563218391" y="540.7597701149425"/>
      <point x="203.92873563218393" y="540.7597701149425" type="curve" smooth="yes"/>
      <point x="159.69080459770115" y="540.7597701149425"/>
      <point x="126.5632183908046" y="507.8195402298851"/>
      <point x="126.5632183908046" y="454.98275862068965" type="curve" smooth="yes"/>
      <point x="126.5632183908046" y="412.5195402298851"/>
      <point x="153.9873563218391" y="390.1137931034483"/>
    </contour>
    <contour>
      <point x="105.44022988505746" y="-8.0" type="curve" smooth="yes"/>
      <point x="143.29310344827587" y="-8.0"/>
      <point x="183.17241379310346" y="15.202298850574712"/>
      <point x="183.17241379310346" y="78.5735632183908" type="curve" smooth="yes"/>
      <point x="183.17241379310346" y="121.61839080459771"/>
      <point x="154.45632183908046" y="142.64597701149427"/>
      <point x="115.5367816091954" y="142.64597701149427" type="curve" smooth="yes"/>
      <point x="71.15977011494252" y="142.64597701149427"/>
      <point x="38.03218390804598" y="109.8448275862069"/>
      <point x="38.03218390804598" y="57.00804597701149" type="curve" smooth="yes"/>
      <point x="38.03218390804598" y="14.405747126436781"/>
      <point x="65.59540229885059" y="-8.0"/>
    </contour>
  </outline>
</glyph>
<glyph name="semicolon" format="2">
  <advance width="312.1034482758621"/>
  <unicode hex="003B"/>
  <outline>
    <contour>
      <point x="-11.467816091954024" y="-148.87586206896552" type="line"/>
      <point x="119.4103448275862" y="-122.01379310344828"/>
      <point x="184.58505747126438" y="-41.808045977011496"/>
      <point x="184.58505747126438" y="54.91954022988505" type="curve" smooth="yes"/>
      <point x="184.58505747126438" y="110.10000000000001"/>
      <point x="149.88390804597702" y="141.50689655172414"/>
      <point x="107.68735632183908" y="141.50689655172414" type="curve" smooth="yes"/>
      <point x="71.79655172413794" y="141.50689655172414"/>
      <point x="40.64022988505747" y="118.01034482758621"/>
      <point x="40.64022988505747" y="75.93333333333334" type="curve" smooth="yes"/>
      <point x="40.64022988505747" y="21.751724137931035"/>
      <point x="93.77011494252874" y="21.639080459770113"/>
      <point x="93.77011494252874" y="-16.529885057471265" type="curve" smooth="yes"/>
      <point x="93.77011494252874" y="-56.50344827586207"/>
      <point x="61.109195402298845" y="-84.88275862068966"/>
      <point x="-2.8448275862068964" y="-100.87011494252873" type="curve"/>
    </contour>
    <contour>
      <point x="193.9712643678161" y="390.1137931034483" type="curve" smooth="yes"/>
      <point x="231.68505747126434" y="390.1137931034483"/>
      <point x="271.564367816092" y="413.316091954023"/>
      <point x="271.564367816092" y="476.6873563218391" type="curve" smooth="yes"/>
      <point x="271.564367816092" y="519.7321839080461"/>
      <point x="242.84827586206896" y="540.7597701149425"/>
      <point x="203.92873563218393" y="540.7597701149425" type="curve" smooth="yes"/>
      <point x="159.69080459770115" y="540.7597701149425"/>
      <point x="126.5632183908046" y="507.8195402298851"/>
      <point x="126.5632183908046" y="454.98275862068965" type="curve" smooth="yes"/>
      <point x="126.5632183908046" y="412.5195402298851"/>
      <point x="153.9873563218391" y="390.1137931034483"/>
    </contour>
  </outline>
</glyph>
<glyph name="less" format="2">
  <advance width="509.8666666666667"/>
  <unicode hex="003C"/>
  <outline>
    <contour>
      <point x="462.30229885057474" y="106.87011494252873" type="line"/>
      <point x="462.30229885057474" y="180.49655172413793" type="line"/>
      <point x="159.02758620689653" y="357.0" type="line"/>
      <point x="462.30229885057474" y="535.6425287356321" type="line"/>
      <point x="462.30229885057474" y="609.1298850574713" type="line"/>
      <point x="64.02643678160919" y="376.6344827586207" type="line"/>
      <point x="64.02643678160919" y="338.3655172413793" type="line"/>
    </contour>
  </outline>
</glyph>
<glyph name="equal" format="2">
  <advance width="509.8666666666667"/>
  <unicode hex="003D"/>
  <outline>
    <contour>
      <point x="62.78505747126437" y="420.09999999999997" type="line"/>
      <point x="463.68275862068964" y="420.09999999999997" type="line"/>
      <point x="463.68275862068964" y="485.1057471264368" type="line"/>
      <point x="62.78505747126437" y="485.1057471264368" type="line"/>
    </contour>
    <contour>
      <point x="62.78505747126437" y="228.89425287356323" type="line"/>
      <point x="463.68275862068964" y="228.89425287356323" type="line"/>
      <point x="463.68275862068964" y="293.90000000000003" type="line"/>
      <point x="62.78505747126437" y="293.90000000000003" type="line"/>
    </contour>
  </outline>
</glyph>
<glyph name="greater" format="2">
  <advance width="509.8666666666667"/>
  <unicode hex="003E"/>
  <outline>
    <contour>
      <point x="64.02643678160919" y="106.87011494252873" type="line"/>
      <point x="462.30229885057474" y="338.3655172413793" type="line"/>
      <point x="462.30229885057474" y="376.6344827586207" type="line"/>
      <point x="64.02643678160919" y="609.1298850574713" type="line"/>
      <point x="64.02643678160919" y="535.6425287356321" type="line"/>
      <point x="367.3011494252874" y="357.0" type="line"/>
      <point x="64.02643678160919" y="180.49655172413793" type="line"/>
    </contour>
  </outline>
</glyph>
<glyph name="question" format="2">
  <advance width="486.4356321839081"/>
  <unicode hex="003F"/>
  <outline>
    <contour>
      <point x="185.58505747126435" y="217.54367816091954" type="line"/>
      <point x="243.8850574712644" y="217.54367816091954" type="line"/>
      <point x="275.5206896551724" y="317.0" type="line"/>
      <point x="408.55632183908045" y="369.3781609195402"/>
      <point x="509.44942528735635" y="444.11149425287357"/>
      <point x="509.44942528735635" y="564.1068965517242" type="curve" smooth="yes"/>
      <point x="509.44942528735635" y="673.3666666666667"/>
      <point x="436.4230114942528" y="724.0"/>
      <point x="318.7620689655172" y="724.0" type="curve" smooth="yes"/>
      <point x="190.32873563218388" y="724.0"/>
      <point x="110.2551724137931" y="663.3827586206896"/>
      <point x="110.2551724137931" y="592.2804597701149" type="curve" smooth="yes"/>
      <point x="110.2551724137931" y="547.7666666666668"/>
      <point x="143.5425287356322" y="524.1057471264369"/>
      <point x="209.34597701149428" y="524.1057471264369" type="curve"/>
      <point x="219.8505747126437" y="600.1057471264369"/>
      <point x="244.1287356321839" y="667.9942528735633"/>
      <point x="308.75977011494246" y="667.9942528735633" type="curve" smooth="yes"/>
      <point x="350.3540229885058" y="667.9942528735633"/>
      <point x="381.06321839080454" y="631.335632183908"/>
      <point x="381.06321839080454" y="566.6252873563218" type="curve" smooth="yes"/>
      <point x="381.06321839080454" y="456.4747126436781"/>
      <point x="306.4908045977012" y="395.12643678160924"/>
      <point x="193.20689655172413" y="350.6344827586207" type="curve"/>
    </contour>
    <contour>
      <point x="187.20000000000002" y="-8.0" type="curve" smooth="yes"/>
      <point x="225.1919540229885" y="-8.0"/>
      <point x="264.932183908046" y="15.202298850574712"/>
      <point x="264.932183908046" y="78.5735632183908" type="curve" smooth="yes"/>
      <point x="264.932183908046" y="121.61839080459771"/>
      <point x="236.35517241379313" y="142.64597701149427"/>
      <point x="197.2965517241379" y="142.64597701149427" type="curve" smooth="yes"/>
      <point x="153.05862068965516" y="142.64597701149427"/>
      <point x="119.93103448275863" y="109.8448275862069"/>
      <point x="119.93103448275863" y="57.00804597701149" type="curve" smooth="yes"/>
      <point x="119.93103448275863" y="14.405747126436781"/>
      <point x="147.3551724137931" y="-8.0"/>
    </contour>
  </outline>
</glyph>
<glyph name="bracketleft" format="2">
  <advance width="369.1022988505747"/>
  <unicode hex="005B"/>
  <outline>
    <contour>
      <point x="12.920689655172415" y="-128.0" type="line"/>
      <point x="255.06206896551726" y="-128.0" type="line"/>
      <point x="265.3034482758621" y="-79.99425287356321" type="line"/>
      <point x="225.23678160919542" y="-79.99425287356321" type="line" smooth="yes"/>
      <point x="189.15862068965518" y="-79.99425287356321"/>
      <point x="161.24367816091956" y="-73.99425287356321"/>
      <point x="161.24367816091956" y="-37.20459770114943" type="curve" smooth="yes"/>
      <point x="161.24367816091956" y="-30.128735632183904"/>
      <point x="162.483908045977" y="-19.119540229885057"/>
      <point x="164.483908045977" y="-10.105747126436782" type="curve"/>
      <point x="302.00000000000006" y="639.9942528735633" type="line"/>
      <point x="315.00000000000006" y="702.9942528735633"/>
      <point x="352.4471264367817" y="711.9942528735633"/>
      <point x="393.5264367816092" y="711.9942528735633" type="curve" smooth="yes"/>
      <point x="433.45402298850576" y="711.9942528735633" type="line"/>
      <point x="444.06206896551726" y="760.0" type="line"/>
      <point x="201.92068965517242" y="760.0" type="line"/>
    </contour>
  </outline>
</glyph>
<glyph name="backslash" format="2">
  <advance width="267.5551724137931"/>
  <unicode hex="005C"/>
  <outline>
    <contour>
      <point x="151.8471264367816" y="-121.0" type="line"/>
      <point x="213.55287356321838" y="-121.0" type="line"/>
      <point x="171.43793103448274" y="760.0" type="line"/>
      <point x="109.7448275862069" y="760.0" type="line"/>
    </contour>
  </outline>
</glyph>
<glyph name="bracketright" format="2">
  <advance width="369.1022988505747"/>
  <unicode hex="005D"/>
  <outline>
    <contour>
      <point x="-49.763218390804596" y="-128.0" type="line"/>
      <point x="191.51724137931035" y="-128.0" type="line"/>
      <point x="380.1505747126437" y="760.0" type="line"/>
      <point x="138.37586206896552" y="760.0" type="line"/>
      <point x="127.99540229885056" y="711.9942528735633" type="line"/>
      <point x="168.06206896551726" y="711.9942528735633" type="line" smooth="yes"/>
      <point x="204.0011494252874" y="711.9942528735633"/>
      <point x="232.4218390804598" y="705.9942528735633"/>
      <point x="232.4218390804598" y="669.2045977011494" type="curve" smooth="yes"/>
      <point x="232.4218390804598" y="661.9896551724139"/>
      <point x="230.81494252873563" y="651.2586206896552"/>
      <point x="228.81494252873563" y="642.1057471264369" type="curve" smooth="yes"/>
      <point x="91.5264367816092" y="-7.994252873563218" type="line"/>
      <point x="78.5264367816092" y="-70.99425287356321"/>
      <point x="41.47241379310344" y="-79.99425287356321"/>
      <point x="0.7724137931034485" y="-79.99425287356321" type="curve" smooth="yes"/>
      <point x="-39.1551724137931" y="-79.99425287356321" type="line"/>
    </contour>
  </outline>
</glyph>
<glyph name="asciicircum" format="2">
  <advance width="509.8666666666667"/>
  <unicode hex="005E"/>
  <outline>
    <contour>
      <point x="47.88390804597701" y="264.11149425287357" type="line"/>
      <point x="116.85632183908045" y="264.11149425287357" type="line"/>
      <point x="261.8034482758621" y="612.864367816092" type="line"/>
      <point x="408.61149425287357" y="264.11149425287357" type="line"/>
      <point x="477.583908045977" y="264.11149425287357" type="line"/>
      <point x="281.1862068965517" y="714.0" type="line"/>
      <point x="243.50919540229884" y="714.0" type="line"/>
    </contour>
  </outline>
</glyph>
<glyph name="braceleft" format="2">
  <advance width="406.6229885057471"/>
  <unicode hex="007B"/>
  <outline>
    <contour>
      <point x="218.90804597701148" y="-126.36551724137931" type="curve" smooth="yes"/>
      <point x="297.45862068965516" y="-126.36551724137931" type="line"/>
      <point x="308.32068965517243" y="-77.75287356321839" type="line"/>
      <point x="274.883908045977" y="-77.75287356321839" type="line" smooth="yes"/>
      <point x="236.31149425287356" y="-77.75287356321839"/>
      <point x="220.79310344827587" y="-58.12068965517242"/>
      <point x="220.79310344827587" y="-22.337931034482757" type="curve" smooth="yes"/>
      <point x="220.79310344827587" y="-8.895402298850575"/>
      <point x="222.4" y="6.231034482758622"/>
      <point x="226.15977011494252" y="23.129885057471267" type="curve" smooth="yes"/>
      <point x="261.8827586206897" y="187.79540229885058" type="line" smooth="yes"/>
      <point x="264.4770114942529" y="199.95747126436783"/>
      <point x="267.1333333333333" y="213.58505747126435"/>
      <point x="267.1333333333333" y="225.98620689655172" type="curve" smooth="yes"/>
      <point x="267.1333333333333" y="270.8586206896552"/>
      <point x="240.71379310344827" y="301.4908045977011"/>
      <point x="186.22643678160918" y="314.62068965517244" type="curve"/>
      <point x="187.24022988505746" y="320.2816091954023" type="line"/>
      <point x="262.348275862069" y="335.79080459770114"/>
      <point x="300.932183908046" y="376.9022988505747"/>
      <point x="314.5390804597701" y="440.0" type="curve" smooth="yes"/>
      <point x="350.35057471264366" y="605.9160919540229" type="line" smooth="yes"/>
      <point x="365.9183908045977" y="677.7666666666668"/>
      <point x="388.71264367816093" y="711.6149425287356"/>
      <point x="441.7931034482759" y="711.6149425287356" type="curve" smooth="yes"/>
      <point x="475.4574712643679" y="711.6149425287356" type="line"/>
      <point x="486.0655172413794" y="760.0" type="line"/>
      <point x="410.8402298850575" y="760.0" type="line" smooth="yes"/>
      <point x="292.4114942528736" y="760.0"/>
      <point x="245.0632183908046" y="712.9126436781609"/>
      <point x="223.94942528735632" y="614.9862068965517" type="curve" smooth="yes"/>
      <point x="187.06436781609196" y="442.37931034482756" type="line" smooth="yes"/>
      <point x="170.16666666666666" y="364.12988505747126"/>
      <point x="119.71954022988507" y="346.38505747126436"/>
      <point x="58.48620689655173" y="344.0057471264368" type="curve"/>
      <point x="46.775862068965516" y="291.6287356321839" type="line"/>
      <point x="98.2367816091954" y="289.6287356321839"/>
      <point x="137.4310344827586" y="275.5045977011494"/>
      <point x="137.4310344827586" y="222.98505747126438" type="curve" smooth="yes"/>
      <point x="137.4310344827586" y="213.7206896551724"/>
      <point x="136.65862068965515" y="203.24137931034483"/>
      <point x="134.05172413793102" y="191.88850574712643" type="curve" smooth="yes"/>
      <point x="102.54712643678161" y="43.1264367816092" type="line" smooth="yes"/>
      <point x="95.5448275862069" y="9.241379310344827"/>
      <point x="93.43218390804599" y="-6.591954022988506"/>
      <point x="93.43218390804599" y="-22.182758620689658" type="curve" smooth="yes"/>
      <point x="93.43218390804599" y="-88.36206896551722"/>
      <point x="136.76666666666668" y="-126.36551724137931"/>
    </contour>
  </outline>
</glyph>
<glyph name="bar" format="2">
  <advance width="519.2862068965518"/>
  <unicode hex="007C"/>
  <outline>
    <contour>
      <point x="233.18850574712644" y="-240.0" type="line"/>
      <point x="296.65402298850574" y="-240.0" type="line"/>
      <point x="296.65402298850574" y="760.0" type="line"/>
      <point x="233.18850574712644" y="760.0" type="line"/>
    </contour>
  </outline>
</glyph>
<glyph name="braceright" format="2">
  <advance width="406.483908045977"/>
  <unicode hex="007D"/>
  <outline>
    <contour>
      <point x="-51.1551724137931" y="-126.11149425287356" type="line"/>
      <point x="23.842528735632182" y="-126.11149425287356" type="line" smooth="yes"/>
      <point x="144.15517241379308" y="-126.11149425287356"/>
      <point x="190.49195402298852" y="-78.42988505747127"/>
      <point x="211.1" y="19.129885057471267" type="curve" smooth="yes"/>
      <point x="247.47931034482755" y="191.88850574712643" type="line" smooth="yes"/>
      <point x="263.99770114942527" y="270.3655172413793"/>
      <point x="315.1908045977011" y="288.6287356321839"/>
      <point x="376.28505747126434" y="291.235632183908" type="curve"/>
      <point x="388.13448275862066" y="343.38505747126436" type="line"/>
      <point x="336.67356321839077" y="345.38505747126436"/>
      <point x="297.1126436781609" y="358.7632183908046"/>
      <point x="297.1126436781609" y="411.64942528735634" type="curve" smooth="yes"/>
      <point x="297.1126436781609" y="421.6471264367816"/>
      <point x="298.4793103448276" y="431.4816091954023"/>
      <point x="300.8586206896552" y="442.6068965517241" type="curve" smooth="yes"/>
      <point x="334.51264367816094" y="602.2425287356322" type="line" smooth="yes"/>
      <point x="340.4655172413793" y="630.6528735632183"/>
      <point x="341.47816091954024" y="644.0586206896552"/>
      <point x="341.47816091954024" y="656.9436781609196" type="curve" smooth="yes"/>
      <point x="341.47816091954024" y="719.6712643678161"/>
      <point x="300.30574712643676" y="760.6206896551724"/>
      <point x="217.2919540229885" y="760.6206896551724" type="curve" smooth="yes"/>
      <point x="137.22413793103448" y="760.6206896551724" type="line"/>
      <point x="126.36206896551722" y="712.235632183908" type="line"/>
      <point x="160.0264367816092" y="712.235632183908" type="line" smooth="yes"/>
      <point x="198.59885057471263" y="712.235632183908"/>
      <point x="213.8896551724138" y="693.1091954022988"/>
      <point x="213.8896551724138" y="658.4770114942529" type="curve" smooth="yes"/>
      <point x="213.8896551724138" y="642.5057471264367"/>
      <point x="212.28275862068966" y="627.8850574712643"/>
      <point x="208.52298850574712" y="610.9862068965517" type="curve" smooth="yes"/>
      <point x="172.8" y="445.05632183908045" type="line" smooth="yes"/>
      <point x="170.2057471264368" y="432.66666666666663"/>
      <point x="167.77701149425286" y="419.77241379310345"/>
      <point x="167.77701149425286" y="408.648275862069" type="curve" smooth="yes"/>
      <point x="167.77701149425286" y="364.00344827586207"/>
      <point x="193.82988505747127" y="333.8896551724138"/>
      <point x="248.5448275862069" y="320.62068965517244" type="curve"/>
      <point x="247.30344827586208" y="314.3655172413793" type="line"/>
      <point x="172.3344827586207" y="298.6287356321839"/>
      <point x="133.38390804597702" y="257.3655172413793"/>
      <point x="120.00459770114944" y="194.6344827586207" type="curve" smooth="yes"/>
      <point x="83.00459770114944" y="23.129885057471267" type="line" smooth="yes"/>
      <point x="68.11954022988506" y="-44.29540229885057"/>
      <point x="46.70344827586207" y="-77.49885057471265"/>
      <point x="-6.882758620689655" y="-77.49885057471265" type="curve" smooth="yes"/>
      <point x="-40.686206896551724" y="-77.49885057471265" type="line"/>
    </contour>
  </outline>
</glyph>
<glyph name="asciitilde" format="2">
  <advance width="509.8666666666667"/>
  <unicode hex="007E"/>
  <outline>
    <contour>
      <point x="47.782758620689656" y="265.2494252873563" type="curve"/>
      <point x="112.72873563218391" y="265.2494252873563" type="line"/>
      <point x="116.32068965517242" y="345.983908045977"/>
      <point x="133.48850574712642" y="382.1218390804597"/>
      <point x="169.85977011494253" y="382.1218390804597" type="curve" smooth="yes"/>
      <point x="192.64137931034486" y="382.1218390804597"/>
      <point x="207.01609195402298" y="367.00229885057473"/>
      <point x="244.0896551724138" y="329.7689655172414" type="curve" smooth="yes"/>
      <point x="290.88045977011495" y="281.57931034482755"/>
      <point x="321.1356321839081" y="265.2494252873563"/>
      <point x="360.3298850574713" y="265.2494252873563" type="curve" smooth="yes"/>
      <point x="448.40000000000003" y="265.2494252873563"/>
      <point x="474.00114942528734" y="356.3919540229885"/>
      <point x="478.78505747126434" y="447.8896551724138" type="curve"/>
      <point x="412.97816091954024" y="447.8896551724138" type="line"/>
      <point x="408.3471264367816" y="369.06781609195406"/>
      <point x="392.55862068965513" y="331.2448275862069"/>
      <point x="358.77241379310345" y="331.2448275862069" type="curve" smooth="yes"/>
      <point x="336.7114942528736" y="331.2448275862069"/>
      <point x="320.1448275862069" y="349.16436781609195"/>
      <point x="286.4402298850575" y="381.2689655172414" type="curve" smooth="yes"/>
      <point x="238.5080459770115" y="426.33448275862065"/>
      <point x="211.59885057471266" y="447.8896551724138"/>
      <point x="167.83448275862068" y="447.8896551724138" type="curve" smooth="yes"/>
      <point x="75.96206896551725" y="447.8896551724138"/>
      <point x="50.75402298850575" y="355.6367816091954"/>
    </contour>
  </outline>
</glyph>
<glyph name="twosuperior" format="2">
  <advance width="371.3494252873563"/>
  <unicode hex="00B2"/>
  <outline>
    <contour>
      <point x="59.34137931034483" y="386.0" type="line"/>
      <point x="352.3862068965517" y="386.0" type="line"/>
      <point x="380.019540229885" y="516.251724137931" type="line"/>
      <point x="345.3436781609196" y="516.251724137931" type="line"/>
      <point x="337.7103448275862" y="495.25172413793103" type="line" smooth="yes"/>
      <point x="330.0770114942529" y="473.25172413793103"/>
      <point x="316.8103448275862" y="454.25172413793103"/>
      <point x="288.0103448275862" y="454.25172413793103" type="curve" smooth="yes"/>
      <point x="153.3126436781609" y="454.25172413793103" type="line"/>
      <point x="268.2103448275862" y="545.6425287356321" type="line" smooth="yes"/>
      <point x="374.82528735632184" y="630.6505747126437"/>
      <point x="407.2459770114943" y="675.6103448275862"/>
      <point x="407.2459770114943" y="733.1149425287357" type="curve" smooth="yes"/>
      <point x="407.2459770114943" y="787.7471264367816"/>
      <point x="359.632183908046" y="824.0"/>
      <point x="283.7758620689655" y="824.0" type="curve" smooth="yes"/>
      <point x="194.2735632183908" y="824.0"/>
      <point x="139.47126436781608" y="782.4459770114942"/>
      <point x="139.47126436781608" y="731.3413793103448" type="curve" smooth="yes"/>
      <point x="139.47126436781608" y="702.4666666666667"/>
      <point x="164.37471264367815" y="682.5793103448275"/>
      <point x="205.05287356321838" y="682.5793103448275" type="curve"/>
      <point x="211.43218390804597" y="734.4655172413793"/>
      <point x="235.8114942528736" y="781.1241379310345"/>
      <point x="272.9126436781609" y="781.1241379310345" type="curve" smooth="yes"/>
      <point x="303.48275862068965" y="781.1241379310345"/>
      <point x="314.6471264367816" y="755.6183908045977"/>
      <point x="314.6471264367816" y="727.696551724138" type="curve" smooth="yes"/>
      <point x="314.6471264367816" y="669.9896551724137"/>
      <point x="289.3183908045977" y="622.2436781609194"/>
      <point x="210.35402298850576" y="556.1505747126437" type="curve" smooth="yes"/>
      <point x="71.16666666666667" y="440.94367816091955" type="line"/>
    </contour>
  </outline>
</glyph>
<glyph name="threesuperior" format="2">
  <advance width="371.3494252873563"/>
  <unicode hex="00B3"/>
  <outline>
    <contour>
      <point x="203.7206896551724" y="380.0" type="curve" smooth="yes"/>
      <point x="309.996551724138" y="380.0"/>
      <point x="388.697724137931" y="428.73333333333335"/>
      <point x="388.7" y="518.4551724137931" type="curve" smooth="yes"/>
      <point x="388.7" y="571.8494252873563"/>
      <point x="352.5057471264368" y="603.1390804597701"/>
      <point x="296.4114942528735" y="610.1390804597701" type="curve"/>
      <point x="297.27241379310345" y="614.6333333333333" type="line"/>
      <point x="366.23908045977015" y="630.3666666666667"/>
      <point x="416.92528735632186" y="663.7333333333333"/>
      <point x="416.92528735632186" y="734.4666666666667" type="curve" smooth="yes"/>
      <point x="416.92528735632186" y="783.7333333333333"/>
      <point x="376.97126436781616" y="824.0"/>
      <point x="290.07586206896553" y="824.0" type="curve" smooth="yes"/>
      <point x="199.067816091954" y="824.0"/>
      <point x="144.1264367816092" y="784.8735632183908"/>
      <point x="144.1264367816092" y="737.6459770114942" type="curve" smooth="yes"/>
      <point x="144.1264367816092" y="706.2402298850575"/>
      <point x="171.42298850574713" y="694.1241379310345"/>
      <point x="213.70919540229886" y="694.1241379310345" type="curve"/>
      <point x="221.3793103448276" y="739.8965517241379"/>
      <point x="240.19080459770115" y="780.5298850574712"/>
      <point x="283.97471264367823" y="780.5298850574712" type="curve" smooth="yes"/>
      <point x="309.9114942528736" y="780.5298850574712"/>
      <point x="322.94827586206895" y="761.6563218390804"/>
      <point x="322.94827586206895" y="734.4425287356322" type="curve" smooth="yes"/>
      <point x="322.94827586206895" y="668.9735632183908"/>
      <point x="274.25172413793103" y="630.0"/>
      <point x="220.80574712643678" y="630.0" type="curve" smooth="yes"/>
      <point x="189.6126436781609" y="630.0" type="line"/>
      <point x="181.38505747126436" y="585.8701149425287" type="line"/>
      <point x="212.04597701149424" y="585.8701149425287" type="line" smooth="yes"/>
      <point x="270.9241379310345" y="585.8701149425287"/>
      <point x="296.72413793103453" y="554.2494252873564"/>
      <point x="296.72413793103453" y="514.7333333333333" type="curve" smooth="yes"/>
      <point x="296.72413793103453" y="453.2425287356322"/>
      <point x="258.65977011494255" y="428.8896551724138"/>
      <point x="211.7344827586207" y="428.8896551724138" type="curve" smooth="yes"/>
      <point x="156.10919540229884" y="428.8896551724138"/>
      <point x="135.7022988505747" y="476.3712643678161"/>
      <point x="136.43563218390804" y="514.8896551724138" type="curve"/>
      <point x="99.92298850574713" y="514.8896551724138"/>
      <point x="71.76666666666667" y="494.7494252873563"/>
      <point x="71.76666666666667" y="458.6609195402299" type="curve" smooth="yes"/>
      <point x="71.76666666666667" y="410.8988505747127"/>
      <point x="116.96206896551723" y="380.0"/>
    </contour>
  </outline>
</glyph>
<glyph name="multiply" format="2">
  <advance width="509.8666666666667"/>
  <unicode hex="00D7"/>
  <outline>
    <contour>
      <point x="119.98850574712642" y="155.89080459770113" type="line"/>
      <point x="263.44827586206895" y="310.75632183908044" type="line"/>
      <point x="406.93448275862073" y="156.34597701149426" type="line"/>
      <point x="453.81149425287356" y="200.2896551724138" type="line"/>
      <point x="307.61954022988505" y="358.22758620689655" type="line"/>
      <point x="453.81149425287356" y="515.7988505747127" type="line"/>
      <point x="406.3137931034483" y="560.3758620689655" type="line"/>
      <point x="263.44827586206895" y="406.2310344827587" type="line"/>
      <point x="119.98850574712642" y="560.3367816091953" type="line"/>
      <point x="72.49080459770116" y="516.3931034482758" type="line"/>
      <point x="218.88390804597702" y="358.8609195402299" type="line"/>
      <point x="72.49080459770116" y="200.3287356321839" type="line"/>
    </contour>
  </outline>
</glyph>
<glyph name="divide" format="2">
  <advance width="509.8666666666667"/>
  <unicode hex="00F7"/>
  <outline>
    <contour>
      <point x="64.02643678160919" y="324.87011494252874" type="line"/>
      <point x="462.30229885057474" y="324.87011494252874" type="line"/>
      <point x="462.30229885057474" y="390.12988505747126" type="line"/>
      <point x="64.02643678160919" y="390.12988505747126" type="line"/>
    </contour>
    <contour>
      <point x="263.8034482758621" y="109.87011494252873" type="curve" smooth="yes"/>
      <point x="291.832183908046" y="109.87011494252873"/>
      <point x="314.97356321839084" y="125.11149425287356"/>
      <point x="314.97356321839084" y="168.0" type="curve" smooth="yes"/>
      <point x="314.97356321839084" y="211.88850574712643"/>
      <point x="291.832183908046" y="226.12988505747126"/>
      <point x="263.8034482758621" y="226.12988505747126" type="curve" smooth="yes"/>
      <point x="234.26896551724138" y="226.12988505747126"/>
      <point x="212.49425287356323" y="211.88850574712643"/>
      <point x="212.49425287356323" y="168.0" type="curve" smooth="yes"/>
      <point x="212.49425287356323" y="125.11149425287356"/>
      <point x="234.26896551724138" y="109.87011494252873"/>
    </contour>
    <contour>
      <point x="263.8034482758621" y="488.87011494252874" type="curve" smooth="yes"/>
      <point x="291.832183908046" y="488.87011494252874"/>
      <point x="314.97356321839084" y="504.11149425287357"/>
      <point x="314.97356321839084" y="547.0" type="curve" smooth="yes"/>
      <point x="314.97356321839084" y="590.8885057471264"/>
      <point x="291.832183908046" y="605.1298850574713"/>
      <point x="263.8034482758621" y="605.1298850574713" type="curve" smooth="yes"/>
      <point x="234.26896551724138" y="605.1298850574713"/>
      <point x="212.49425287356323" y="590.8885057471264"/>
      <point x="212.49425287356323" y="547.0" type="curve" smooth="yes"/>
      <point x="212.49425287356323" y="504.11149425287357"/>
      <point x="234.26896551724138" y="488.87011494252874"/>
    </contour>
  </outline>
</glyph>
<glyph name="udatta-deva" format="2">
  <unicode hex="0951"/>
  <anchor x="60.241379310344826" y="560.0413793103448" name="_vedic"/>
  <outline>
    <contour>
      <point x="106.33448275862068" y="925.46091954023" type="line"/>
      <point x="169.9712643678161" y="925.46091954023" type="line"/>
      <point x="212.37816091954022" y="1125.7574712643677" type="line"/>
      <point x="148.5758620689655" y="1125.7574712643677" type="line"/>
    </contour>
  </outline>
</glyph>
<glyph name="anudatta-deva" format="2">
  <unicode hex="0952"/>
  <anchor x="-59.0" y="0.0" name="_bottom"/>
  <outline>
    <contour>
      <point x="-373.4011494252874" y="-562.4068965517242" type="line"/>
      <point x="16.991954022988505" y="-562.4068965517242" type="line"/>
      <point x="33.64022988505747" y="-482.3310344827586" type="line"/>
      <point x="-356.7528735632184" y="-482.3310344827586" type="line"/>
    </contour>
  </outline>
</glyph>
<glyph name="danda-deva" format="2">
  <advance width="302.02298850574715"/>
  <unicode hex="0964"/>
  <outline>
    <contour>
      <point x="26.397701149425288" y="0.0" type="line"/>
      <point x="156.52298850574712" y="0.0" type="line"/>
      <point x="275.7643678160919" y="560.0413793103448" type="line"/>
      <point x="145.5" y="560.0413793103448" type="line"/>
    </contour>
  </outline>
</glyph>
<glyph name="dbldanda-deva" format="2">
  <advance width="549.7885057471265"/>
  <unicode hex="0965"/>
  <outline>
    <contour>
      <point x="274.55632183908045" y="0.0" type="line"/>
      <point x="404.28850574712646" y="0.0" type="line"/>
      <point x="523.5298850574712" y="560.0413793103448" type="line"/>
      <point x="393.2655172413793" y="560.0413793103448" type="line"/>
    </contour>
    <contour>
      <point x="26.397701149425288" y="0.0" type="line"/>
      <point x="156.52298850574712" y="0.0" type="line"/>
      <point x="275.7643678160919" y="560.0413793103448" type="line"/>
      <point x="145.5" y="560.0413793103448" type="line"/>
    </contour>
  </outline>
</glyph>
<glyph name="anusvara-tamil" format="2">
  <unicode hex="0B82"/>
  <note>
uni0B82
</note>
  <anchor x="60.241379310344826" y="560.0413793103448" name="_top"/>
  <outline>
    <contour>
      <point x="101.0022988505747" y="626.751724137931" type="curve" smooth="yes"/>
      <point x="173.37701149425288" y="626.751724137931"/>
      <point x="229.65172413793104" y="679.6597701149426"/>
      <point x="229.65172413793104" y="753.3528735632184" type="curve" smooth="yes"/>
      <point x="229.65172413793104" y="827.1471264367816"/>
      <point x="173.37701149425288" y="879.9666666666666"/>
      <point x="101.0022988505747" y="879.9666666666666" type="curve" smooth="yes"/>
      <point x="28.627586206896552" y="879.9666666666666"/>
      <point x="-27.647126436781612" y="827.1471264367816"/>
      <point x="-27.647126436781612" y="753.3528735632184" type="curve" smooth="yes"/>
      <point x="-27.647126436781612" y="679.6597701149426"/>
      <point x="28.627586206896552" y="626.751724137931"/>
    </contour>
    <contour>
      <point x="101.0022988505747" y="693.4344827586208" type="curve" smooth="yes"/>
      <point x="68.39310344827587" y="693.4344827586208"/>
      <point x="42.7816091954023" y="718.9574712643678"/>
      <point x="42.7816091954023" y="753.3528735632184" type="curve" smooth="yes"/>
      <point x="42.7816091954023" y="787.5954022988506"/>
      <point x="68.39310344827587" y="813.1183908045977"/>
      <point x="101.0022988505747" y="813.1183908045977" type="curve" smooth="yes"/>
      <point x="133.61149425287357" y="813.1183908045977"/>
      <point x="159.22298850574714" y="787.5954022988506"/>
      <point x="159.22298850574714" y="753.3528735632184" type="curve" smooth="yes"/>
      <point x="159.22298850574714" y="718.9574712643678"/>
      <point x="133.61149425287357" y="693.4344827586208"/>
    </contour>
  </outline>
</glyph>
<glyph name="visarga-tamil" format="2">
  <advance width="828.032183908046"/>
  <unicode hex="0B83"/>
  <note>
uni0B83
</note>
  <outline>
    <contour>
      <point x="158.64597701149424" y="-3.103448275862069" type="curve" smooth="yes"/>
      <point x="270.535632183908" y="-3.103448275862069"/>
      <point x="354.8827586206897" y="91.97586206896551"/>
      <point x="355.0218390804598" y="220.3310344827586" type="curve" smooth="yes"/>
      <point x="355.1609195402299" y="319.71724137931034"/>
      <point x="297.5448275862069" y="371.48275862068965"/>
      <point x="211.09425287356322" y="371.48275862068965" type="curve" smooth="yes"/>
      <point x="98.78620689655172" y="371.48275862068965"/>
      <point x="24.811494252873562" y="261.0"/>
      <point x="24.811494252873562" y="146.75632183908047" type="curve" smooth="yes"/>
      <point x="24.811494252873562" y="62.64022988505747"/>
      <point x="70.30804597701149" y="-3.103448275862069"/>
    </contour>
    <contour>
      <point x="149.8551724137931" y="54.06091954022988" type="curve" smooth="yes"/>
      <point x="102.73448275862069" y="54.06091954022988"/>
      <point x="82.02413793103449" y="95.06666666666666"/>
      <point x="82.02413793103449" y="151.13333333333333" type="curve" smooth="yes"/>
      <point x="82.02413793103449" y="230.16781609195402"/>
      <point x="125.3574712643678" y="315.2413793103448"/>
      <point x="193.04137931034484" y="315.2413793103448" type="curve" smooth="yes"/>
      <point x="237.5919540229885" y="315.2413793103448"/>
      <point x="261.5689655172414" y="286.2402298850575"/>
      <point x="261.5689655172414" y="226.4735632183908" type="curve" smooth="yes"/>
      <point x="261.5689655172414" y="131.96206896551726"/>
      <point x="217.58275862068967" y="54.06091954022988"/>
    </contour>
    <contour>
      <point x="567.1275862068966" y="-3.103448275862069" type="curve" smooth="yes"/>
      <point x="679.0172413793103" y="-3.103448275862069"/>
      <point x="763.364367816092" y="91.97586206896551"/>
      <point x="763.5034482758621" y="220.3310344827586" type="curve" smooth="yes"/>
      <point x="763.6425287356323" y="319.71724137931034"/>
      <point x="706.0264367816093" y="371.48275862068965"/>
      <point x="619.5758620689655" y="371.48275862068965" type="curve" smooth="yes"/>
      <point x="507.26781609195405" y="371.48275862068965"/>
      <point x="433.2931034482758" y="261.0"/>
      <point x="433.2931034482758" y="146.75632183908047" type="curve" smooth="yes"/>
      <point x="433.2931034482758" y="62.64022988505747"/>
      <point x="478.7896551724138" y="-3.103448275862069"/>
    </contour>
    <contour>
      <point x="558.3367816091954" y="54.06091954022988" type="curve" smooth="yes"/>
      <point x="511.21609195402306" y="54.06091954022988"/>
      <point x="490.5057471264368" y="95.06666666666666"/>
      <point x="490.5057471264368" y="151.13333333333333" type="curve" smooth="yes"/>
      <point x="490.5057471264368" y="230.16781609195402"/>
      <point x="533.8390804597701" y="315.2413793103448"/>
      <point x="601.5229885057472" y="315.2413793103448" type="curve" smooth="yes"/>
      <point x="646.0735632183909" y="315.2413793103448"/>
      <point x="670.0505747126437" y="286.2402298850575"/>
      <point x="670.0505747126437" y="226.4735632183908" type="curve" smooth="yes"/>
      <point x="670.0505747126437" y="131.96206896551726"/>
      <point x="626.064367816092" y="54.06091954022988"/>
    </contour>
    <contour>
      <point x="450.32068965517243" y="424.7241379310345" type="curve" smooth="yes"/>
      <point x="562.2103448275863" y="424.7241379310345"/>
      <point x="646.5574712643679" y="519.8034482758621"/>
      <point x="646.696551724138" y="648.1586206896552" type="curve" smooth="yes"/>
      <point x="646.8356321839082" y="747.5448275862069"/>
      <point x="589.2195402298852" y="799.3103448275863"/>
      <point x="502.7689655172413" y="799.3103448275863" type="curve" smooth="yes"/>
      <point x="390.4609195402299" y="799.3103448275863"/>
      <point x="316.4862068965517" y="688.8275862068966"/>
      <point x="316.4862068965517" y="574.5839080459771" type="curve" smooth="yes"/>
      <point x="316.4862068965517" y="490.4678160919541"/>
      <point x="361.98275862068965" y="424.7241379310345"/>
    </contour>
    <contour>
      <point x="441.5298850574713" y="481.88850574712643" type="curve" smooth="yes"/>
      <point x="394.40919540229885" y="481.88850574712643"/>
      <point x="373.69885057471265" y="522.8942528735633"/>
      <point x="373.69885057471265" y="578.96091954023" type="curve" smooth="yes"/>
      <point x="373.69885057471265" y="657.9954022988505"/>
      <point x="417.03218390804597" y="743.0689655172414"/>
      <point x="484.71609195402294" y="743.0689655172414" type="curve" smooth="yes"/>
      <point x="529.2666666666667" y="743.0689655172414"/>
      <point x="553.2436781609196" y="714.067816091954"/>
      <point x="553.2436781609196" y="654.3011494252873" type="curve" smooth="yes"/>
      <point x="553.2436781609196" y="559.7896551724137"/>
      <point x="509.2574712643678" y="481.88850574712643"/>
    </contour>
  </outline>
</glyph>
<glyph name="a-tamil" format="2">
  <advance width="1218.1367816091956"/>
  <unicode hex="0B85"/>
  <note>
uni0B85
</note>
  <anchor x="525.5413793103447" y="0.0" name="bottom"/>
  <anchor x="329.81724137931036" y="-137.49655172413793" name="nukta"/>
  <anchor x="641.6942528735633" y="560.0413793103448" name="top"/>
  <anchor x="642.4275862068966" y="560.0413793103448" name="vedic"/>
  <outline>
    <contour>
      <point x="903.4218390804597" y="-209.22413793103448" type="line"/>
      <point x="1031.8091954022989" y="-209.22413793103448" type="line"/>
      <point x="1195.219540229885" y="560.0413793103448" type="line"/>
      <point x="1067.0597701149425" y="560.0413793103448" type="line"/>
      <point x="983.603448275862" y="167.04827586206898" type="line"/>
      <point x="86.7551724137931" y="167.04827586206898" type="line" smooth="yes"/>
      <point x="23.339080459770113" y="167.04827586206898"/>
      <point x="-12.005747126436782" y="126.32068965517243"/>
      <point x="-12.005747126436782" y="69.03793103448274" type="curve" smooth="yes"/>
      <point x="-12.005747126436782" y="-29.573563218390806"/>
      <point x="119.06781609195403" y="-137.49655172413793"/>
      <point x="340.93333333333334" y="-137.49655172413793" type="curve" smooth="yes"/>
      <point x="642.0908045977011" y="-137.49655172413793"/>
      <point x="881.3057471264368" y="11.260919540229883"/>
      <point x="881.3057471264368" y="292.54712643678164" type="curve" smooth="yes"/>
      <point x="881.3057471264368" y="472.9827586206897"/>
      <point x="752.483908045977" y="565.0413793103448"/>
      <point x="595.0310344827586" y="565.0413793103448" type="curve" smooth="yes"/>
      <point x="455.64252873563214" y="565.0413793103448"/>
      <point x="346.11494252873564" y="482.5942528735632"/>
      <point x="346.11494252873564" y="361.451724137931" type="curve" smooth="yes"/>
      <point x="346.11494252873564" y="291.9770114942529"/>
      <point x="395.0344827586207" y="231.89655172413794"/>
      <point x="483.02413793103443" y="231.89655172413794" type="curve" smooth="yes"/>
      <point x="579.2137931034483" y="231.89655172413794"/>
      <point x="645.2080459770116" y="289.5712643678161"/>
      <point x="645.2080459770116" y="381.8356321839081" type="curve" smooth="yes"/>
      <point x="645.2080459770116" y="448.919540229885"/>
      <point x="603.4160919540229" y="502.41034482758624"/>
      <point x="544.2413793103449" y="519.9839080459769" type="curve"/>
      <point x="488.90689655172406" y="516.2988505747127" type="line"/>
      <point x="526.2379310344828" y="497.17356321839077"/>
      <point x="552.2252873563219" y="451.99885057471266"/>
      <point x="552.2252873563219" y="402.8275862068965" type="curve" smooth="yes"/>
      <point x="552.2252873563219" y="344.0597701149426"/>
      <point x="522.0850574712645" y="301.88965517241377"/>
      <point x="469.01954022988514" y="301.88965517241377" type="curve" smooth="yes"/>
      <point x="436.26091954022985" y="301.88965517241377"/>
      <point x="410.0264367816092" y="327.1597701149425"/>
      <point x="410.0264367816092" y="366.55517241379306" type="curve" smooth="yes"/>
      <point x="410.0264367816092" y="448.50574712643675"/>
      <point x="483.1436781609196" y="506.07586206896553"/>
      <point x="579.2459770114942" y="506.07586206896553" type="curve" smooth="yes"/>
      <point x="680.0333333333333" y="506.07586206896553"/>
      <point x="756.9333333333333" y="436.3919540229885"/>
      <point x="756.9333333333333" y="309.0206896551724" type="curve" smooth="yes"/>
      <point x="756.9333333333333" y="68.5758620689655"/>
      <point x="581.0724137931035" y="-78.53103448275863"/>
      <point x="338.86551724137934" y="-78.53103448275863" type="curve" smooth="yes"/>
      <point x="160.93793103448274" y="-78.53103448275863"/>
      <point x="51.27816091954023" y="3.5632183908045967"/>
      <point x="51.27816091954023" y="70.73563218390805" type="curve" smooth="yes"/>
      <point x="51.27816091954023" y="94.99080459770116"/>
      <point x="60.77126436781609" y="108.70344827586207"/>
      <point x="89.00574712643677" y="108.70344827586207" type="curve" smooth="yes"/>
      <point x="971.3620689655173" y="108.70344827586207" type="line"/>
    </contour>
  </outline>
</glyph>
<glyph name="aa-tamil" format="2">
  <advance width="1404.683908045977"/>
  <unicode hex="0B86"/>
  <note>
uni0B86
</note>
  <anchor x="633.0632183908046" y="0.0" name="bottom"/>
  <anchor x="325.9862068965517" y="-137.49655172413793" name="nukta"/>
  <anchor x="755.3091954022989" y="560.0413793103448" name="top"/>
  <anchor x="755.8287356321839" y="560.0413793103448" name="vedic"/>
  <outline>
    <contour>
      <point x="816.367816091954" y="-436.98850574712645" type="curve" smooth="yes"/>
      <point x="1067.9712643678163" y="-436.98850574712645"/>
      <point x="1308.0218390804598" y="-286.0609195402299"/>
      <point x="1308.0218390804598" y="-61.229885057471265" type="curve" smooth="yes"/>
      <point x="1308.0218390804598" y="26.21379310344828"/>
      <point x="1259.4183908045977" y="68.9793103448276"/>
      <point x="1193.5206896551724" y="68.9793103448276" type="curve" smooth="yes"/>
      <point x="1121.4701149425289" y="68.9793103448276"/>
      <point x="1059.5885057471264" y="11.839080459770114"/>
      <point x="1028.0229885057472" y="-96.24597701149426" type="curve"/>
      <point x="1051.5471264367816" y="-104.81379310344828" type="line"/>
      <point x="1063.4344827586206" y="-48.97241379310344"/>
      <point x="1096.4689655172415" y="-27.111494252873566"/>
      <point x="1128.1655172413793" y="-27.111494252873566" type="curve" smooth="yes"/>
      <point x="1161.0310344827585" y="-27.111494252873566"/>
      <point x="1182.0850574712645" y="-47.785057471264366"/>
      <point x="1182.0850574712645" y="-88.35977011494252" type="curve" smooth="yes"/>
      <point x="1182.0850574712645" y="-247.02183908045976"/>
      <point x="1002.322988505747" y="-378.8712643678161"/>
      <point x="817.177011494253" y="-378.8712643678161" type="curve" smooth="yes"/>
      <point x="721.635632183908" y="-378.8712643678161"/>
      <point x="661.5459770114942" y="-347.13448275862066"/>
      <point x="661.5459770114942" y="-284.7057471264368" type="curve" smooth="yes"/>
      <point x="661.5459770114942" y="-231.9528735632184"/>
      <point x="709.9597701149427" y="-202.35402298850576"/>
      <point x="779.4597701149427" y="-188.3551724137931" type="curve"/>
      <point x="769.8793103448276" y="-132.65402298850577" type="line"/>
      <point x="670.1471264367816" y="-154.00689655172414"/>
      <point x="601.2137931034482" y="-204.04252873563217"/>
      <point x="601.2137931034482" y="-292.6183908045977" type="curve" smooth="yes"/>
      <point x="601.2137931034482" y="-380.51724137931035"/>
      <point x="684.7586206896551" y="-436.98850574712645"/>
    </contour>
    <component base="a-tamil"/>
  </outline>
</glyph>
<glyph name="i-tamil" format="2">
  <advance width="948.53908045977"/>
  <unicode hex="0B87"/>
  <note>
uni0B87
</note>
  <anchor x="394.7609195402299" y="0.0" name="bottom"/>
  <anchor x="336.38965517241377" y="-272.919540229885" name="nukta"/>
  <anchor x="541.5758620689654" y="840.8735632183908" name="top"/>
  <anchor x="504.80344827586214" y="560.0413793103448" name="vedic"/>
  <outline>
    <contour>
      <point x="108.58735632183908" y="-311.8758620689655" type="curve" smooth="yes"/>
      <point x="425.57241379310346" y="-311.8758620689655"/>
      <point x="733.6183908045978" y="5.429885057471261"/>
      <point x="733.6183908045978" y="322.1977011494253" type="curve" smooth="yes"/>
      <point x="733.6183908045978" y="484.2482758620689"/>
      <point x="631.6540229885057" y="565.0413793103448"/>
      <point x="487.41954022988506" y="565.0413793103448" type="curve" smooth="yes"/>
      <point x="357.7310344827586" y="565.0413793103448"/>
      <point x="249.3241379310345" y="480.3666666666666"/>
      <point x="249.3241379310345" y="359.5471264367816" type="curve" smooth="yes"/>
      <point x="249.3241379310345" y="289.81264367816095"/>
      <point x="299.95977011494256" y="236.20689655172413"/>
      <point x="377.3919540229885" y="236.20689655172413" type="curve" smooth="yes"/>
      <point x="469.0114942528736" y="236.20689655172413"/>
      <point x="538.0321839080459" y="292.4080459770115"/>
      <point x="538.0321839080459" y="384.867816091954" type="curve" smooth="yes"/>
      <point x="538.0321839080459" y="448.69770114942526"/>
      <point x="498.29540229885055" y="506.2344827586207"/>
      <point x="430.78390804597694" y="523.6620689655173" type="curve"/>
      <point x="383.7528735632184" y="517.8390804597701" type="line"/>
      <point x="420.5310344827587" y="496.1264367816092"/>
      <point x="445.08620689655174" y="454.5080459770115"/>
      <point x="445.08620689655174" y="405.1620689655172" type="curve" smooth="yes"/>
      <point x="445.08620689655174" y="351.16436781609195"/>
      <point x="417.9459770114943" y="305.13563218390806"/>
      <point x="364.59080459770115" y="305.13563218390806" type="curve" smooth="yes"/>
      <point x="331.4597701149425" y="305.13563218390806"/>
      <point x="310.1655172413793" y="330.09655172413795"/>
      <point x="310.1655172413793" y="367.46321839080457" type="curve" smooth="yes"/>
      <point x="310.1655172413793" y="446.88275862068963"/>
      <point x="379.748275862069" y="506.4689655172414"/>
      <point x="470.4689655172414" y="506.4689655172414" type="curve" smooth="yes"/>
      <point x="562.1264367816092" y="506.4689655172414"/>
      <point x="610.5034482758622" y="441.0781609195402"/>
      <point x="610.5034482758622" y="334.4954022988506" type="curve" smooth="yes"/>
      <point x="610.5034482758622" y="48.65172413793103"/>
      <point x="384.2551724137931" y="-252.68275862068967"/>
      <point x="120.28505747126438" y="-252.68275862068967" type="curve" smooth="yes"/>
      <point x="55.78390804597701" y="-252.68275862068967"/>
      <point x="13.913793103448276" y="-223.34252873563221"/>
      <point x="13.913793103448276" y="-164.05632183908045" type="curve" smooth="yes"/>
      <point x="13.913793103448276" y="-28.48620689655172"/>
      <point x="206.91149425287358" y="50.8551724137931"/>
      <point x="385.2402298850575" y="50.8551724137931" type="curve" smooth="yes"/>
      <point x="545.4540229885058" y="50.8551724137931"/>
      <point x="713.9022988505747" y="-16.822988505747123"/>
      <point x="713.9022988505747" y="-135.97241379310344" type="curve" smooth="yes"/>
      <point x="713.9022988505747" y="-219.02758620689656"/>
      <point x="655.387356321839" y="-252.68275862068967"/>
      <point x="567.6183908045977" y="-252.68275862068967" type="curve" smooth="yes"/>
      <point x="348.0057471264368" y="-252.68275862068967"/>
      <point x="132.55057471264368" y="12.377011494252873"/>
      <point x="132.55057471264368" y="288.81839080459775" type="curve" smooth="yes"/>
      <point x="132.55057471264368" y="543.2758620689655"/>
      <point x="270.0413793103448" y="732.5160919540231"/>
      <point x="528.0931034482759" y="732.5160919540231" type="curve" smooth="yes"/>
      <point x="761.3264367816092" y="732.5160919540231"/>
      <point x="893.9103448275863" y="578.1436781609194"/>
      <point x="838.016091954023" y="320.7528735632184" type="curve" smooth="yes"/>
      <point x="789.1793103448276" y="95.12413793103448" type="line"/>
      <point x="851.8448275862069" y="95.12413793103448" type="line"/>
      <point x="902.0620689655173" y="326.42873563218393" type="line" smooth="yes"/>
      <point x="970.5770114942529" y="640.5931034482759"/>
      <point x="825.7172413793104" y="840.8735632183908"/>
      <point x="541.5758620689654" y="840.8735632183908" type="curve" smooth="yes"/>
      <point x="238.71724137931034" y="840.8735632183908"/>
      <point x="70.22183908045977" y="606.4655172413793"/>
      <point x="70.22183908045977" y="301.63563218390806" type="curve" smooth="yes"/>
      <point x="70.22183908045977" y="-21.74137931034483"/>
      <point x="306.42528735632186" y="-311.48275862068965"/>
      <point x="580.0390804597702" y="-311.48275862068965" type="curve" smooth="yes"/>
      <point x="693.9712643678162" y="-311.48275862068965"/>
      <point x="780.9413793103449" y="-254.73563218390802"/>
      <point x="780.9413793103449" y="-136.06896551724137" type="curve" smooth="yes"/>
      <point x="780.9413793103449" y="23.433333333333337"/>
      <point x="591.8632183908046" y="108.13793103448276"/>
      <point x="391.6620689655172" y="108.13793103448276" type="curve" smooth="yes"/>
      <point x="167.84367816091952" y="108.13793103448276"/>
      <point x="-54.69655172413793" y="6.356321839080461"/>
      <point x="-54.69655172413793" y="-175.42758620689656" type="curve" smooth="yes"/>
      <point x="-54.69655172413793" y="-260.4459770114943"/>
      <point x="9.413793103448278" y="-311.8758620689655"/>
    </contour>
  </outline>
</glyph>
<glyph name="ii-tamil" format="2">
  <advance width="764.3241379310346"/>
  <unicode hex="0B88"/>
  <note>
uni0B88
</note>
  <anchor x="333.51839080459774" y="0.0" name="bottom"/>
  <anchor x="333.6574712643678" y="0.0" name="nukta"/>
  <anchor x="454.4551724137931" y="560.0413793103448" name="top"/>
  <anchor x="454.98735632183906" y="560.0413793103448" name="vedic"/>
  <outline>
    <contour>
      <point x="23.449425287356323" y="0.0" type="line"/>
      <point x="87.06321839080461" y="0.0" type="line"/>
      <point x="193.683908045977" y="501.92413793103447" type="line"/>
      <point x="443.9505747126437" y="501.92413793103447" type="line"/>
      <point x="337.0896551724138" y="0.0" type="line"/>
      <point x="466.09770114942523" y="0.0" type="line"/>
      <point x="572.7183908045977" y="501.92413793103447" type="line"/>
      <point x="765.0689655172414" y="501.92413793103447" type="line"/>
      <point x="777.2965517241379" y="560.0413793103448" type="line"/>
      <point x="142.55172413793102" y="560.0413793103448" type="line"/>
    </contour>
    <contour>
      <point x="267.14022988505747" y="200.74137931034483" type="curve" smooth="yes"/>
      <point x="304.2011494252874" y="200.74137931034483"/>
      <point x="334.29770114942534" y="230.8632183908046"/>
      <point x="334.29770114942534" y="266.151724137931" type="curve" smooth="yes"/>
      <point x="334.29770114942534" y="300.81954022988504"/>
      <point x="304.2011494252874" y="330.61264367816096"/>
      <point x="267.14022988505747" y="330.61264367816096" type="curve" smooth="yes"/>
      <point x="230.0793103448276" y="330.61264367816096"/>
      <point x="200.21034482758623" y="300.81954022988504"/>
      <point x="200.21034482758623" y="266.151724137931" type="curve" smooth="yes"/>
      <point x="200.21034482758623" y="230.8632183908046"/>
      <point x="230.0793103448276" y="200.74137931034483"/>
    </contour>
    <contour>
      <point x="645.6804597701149" y="200.74137931034483" type="curve" smooth="yes"/>
      <point x="682.7413793103448" y="200.74137931034483"/>
      <point x="712.8379310344827" y="230.8632183908046"/>
      <point x="712.8379310344827" y="266.151724137931" type="curve" smooth="yes"/>
      <point x="712.8379310344827" y="300.81954022988504"/>
      <point x="682.7413793103448" y="330.61264367816096"/>
      <point x="645.6804597701149" y="330.61264367816096" type="curve" smooth="yes"/>
      <point x="608.619540229885" y="330.61264367816096"/>
      <point x="578.7505747126436" y="300.81954022988504"/>
      <point x="578.7505747126436" y="266.151724137931" type="curve" smooth="yes"/>
      <point x="578.7505747126436" y="230.8632183908046"/>
      <point x="608.619540229885" y="200.74137931034483"/>
    </contour>
  </outline>
</glyph>
<glyph name="u-tamil" format="2">
  <advance width="904.4367816091955"/>
  <unicode hex="0B89"/>
  <note>
uni0B89
</note>
  <anchor x="408.9804597701149" y="0.0" name="bottom"/>
  <anchor x="409.11954022988505" y="0.0" name="nukta"/>
  <anchor x="531.3482758620689" y="560.0413793103448" name="top"/>
  <anchor x="530.828735632184" y="560.0413793103448" name="vedic"/>
  <outline>
    <contour>
      <point x="85.12758620689655" y="0.0" type="curve" smooth="yes"/>
      <point x="829.7988505747126" y="0.0" type="line"/>
      <point x="842.2804597701149" y="58.3448275862069" type="line"/>
      <point x="92.73908045977012" y="58.3448275862069" type="line" smooth="yes"/>
      <point x="74.32298850574712" y="58.3448275862069"/>
      <point x="57.309195402298855" y="69.78620689655172"/>
      <point x="57.309195402298855" y="92.30344827586207" type="curve" smooth="yes"/>
      <point x="57.309195402298855" y="117.74137931034483"/>
      <point x="77.1919540229885" y="132.18620689655174"/>
      <point x="100.80114942528735" y="132.18620689655174" type="curve" smooth="yes"/>
      <point x="332.22758620689655" y="132.18620689655174" type="line" smooth="yes"/>
      <point x="505.33563218390805" y="132.18620689655174"/>
      <point x="639.9241379310344" y="209.22873563218394"/>
      <point x="639.9241379310344" y="367.75747126436784" type="curve" smooth="yes"/>
      <point x="639.9241379310344" y="499.8091954022989"/>
      <point x="528.0735632183909" y="565.0413793103448"/>
      <point x="389.51264367816094" y="565.0413793103448" type="curve" smooth="yes"/>
      <point x="244.2758620689655" y="565.0413793103448"/>
      <point x="133.47471264367815" y="477.57126436781607"/>
      <point x="133.47471264367815" y="366.1655172413793" type="curve" smooth="yes"/>
      <point x="133.47471264367815" y="299.9850574712644"/>
      <point x="177.67241379310346" y="241.99310344827586"/>
      <point x="262.08965517241376" y="241.99310344827586" type="curve" smooth="yes"/>
      <point x="362.46781609195403" y="241.99310344827586"/>
      <point x="424.1586206896552" y="304.6344827586207"/>
      <point x="424.1586206896552" y="388.232183908046" type="curve" smooth="yes"/>
      <point x="424.1586206896552" y="448.9551724137931"/>
      <point x="383.7701149425287" y="504.32873563218385"/>
      <point x="326.8505747126437" y="520.2620689655172" type="curve"/>
      <point x="274.9402298850575" y="516.248275862069" type="line"/>
      <point x="312.0597701149425" y="491.9206896551724"/>
      <point x="333.8390804597701" y="450.1770114942529"/>
      <point x="333.8390804597701" y="404.95862068965516" type="curve" smooth="yes"/>
      <point x="333.8390804597701" y="347.06206896551726"/>
      <point x="303.4022988505747" y="307.14482758620693"/>
      <point x="253.83563218390805" y="307.14482758620693" type="curve" smooth="yes"/>
      <point x="216.61954022988508" y="307.14482758620693"/>
      <point x="197.52528735632185" y="338.22298850574714"/>
      <point x="197.52528735632185" y="373.38850574712643" type="curve" smooth="yes"/>
      <point x="197.52528735632185" y="439.0931034482759"/>
      <point x="257.6310344827586" y="506.5310344827586"/>
      <point x="372.2080459770115" y="506.5310344827586" type="curve" smooth="yes"/>
      <point x="455.3034482758621" y="506.5310344827586"/>
      <point x="514.8000000000001" y="464.60459770114943"/>
      <point x="514.8000000000001" y="372.8873563218391" type="curve" smooth="yes"/>
      <point x="514.8000000000001" y="259.7712643678161"/>
      <point x="439.7344827586207" y="188.68275862068967"/>
      <point x="324.1183908045977" y="188.68275862068967" type="curve" smooth="yes"/>
      <point x="110.74252873563219" y="188.68275862068967" type="line" smooth="yes"/>
      <point x="41.41954022988506" y="188.68275862068967"/>
      <point x="-3.2022988505747123" y="147.86091954022987"/>
      <point x="-3.2022988505747123" y="86.6712643678161" type="curve" smooth="yes"/>
      <point x="-3.2022988505747123" y="38.13908045977012"/>
      <point x="30.000000000000004" y="0.0"/>
    </contour>
  </outline>
</glyph>
<glyph name="uu-tamil" format="2">
  <advance width="1597.296551724138"/>
  <unicode hex="0B8A"/>
  <note>
uni0B8A
</note>
  <anchor x="762.4540229885057" y="0.0" name="bottom"/>
  <anchor x="762.6942528735632" y="0.0" name="nukta"/>
  <anchor x="883.8597701149425" y="560.0413793103448" name="top"/>
  <anchor x="884.3022988505747" y="560.0413793103448" name="vedic"/>
  <outline>
    <contour>
      <point x="85.12758620689655" y="0.0" type="curve" smooth="yes"/>
      <point x="1497.251724137931" y="0.0" type="line"/>
      <point x="1509.7333333333333" y="58.3448275862069" type="line"/>
      <point x="92.73908045977012" y="58.3448275862069" type="line" smooth="yes"/>
      <point x="74.32298850574712" y="58.3448275862069"/>
      <point x="57.309195402298855" y="69.78620689655172"/>
      <point x="57.309195402298855" y="92.30344827586207" type="curve" smooth="yes"/>
      <point x="57.309195402298855" y="117.74137931034483"/>
      <point x="77.1919540229885" y="132.18620689655174"/>
      <point x="100.80114942528735" y="132.18620689655174" type="curve" smooth="yes"/>
      <point x="332.22758620689655" y="132.18620689655174" type="line" smooth="yes"/>
      <point x="505.33563218390805" y="132.18620689655174"/>
      <point x="639.9241379310344" y="209.22873563218394"/>
      <point x="639.9241379310344" y="367.75747126436784" type="curve" smooth="yes"/>
      <point x="639.9241379310344" y="499.8091954022989"/>
      <point x="528.0735632183909" y="565.0413793103448"/>
      <point x="389.51264367816094" y="565.0413793103448" type="curve" smooth="yes"/>
      <point x="244.2758620689655" y="565.0413793103448"/>
      <point x="133.47471264367815" y="477.57126436781607"/>
      <point x="133.47471264367815" y="366.1655172413793" type="curve" smooth="yes"/>
      <point x="133.47471264367815" y="299.9850574712644"/>
      <point x="177.67241379310346" y="241.99310344827586"/>
      <point x="262.08965517241376" y="241.99310344827586" type="curve" smooth="yes"/>
      <point x="362.46781609195403" y="241.99310344827586"/>
      <point x="424.1586206896552" y="304.6344827586207"/>
      <point x="424.1586206896552" y="388.232183908046" type="curve" smooth="yes"/>
      <point x="424.1586206896552" y="448.9551724137931"/>
      <point x="383.7701149425287" y="504.32873563218385"/>
      <point x="326.8505747126437" y="520.2620689655172" type="curve"/>
      <point x="274.9402298850575" y="516.248275862069" type="line"/>
      <point x="312.0597701149425" y="491.9206896551724"/>
      <point x="333.8390804597701" y="450.1770114942529"/>
      <point x="333.8390804597701" y="404.95862068965516" type="curve" smooth="yes"/>
      <point x="333.8390804597701" y="347.06206896551726"/>
      <point x="303.4022988505747" y="307.14482758620693"/>
      <point x="253.83563218390805" y="307.14482758620693" type="curve" smooth="yes"/>
      <point x="216.61954022988508" y="307.14482758620693"/>
      <point x="197.52528735632185" y="338.22298850574714"/>
      <point x="197.52528735632185" y="373.38850574712643" type="curve" smooth="yes"/>
      <point x="197.52528735632185" y="439.0931034482759"/>
      <point x="257.6310344827586" y="506.5310344827586"/>
      <point x="372.2080459770115" y="506.5310344827586" type="curve" smooth="yes"/>
      <point x="455.3034482758621" y="506.5310344827586"/>
      <point x="514.8000000000001" y="464.60459770114943"/>
      <point x="514.8000000000001" y="372.8873563218391" type="curve" smooth="yes"/>
      <point x="514.8000000000001" y="259.7712643678161"/>
      <point x="439.7344827586207" y="188.68275862068967"/>
      <point x="324.1183908045977" y="188.68275862068967" type="curve" smooth="yes"/>
      <point x="110.74252873563219" y="188.68275862068967" type="line" smooth="yes"/>
      <point x="41.41954022988506" y="188.68275862068967"/>
      <point x="-3.2022988505747123" y="147.86091954022987"/>
      <point x="-3.2022988505747123" y="86.6712643678161" type="curve" smooth="yes"/>
      <point x="-3.2022988505747123" y="38.13908045977012"/>
      <point x="30.000000000000004" y="0.0"/>
    </contour>
    <contour>
      <point x="859.2586206896551" y="113.53103448275863" type="curve" smooth="yes"/>
      <point x="958.519540229885" y="113.53103448275863"/>
      <point x="1028.86091954023" y="176.1425287356322"/>
      <point x="1028.86091954023" y="273.1620689655173" type="curve" smooth="yes"/>
      <point x="1028.86091954023" y="349.7701149425288"/>
      <point x="976.3735632183908" y="392.2137931034483"/>
      <point x="908.1390804597702" y="392.2137931034483" type="curve" smooth="yes"/>
      <point x="823.0954022988506" y="392.2137931034483"/>
      <point x="766.2827586206896" y="326.2241379310345"/>
      <point x="738.1919540229885" y="238.1206896551724" type="curve"/>
      <point x="760.4321839080461" y="210.7528735632184" type="line"/>
      <point x="781.7517241379311" y="275.9551724137931"/>
      <point x="818.9471264367816" y="329.0896551724138"/>
      <point x="870.8816091954023" y="329.0896551724138" type="curve" smooth="yes"/>
      <point x="909.209195402299" y="329.0896551724138"/>
      <point x="931.2896551724139" y="302.17011494252876"/>
      <point x="931.2896551724139" y="261.7758620689655" type="curve" smooth="yes"/>
      <point x="931.2896551724139" y="210.63908045977013"/>
      <point x="898.4000000000001" y="172.5103448275862"/>
      <point x="845.3367816091953" y="172.5103448275862" type="curve" smooth="yes"/>
      <point x="793.7724137931035" y="172.5103448275862"/>
      <point x="758.2425287356323" y="217.56206896551726"/>
      <point x="758.2425287356323" y="286.46436781609196" type="curve" smooth="yes"/>
      <point x="758.2425287356323" y="413.6873563218391"/>
      <point x="838.2287356321839" y="506.92413793103447"/>
      <point x="959.7505747126436" y="506.92413793103447" type="curve" smooth="yes"/>
      <point x="1066.4609195402297" y="506.92413793103447"/>
      <point x="1133.0471264367818" y="433.38965517241377"/>
      <point x="1109.6057471264367" y="314.616091954023" type="curve"/>
      <point x="1164.5689655172414" y="314.616091954023" type="line"/>
      <point x="1192.2620689655173" y="467.05057471264365"/>
      <point x="1106.5724137931036" y="565.0413793103448"/>
      <point x="963.0724137931035" y="565.0413793103448" type="curve" smooth="yes"/>
      <point x="810.9885057471264" y="565.0413793103448"/>
      <point x="697.4632183908045" y="445.7919540229885"/>
      <point x="697.4632183908045" y="285.52988505747123" type="curve" smooth="yes"/>
      <point x="697.4632183908045" y="189.60919540229887"/>
      <point x="760.480459770115" y="113.53103448275863"/>
    </contour>
    <contour>
      <point x="1067.1379310344828" y="116.12413793103448" type="line"/>
      <point x="1180.474712643678" y="116.12413793103448" type="line"/>
      <point x="1262.9287356321838" y="503.5931034482759" type="line"/>
      <point x="1403.283908045977" y="503.5931034482759" type="line"/>
      <point x="1321.083908045977" y="116.12413793103448" type="line"/>
      <point x="1434.219540229885" y="116.12413793103448" type="line"/>
      <point x="1516.6471264367817" y="503.5931034482759" type="line"/>
      <point x="1603.8850574712644" y="503.5931034482759" type="line"/>
      <point x="1615.8988505747127" y="560.0413793103448" type="line"/>
      <point x="1182.7827586206895" y="560.0413793103448" type="line"/>
      <point x="1144.4999999999998" y="376.6206896551724" type="line"/>
      <point x="1122.0068965517241" y="374.4206896551724" type="line"/>
    </contour>
  </outline>
</glyph>
<glyph name="e-tamil" format="2">
  <advance width="868.2436781609196"/>
  <unicode hex="0B8E"/>
  <note>
uni0B8E
</note>
  <anchor x="403.82758620689657" y="0.0" name="bottom"/>
  <anchor x="404.59999999999997" y="0.0" name="nukta"/>
  <anchor x="524.8022988505747" y="560.0413793103448" name="top"/>
  <anchor x="525.6758620689656" y="560.0413793103448" name="vedic"/>
  <outline>
    <contour>
      <point x="231.84482758620686" y="-5.0" type="curve" smooth="yes"/>
      <point x="334.8540229885058" y="-5.0"/>
      <point x="420.86436781609194" y="62.5919540229885"/>
      <point x="420.86436781609194" y="178.1816091954023" type="curve" smooth="yes"/>
      <point x="420.86436781609194" y="261.1379310344828"/>
      <point x="363.14482758620693" y="315.41379310344826"/>
      <point x="283.55747126436785" y="315.41379310344826" type="curve" smooth="yes"/>
      <point x="189.39425287356323" y="315.41379310344826"/>
      <point x="121.32183908045978" y="243.64367816091954"/>
      <point x="85.74367816091953" y="125.15517241379311" type="curve"/>
      <point x="116.72643678160921" y="100.93333333333332" type="line"/>
      <point x="140.95632183908046" y="190.77586206896552"/>
      <point x="185.9287356321839" y="238.91724137931033"/>
      <point x="238.11954022988508" y="238.91724137931033" type="curve" smooth="yes"/>
      <point x="284.5586206896552" y="238.91724137931033"/>
      <point x="305.632183908046" y="203.3287356321839"/>
      <point x="305.632183908046" y="161.18275862068964" type="curve" smooth="yes"/>
      <point x="305.632183908046" y="105.35172413793104"/>
      <point x="275.1413793103448" y="56.90344827586207"/>
      <point x="212.98850574712642" y="56.90344827586207" type="curve" smooth="yes"/>
      <point x="146.5183908045977" y="56.90344827586207"/>
      <point x="103.12988505747127" y="124.86781609195403"/>
      <point x="103.12988505747127" y="213.66091954022988" type="curve" smooth="yes"/>
      <point x="103.12988505747127" y="379.0390804597701"/>
      <point x="212.0919540229885" y="501.92413793103447"/>
      <point x="408.98850574712645" y="501.92413793103447" type="curve" smooth="yes"/>
      <point x="631.1367816091955" y="501.92413793103447" type="line"/>
      <point x="524.5160919540231" y="0.0" type="line"/>
      <point x="653.2965517241379" y="0.0" type="line"/>
      <point x="759.5241379310345" y="501.92413793103447" type="line"/>
      <point x="897.7011494252873" y="501.92413793103447" type="line"/>
      <point x="909.9425287356321" y="560.0413793103448" type="line"/>
      <point x="411.37011494252874" y="560.0413793103448" type="line" smooth="yes"/>
      <point x="181.48390804597702" y="560.0413793103448"/>
      <point x="43.393103448275866" y="408.0149425287356"/>
      <point x="43.393103448275866" y="209.38275862068966" type="curve" smooth="yes"/>
      <point x="43.393103448275866" y="88.15632183908048"/>
      <point x="114.90574712643678" y="-5.0"/>
    </contour>
  </outline>
</glyph>
<glyph name="ee-tamil" format="2">
  <advance width="868.2310344827587"/>
  <unicode hex="0B8F"/>
  <note>
uni0B8F
</note>
  <anchor x="405.0540229885057" y="0.0" name="bottom"/>
  <anchor x="364.75632183908044" y="-193.75172413793103" name="nukta"/>
  <anchor x="527.0413793103448" y="560.0413793103448" name="top"/>
  <anchor x="526.9022988505747" y="560.0413793103448" name="vedic"/>
  <outline>
    <contour>
      <point x="330.7264367816092" y="-246.16551724137935" type="line"/>
      <point x="659.5" y="28.58505747126437" type="line"/>
      <point x="760.1448275862069" y="501.92413793103447" type="line"/>
      <point x="897.6885057471264" y="501.92413793103447" type="line"/>
      <point x="910.1701149425287" y="560.0413793103448" type="line"/>
      <point x="411.37011494252874" y="560.0413793103448" type="line" smooth="yes"/>
      <point x="181.48390804597702" y="560.0413793103448"/>
      <point x="43.393103448275866" y="408.0149425287356"/>
      <point x="43.393103448275866" y="209.38275862068966" type="curve" smooth="yes"/>
      <point x="43.393103448275866" y="88.15632183908048"/>
      <point x="114.90574712643678" y="-5.0"/>
      <point x="231.84482758620686" y="-5.0" type="curve" smooth="yes"/>
      <point x="334.8540229885058" y="-5.0"/>
      <point x="420.86436781609194" y="62.5919540229885"/>
      <point x="420.86436781609194" y="178.1816091954023" type="curve" smooth="yes"/>
      <point x="420.86436781609194" y="261.1379310344828"/>
      <point x="363.14482758620693" y="315.41379310344826"/>
      <point x="283.55747126436785" y="315.41379310344826" type="curve" smooth="yes"/>
      <point x="189.39425287356323" y="315.41379310344826"/>
      <point x="121.32183908045978" y="243.64367816091954"/>
      <point x="85.74367816091953" y="125.15517241379311" type="curve"/>
      <point x="116.72643678160921" y="100.93333333333332" type="line"/>
      <point x="140.95632183908046" y="190.77586206896552"/>
      <point x="185.9287356321839" y="238.91724137931033"/>
      <point x="238.11954022988508" y="238.91724137931033" type="curve" smooth="yes"/>
      <point x="284.5586206896552" y="238.91724137931033"/>
      <point x="305.632183908046" y="203.3287356321839"/>
      <point x="305.632183908046" y="161.18275862068964" type="curve" smooth="yes"/>
      <point x="305.632183908046" y="105.35172413793104"/>
      <point x="275.1413793103448" y="56.90344827586207"/>
      <point x="212.98850574712642" y="56.90344827586207" type="curve" smooth="yes"/>
      <point x="146.5183908045977" y="56.90344827586207"/>
      <point x="103.12988505747127" y="124.86781609195403"/>
      <point x="103.12988505747127" y="213.66091954022988" type="curve" smooth="yes"/>
      <point x="103.12988505747127" y="379.0390804597701"/>
      <point x="212.0919540229885" y="501.92413793103447"/>
      <point x="408.98850574712645" y="501.92413793103447" type="curve" smooth="yes"/>
      <point x="631.364367816092" y="501.92413793103447" type="line"/>
      <point x="524.2873563218392" y="-5.537931034482759" type="line"/>
      <point x="292.7781609195402" y="-199.42413793103447" type="line"/>
    </contour>
  </outline>
</glyph>
<glyph name="ai-tamil" format="2">
  <advance width="941.9218390804597"/>
  <unicode hex="0B90"/>
  <note>
uni0B90
</note>
  <anchor x="411.6275862068966" y="0.0" name="bottom"/>
  <anchor x="342.1850574712644" y="-311.10344827586204" name="nukta"/>
  <anchor x="543.9344827586208" y="560.0413793103448" name="top"/>
  <anchor x="542.7977011494253" y="560.0413793103448" name="vedic"/>
  <outline>
    <contour>
      <point x="167.97471264367815" y="-311.10344827586204" type="curve" smooth="yes"/>
      <point x="268.912643678161" y="-311.10344827586204"/>
      <point x="354.9632183908046" y="-267.39770114942525"/>
      <point x="393.9896551724138" y="-173.88045977011492" type="curve"/>
      <point x="396.38620689655176" y="-242.183908045977"/>
      <point x="451.8379310344827" y="-311.10344827586204"/>
      <point x="575.1321839080459" y="-311.10344827586204" type="curve" smooth="yes"/>
      <point x="716.7781609195403" y="-311.10344827586204"/>
      <point x="815.1712643678161" y="-219.01379310344828"/>
      <point x="815.1712643678161" y="-73.46666666666667" type="curve" smooth="yes"/>
      <point x="815.1712643678161" y="-20.641379310344828"/>
      <point x="803.1471264367816" y="23.417241379310344"/>
      <point x="784.2586206896551" y="66.32183908045977" type="curve"/>
      <point x="729.2827586206897" y="40.725287356321836" type="line"/>
      <point x="744.7896551724139" y="4.570114942528735"/>
      <point x="754.7758620689655" y="-33.03103448275863"/>
      <point x="754.7758620689655" y="-70.64137931034482" type="curve" smooth="yes"/>
      <point x="754.7758620689655" y="-182.60919540229884"/>
      <point x="679.4563218390804" y="-248.73793103448276"/>
      <point x="575.6735632183908" y="-248.73793103448276" type="curve" smooth="yes"/>
      <point x="487.47011494252877" y="-248.73793103448276"/>
      <point x="456.6942528735632" y="-182.81954022988504"/>
      <point x="476.6195402298851" y="-83.5816091954023" type="curve" smooth="yes"/>
      <point x="486.57931034482766" y="-34.627586206896545" type="line"/>
      <point x="363.3206896551724" y="-34.627586206896545" type="line"/>
      <point x="351.35632183908046" y="-90.50114942528735" type="line" smooth="yes"/>
      <point x="328.22643678160915" y="-198.65977011494252"/>
      <point x="269.20344827586206" y="-251.46896551724137"/>
      <point x="191.43563218390804" y="-251.46896551724137" type="curve" smooth="yes"/>
      <point x="128.65862068965515" y="-251.46896551724137"/>
      <point x="93.22298850574713" y="-210.35402298850573"/>
      <point x="93.22298850574713" y="-140.36206896551724" type="curve" smooth="yes"/>
      <point x="93.22298850574713" y="34.188505747126435"/>
      <point x="246.89080459770116" y="57.364367816091956"/>
      <point x="464.77241379310345" y="79.9609195402299" type="curve" smooth="yes"/>
      <point x="716.4229885057472" y="106.2551724137931"/>
      <point x="908.164367816092" y="173.3206896551724"/>
      <point x="908.164367816092" y="391.37931034482756" type="curve" smooth="yes"/>
      <point x="908.164367816092" y="506.5850574712644"/>
      <point x="827.2689655172413" y="565.4344827586208"/>
      <point x="721.2057471264368" y="565.4344827586208" type="curve" smooth="yes"/>
      <point x="630.8" y="565.4344827586208"/>
      <point x="563.0034482758622" y="523.1862068965518"/>
      <point x="520.8873563218391" y="439.2149425287356" type="curve"/>
      <point x="501.38850574712643" y="521.1379310344828"/>
      <point x="425.9816091954023" y="565.4344827586208"/>
      <point x="324.78620689655173" y="565.4344827586208" type="curve" smooth="yes"/>
      <point x="179.80344827586208" y="565.4344827586208"/>
      <point x="64.25172413793102" y="462.5528735632184"/>
      <point x="64.25172413793102" y="313.7241379310345" type="curve" smooth="yes"/>
      <point x="64.25172413793102" y="226.6103448275862"/>
      <point x="115.9528735632184" y="156.72413793103448"/>
      <point x="204.60114942528736" y="156.72413793103448" type="curve" smooth="yes"/>
      <point x="288.74597701149423" y="156.72413793103448"/>
      <point x="364.02643678160916" y="209.7896551724138"/>
      <point x="364.02643678160916" y="302.48850574712645" type="curve" smooth="yes"/>
      <point x="364.02643678160916" y="370.27701149425286"/>
      <point x="319.22183908045974" y="410.9862068965517"/>
      <point x="255.17241379310346" y="410.9862068965517" type="curve" smooth="yes"/>
      <point x="190.28390804597703" y="410.9862068965517"/>
      <point x="130.63678160919542" y="371.6816091954023"/>
      <point x="95.25402298850575" y="259.01609195402295" type="curve"/>
      <point x="118.39540229885057" y="232.2425287356322" type="line"/>
      <point x="144.316091954023" y="317.8275862068965"/>
      <point x="181.87011494252874" y="348.7747126436782"/>
      <point x="218.14482758620687" y="348.7747126436782" type="curve" smooth="yes"/>
      <point x="250.36896551724138" y="348.7747126436782"/>
      <point x="269.58505747126435" y="328.07471264367814"/>
      <point x="269.58505747126435" y="293.79655172413794" type="curve" smooth="yes"/>
      <point x="269.58505747126435" y="247.41494252873562"/>
      <point x="239.82988505747124" y="216.14482758620687"/>
      <point x="196.47126436781608" y="216.14482758620687" type="curve" smooth="yes"/>
      <point x="153.51149425287358" y="216.14482758620687"/>
      <point x="123.44597701149424" y="253.82068965517237"/>
      <point x="123.44597701149424" y="314.43908045977014" type="curve" smooth="yes"/>
      <point x="123.44597701149424" y="424.3287356321839"/>
      <point x="202.00919540229887" y="506.2413793103448"/>
      <point x="314.50804597701153" y="506.2413793103448" type="curve" smooth="yes"/>
      <point x="415.8229885057471" y="506.2413793103448"/>
      <point x="461.6885057471264" y="446.2298850574712"/>
      <point x="440.89080459770116" y="349.332183908046" type="curve" smooth="yes"/>
      <point x="412.14367816091954" y="214.87586206896552" type="line"/>
      <point x="535.4022988505747" y="214.87586206896552" type="line"/>
      <point x="569.8091954022988" y="378.49999999999994" type="line" smooth="yes"/>
      <point x="586.0390804597702" y="456.65862068965515"/>
      <point x="627.4735632183908" y="506.0137931034483"/>
      <point x="692.3827586206896" y="506.0137931034483" type="curve" smooth="yes"/>
      <point x="750.5735632183907" y="506.0137931034483"/>
      <point x="782.0505747126437" y="468.63793103448273"/>
      <point x="782.0505747126437" y="401.43333333333334" type="curve" smooth="yes"/>
      <point x="782.0505747126437" y="195.78275862068966"/>
      <point x="645.3218390804598" y="148.9712643678161"/>
      <point x="391.07471264367814" y="121.93908045977011" type="curve" smooth="yes"/>
      <point x="160.5712643678161" y="97.60689655172413"/>
      <point x="-32.650574712643675" y="57.265517241379314"/>
      <point x="-32.650574712643675" y="-133.9770114942529" type="curve" smooth="yes"/>
      <point x="-32.650574712643675" y="-241.3114942528736"/>
      <point x="50.10229885057472" y="-311.10344827586204"/>
    </contour>
  </outline>
</glyph>
<glyph name="o-tamil" format="2">
  <advance width="952.4885057471264"/>
  <unicode hex="0B92"/>
  <note>
uni0B92
</note>
  <anchor x="424.3724137931035" y="0.0" name="bottom"/>
  <anchor x="351.14482758620693" y="-335.0" name="nukta"/>
  <anchor x="520.016091954023" y="560.0413793103448" name="top"/>
  <anchor x="521.4574712643679" y="560.0413793103448" name="vedic"/>
  <outline>
    <contour>
      <point x="229.12643678160921" y="-342.01839080459774" type="curve" smooth="yes"/>
      <point x="434.6298850574713" y="-342.01839080459774"/>
      <point x="496.1632183908046" y="-147.57356321839083"/>
      <point x="654.8988505747126" y="-147.57356321839083" type="curve" smooth="yes"/>
      <point x="699.9954022988506" y="-147.57356321839083" type="line"/>
      <point x="712.7689655172414" y="-87.73103448275862" type="line"/>
      <point x="650.3298850574713" y="-87.73103448275862" type="line" smooth="yes"/>
      <point x="481.951724137931" y="-87.73103448275862"/>
      <point x="441.6551724137931" y="80.48160919540231"/>
      <point x="562.716091954023" y="212.4241379310345" type="curve"/>
      <point x="567.7034482758621" y="209.183908045977" type="line"/>
      <point x="506.9689655172414" y="96.05977011494254"/>
      <point x="539.8908045977012" y="-4.772413793103448"/>
      <point x="663.8528735632184" y="-4.772413793103448" type="curve" smooth="yes"/>
      <point x="796.9057471264367" y="-4.772413793103448"/>
      <point x="893.8655172413793" y="97.80574712643678"/>
      <point x="893.8655172413793" y="248.28735632183907" type="curve" smooth="yes"/>
      <point x="893.8655172413793" y="456.2344827586207"/>
      <point x="707.9172413793104" y="565.0413793103448"/>
      <point x="488.76091954022996" y="565.0413793103448" type="curve" smooth="yes"/>
      <point x="242.08620689655172" y="565.0413793103448"/>
      <point x="40.264367816091955" y="411.92873563218393"/>
      <point x="40.264367816091955" y="206.1471264367816" type="curve" smooth="yes"/>
      <point x="40.264367816091955" y="84.92068965517242"/>
      <point x="107.39080459770115" y="-5.0"/>
      <point x="224.05172413793102" y="-5.0" type="curve" smooth="yes"/>
      <point x="327.20000000000005" y="-5.0"/>
      <point x="413.3011494252874" y="62.5919540229885"/>
      <point x="413.3011494252874" y="178.1816091954023" type="curve" smooth="yes"/>
      <point x="413.3011494252874" y="261.1379310344828"/>
      <point x="356.32988505747124" y="315.41379310344826"/>
      <point x="276.7425287356322" y="315.41379310344826" type="curve" smooth="yes"/>
      <point x="182.5793103448276" y="315.41379310344826"/>
      <point x="114.65517241379308" y="243.64367816091954"/>
      <point x="79.07701149425287" y="125.15517241379311" type="curve"/>
      <point x="110.05977011494252" y="100.93333333333332" type="line"/>
      <point x="134.28965517241377" y="190.77586206896552"/>
      <point x="179.56896551724137" y="238.91724137931033"/>
      <point x="231.7597701149425" y="238.91724137931033" type="curve" smooth="yes"/>
      <point x="278.19885057471265" y="238.91724137931033"/>
      <point x="298.0689655172414" y="203.3287356321839"/>
      <point x="298.0689655172414" y="161.18275862068964" type="curve" smooth="yes"/>
      <point x="298.0689655172414" y="105.35172413793104"/>
      <point x="267.20919540229886" y="56.90344827586207"/>
      <point x="205.19540229885058" y="56.90344827586207" type="curve" smooth="yes"/>
      <point x="139.0034482758621" y="56.90344827586207"/>
      <point x="100.00114942528735" y="121.63218390804599"/>
      <point x="100.00114942528735" y="210.42528735632186" type="curve" smooth="yes"/>
      <point x="100.00114942528735" y="381.4241379310345"/>
      <point x="275.9183908045977" y="506.4689655172414"/>
      <point x="476.2793103448276" y="506.4689655172414" type="curve" smooth="yes"/>
      <point x="646.5655172413793" y="506.4689655172414"/>
      <point x="774.051724137931" y="412.9540229885057"/>
      <point x="774.051724137931" y="258.9126436781609" type="curve" smooth="yes"/>
      <point x="774.051724137931" y="151.55287356321838"/>
      <point x="729.048275862069" y="58.04137931034483"/>
      <point x="646.1436781609195" y="58.04137931034483" type="curve" smooth="yes"/>
      <point x="564.1862068965518" y="58.04137931034483"/>
      <point x="583.2459770114942" y="178.38045977011498"/>
      <point x="648.6459770114943" y="265.2149425287356" type="curve"/>
      <point x="594.5229885057471" y="305.183908045977" type="line"/>
      <point x="438.0494252873563" y="182.48620689655172"/>
      <point x="378.8287356321839" y="-24.551724137931032"/>
      <point x="526.6218390804598" y="-108.52643678160919" type="curve"/>
      <point x="525.6218390804598" y="-113.52643678160919" type="line"/>
      <point x="395.1287356321839" y="-132.42298850574713"/>
      <point x="330.79425287356315" y="-274.23333333333335"/>
      <point x="210.12298850574712" y="-274.23333333333335" type="curve" smooth="yes"/>
      <point x="161.03563218390804" y="-274.23333333333335"/>
      <point x="134.57931034482758" y="-242.2528735632184"/>
      <point x="134.57931034482758" y="-204.4264367816092" type="curve" smooth="yes"/>
      <point x="134.57931034482758" y="-159.86436781609194"/>
      <point x="158.74827586206894" y="-135.58275862068965"/>
      <point x="204.3919540229885" y="-103.2022988505747" type="curve"/>
      <point x="175.26896551724138" y="-62.51494252873563" type="line"/>
      <point x="115.8528735632184" y="-104.69195402298853"/>
      <point x="77.3919540229885" y="-144.84827586206896"/>
      <point x="77.3919540229885" y="-213.3471264367816" type="curve" smooth="yes"/>
      <point x="77.3919540229885" y="-283.48965517241385"/>
      <point x="133.90344827586208" y="-342.01839080459774"/>
    </contour>
  </outline>
</glyph>
<glyph name="oo-tamil" format="2">
  <advance width="952.4885057471264"/>
  <unicode hex="0B93"/>
  <note>
uni0B93
</note>
  <anchor x="410.7459770114943" y="0.0" name="bottom"/>
  <anchor x="340.5977011494253" y="-320.4873563218391" name="nukta"/>
  <anchor x="519.0045977011494" y="560.0413793103448" name="top"/>
  <anchor x="520.4459770114943" y="560.0413793103448" name="vedic"/>
  <outline>
    <contour>
      <point x="200.9919540229885" y="-360.29770114942534" type="curve" smooth="yes"/>
      <point x="412.9402298850575" y="-360.29770114942534"/>
      <point x="495.9229885057472" y="-147.57356321839083"/>
      <point x="654.6586206896552" y="-147.57356321839083" type="curve" smooth="yes"/>
      <point x="690.4080459770115" y="-147.57356321839083" type="line"/>
      <point x="703.1816091954023" y="-87.73103448275862" type="line"/>
      <point x="650.0896551724137" y="-87.73103448275862" type="line" smooth="yes"/>
      <point x="481.71149425287354" y="-87.73103448275862"/>
      <point x="441.1747126436781" y="80.48160919540231"/>
      <point x="562.4758620689655" y="212.183908045977" type="curve"/>
      <point x="567.7034482758621" y="209.183908045977" type="line"/>
      <point x="506.9689655172414" y="96.05977011494254"/>
      <point x="539.8908045977012" y="-4.772413793103448"/>
      <point x="663.8528735632184" y="-4.772413793103448" type="curve" smooth="yes"/>
      <point x="796.9057471264367" y="-4.772413793103448"/>
      <point x="893.8655172413793" y="97.80574712643678"/>
      <point x="893.8655172413793" y="248.28735632183907" type="curve" smooth="yes"/>
      <point x="893.8655172413793" y="456.2344827586207"/>
      <point x="707.9172413793104" y="565.0413793103448"/>
      <point x="488.76091954022996" y="565.0413793103448" type="curve" smooth="yes"/>
      <point x="242.08620689655172" y="565.0413793103448"/>
      <point x="40.264367816091955" y="411.92873563218393"/>
      <point x="40.264367816091955" y="206.1471264367816" type="curve" smooth="yes"/>
      <point x="40.264367816091955" y="84.92068965517242"/>
      <point x="107.39080459770115" y="-5.0"/>
      <point x="224.05172413793102" y="-5.0" type="curve" smooth="yes"/>
      <point x="327.20000000000005" y="-5.0"/>
      <point x="413.3011494252874" y="62.5919540229885"/>
      <point x="413.3011494252874" y="178.1816091954023" type="curve" smooth="yes"/>
      <point x="413.3011494252874" y="261.1379310344828"/>
      <point x="356.32988505747124" y="315.41379310344826"/>
      <point x="276.7425287356322" y="315.41379310344826" type="curve" smooth="yes"/>
      <point x="182.5793103448276" y="315.41379310344826"/>
      <point x="114.65517241379308" y="243.64367816091954"/>
      <point x="79.07701149425287" y="125.15517241379311" type="curve"/>
      <point x="110.05977011494252" y="100.93333333333332" type="line"/>
      <point x="134.28965517241377" y="190.77586206896552"/>
      <point x="179.56896551724137" y="238.91724137931033"/>
      <point x="231.7597701149425" y="238.91724137931033" type="curve" smooth="yes"/>
      <point x="278.19885057471265" y="238.91724137931033"/>
      <point x="298.0689655172414" y="203.3287356321839"/>
      <point x="298.0689655172414" y="161.18275862068964" type="curve" smooth="yes"/>
      <point x="298.0689655172414" y="105.35172413793104"/>
      <point x="267.20919540229886" y="56.90344827586207"/>
      <point x="205.19540229885058" y="56.90344827586207" type="curve" smooth="yes"/>
      <point x="139.0034482758621" y="56.90344827586207"/>
      <point x="100.00114942528735" y="121.63218390804599"/>
      <point x="100.00114942528735" y="210.42528735632186" type="curve" smooth="yes"/>
      <point x="100.00114942528735" y="381.4241379310345"/>
      <point x="275.9183908045977" y="506.4689655172414"/>
      <point x="476.2793103448276" y="506.4689655172414" type="curve" smooth="yes"/>
      <point x="646.5655172413793" y="506.4689655172414"/>
      <point x="774.051724137931" y="412.9540229885057"/>
      <point x="774.051724137931" y="258.9126436781609" type="curve" smooth="yes"/>
      <point x="774.051724137931" y="151.55287356321838"/>
      <point x="729.048275862069" y="58.04137931034483"/>
      <point x="646.1436781609195" y="58.04137931034483" type="curve" smooth="yes"/>
      <point x="564.1862068965518" y="58.04137931034483"/>
      <point x="583.2459770114942" y="178.38045977011498"/>
      <point x="648.6459770114943" y="265.2149425287356" type="curve"/>
      <point x="594.5229885057471" y="305.183908045977" type="line"/>
      <point x="437.3287356321839" y="182.48620689655172"/>
      <point x="378.5885057471265" y="-24.551724137931032"/>
      <point x="526.3816091954023" y="-108.52643678160919" type="curve"/>
      <point x="525.3816091954023" y="-113.52643678160919" type="line"/>
      <point x="394.88850574712643" y="-132.42298850574713"/>
      <point x="302.57241379310346" y="-294.248275862069"/>
      <point x="181.90114942528734" y="-294.248275862069" type="curve" smooth="yes"/>
      <point x="124.27586206896551" y="-294.248275862069"/>
      <point x="99.03218390804598" y="-260.42758620689654"/>
      <point x="99.03218390804598" y="-218.39310344827587" type="curve" smooth="yes"/>
      <point x="99.03218390804598" y="-173.91494252873562"/>
      <point x="130.13908045977013" y="-141.33563218390807"/>
      <point x="170.87011494252874" y="-141.33563218390807" type="curve" smooth="yes"/>
      <point x="209.13333333333333" y="-141.33563218390807"/>
      <point x="238.89310344827587" y="-162.20229885057472"/>
      <point x="246.41379310344826" y="-208.33448275862068" type="curve"/>
      <point x="290.3931034482759" y="-192.84482758620692"/>
      <point x="320.49885057471266" y="-163.8"/>
      <point x="320.49885057471266" y="-123.92873563218392" type="curve" smooth="yes"/>
      <point x="320.49885057471266" y="-80.31264367816092"/>
      <point x="277.47701149425285" y="-56.842528735632186"/>
      <point x="222.74367816091953" y="-56.842528735632186" type="curve" smooth="yes"/>
      <point x="120.983908045977" y="-56.842528735632186"/>
      <point x="42.91609195402299" y="-129.46321839080463"/>
      <point x="42.91609195402299" y="-225.87241379310345" type="curve" smooth="yes"/>
      <point x="42.91609195402299" y="-303.6195402298851"/>
      <point x="105.11379310344827" y="-360.29770114942534"/>
    </contour>
  </outline>
</glyph>
<glyph name="ka-tamil" format="2">
  <advance width="798.4344827586208"/>
  <unicode hex="0B95"/>
  <note>
uni0B95
</note>
  <anchor x="325.6402298850575" y="0.0" name="bottom"/>
  <anchor x="581.9586206896552" y="560.0413793103448" name="imatra"/>
  <anchor x="325.6402298850575" y="0.0" name="nukta"/>
  <anchor x="466.74597701149423" y="560.0413793103448" name="top"/>
  <anchor x="464.91954022988506" y="560.0413793103448" name="vedic"/>
  <outline>
    <contour>
      <point x="216.90919540229885" y="-4.0" type="curve" smooth="yes"/>
      <point x="358.5540229885058" y="-4.0"/>
      <point x="430.6218390804597" y="65.11494252873563"/>
      <point x="458.5091954022989" y="197.75632183908047" type="curve" smooth="yes"/>
      <point x="472.9988505747127" y="266.8896551724138" type="line"/>
      <point x="524.0517241379312" y="266.8896551724138" type="line" smooth="yes"/>
      <point x="578.0816091954024" y="266.8896551724138"/>
      <point x="606.9425287356323" y="234.53103448275863"/>
      <point x="606.9425287356323" y="179.97816091954024" type="curve" smooth="yes"/>
      <point x="606.9425287356323" y="110.04827586206896"/>
      <point x="568.8528735632184" y="54.724137931034484"/>
      <point x="500.50804597701153" y="54.724137931034484" type="curve" smooth="yes"/>
      <point x="473.7712643678161" y="54.724137931034484" type="line"/>
      <point x="461.7574712643679" y="-3.013793103448276" type="line"/>
      <point x="516.0701149425287" y="-3.013793103448276" type="line" smooth="yes"/>
      <point x="637.3862068965518" y="-3.013793103448276"/>
      <point x="732.8712643678161" y="61.70229885057471"/>
      <point x="732.8712643678161" y="181.29540229885058" type="curve" smooth="yes"/>
      <point x="732.8712643678161" y="275.96896551724143"/>
      <point x="662.0379310344828" y="325.2344827586207"/>
      <point x="538.6333333333334" y="325.2344827586207" type="curve" smooth="yes"/>
      <point x="485.3793103448276" y="325.2344827586207" type="line"/>
      <point x="522.744827586207" y="501.6965517241379" type="line"/>
      <point x="666.7183908045977" y="501.6965517241379" type="line"/>
      <point x="679.0988505747127" y="560.0413793103448" type="line"/>
      <point x="212.69425287356322" y="560.0413793103448" type="line"/>
      <point x="155.85977011494253" y="292.93103448275866" type="line"/>
      <point x="218.29425287356324" y="292.93103448275866" type="line"/>
      <point x="262.28045977011493" y="501.6965517241379" type="line"/>
      <point x="392.97701149425285" y="501.6965517241379" type="line"/>
      <point x="355.3574712643678" y="325.2344827586207" type="line"/>
      <point x="226.132183908046" y="325.2344827586207" type="line" smooth="yes"/>
      <point x="114.29655172413793" y="325.2344827586207"/>
      <point x="26.944827586206895" y="257.24827586206897"/>
      <point x="26.944827586206895" y="150.1057471264368" type="curve" smooth="yes"/>
      <point x="26.944827586206895" y="63.614942528735625"/>
      <point x="94.07011494252873" y="-4.0"/>
    </contour>
    <contour>
      <point x="197.0103448275862" y="57.13103448275862" type="curve" smooth="yes"/>
      <point x="133.55402298850575" y="57.13103448275862"/>
      <point x="93.81149425287356" y="94.4"/>
      <point x="93.81149425287356" y="156.9310344827586" type="curve" smooth="yes"/>
      <point x="93.81149425287356" y="225.58850574712645"/>
      <point x="139.64597701149427" y="266.8896551724138"/>
      <point x="221.89540229885054" y="266.8896551724138" type="curve" smooth="yes"/>
      <point x="342.97701149425285" y="266.8896551724138" type="line"/>
      <point x="327.37471264367815" y="191.8137931034483" type="line" smooth="yes"/>
      <point x="307.8919540229885" y="98.90804597701148"/>
      <point x="269.28275862068966" y="57.13103448275862"/>
    </contour>
  </outline>
</glyph>
<glyph name="nga-tamil" format="2">
  <advance width="955.6275862068965"/>
  <unicode hex="0B99"/>
  <note>
uni0B99
</note>
  <anchor x="417.52183908045976" y="0.0" name="bottom"/>
  <anchor x="572.7436781609194" y="560.0413793103448" name="imatra"/>
  <anchor x="417.232183908046" y="0.0" name="nukta"/>
  <anchor x="539.6298850574713" y="560.0413793103448" name="top"/>
  <anchor x="537.2448275862068" y="560.0413793103448" name="vedic"/>
  <outline>
    <contour>
      <point x="23.449425287356323" y="0.0" type="line"/>
      <point x="85.32298850574712" y="0.0" type="line"/>
      <point x="191.94367816091955" y="501.92413793103447" type="line"/>
      <point x="325.99310344827586" y="501.92413793103447" type="line"/>
      <point x="258.3448275862069" y="185.24137931034483" type="line"/>
      <point x="378.5" y="185.24137931034483" type="line"/>
      <point x="387.80229885057474" y="227.88045977011495" type="line" smooth="yes"/>
      <point x="396.7264367816092" y="269.8436781609195"/>
      <point x="421.8528735632184" y="298.18275862068964"/>
      <point x="457.6770114942529" y="298.18275862068964" type="curve" smooth="yes"/>
      <point x="489.24827586206897" y="298.18275862068964"/>
      <point x="512.5034482758621" y="277.7011494252873"/>
      <point x="512.5034482758621" y="235.1080459770115" type="curve" smooth="yes"/>
      <point x="512.5034482758621" y="136.79885057471265"/>
      <point x="437.50689655172414" y="58.3448275862069"/>
      <point x="345.39770114942525" y="58.3448275862069" type="curve" smooth="yes"/>
      <point x="231.61379310344827" y="58.3448275862069" type="line"/>
      <point x="218.99310344827586" y="0.0" type="line"/>
      <point x="813.4689655172414" y="0.0" type="line"/>
      <point x="932.4701149425288" y="560.0413793103448" type="line"/>
      <point x="801.9781609195402" y="560.0413793103448" type="line"/>
      <point x="695.3574712643679" y="58.3448275862069" type="line"/>
      <point x="478.9114942528736" y="58.3448275862069" type="line"/>
      <point x="565.0172413793105" y="87.15057471264367"/>
      <point x="639.4471264367817" y="158.84022988505745"/>
      <point x="639.4471264367817" y="261.6609195402299" type="curve" smooth="yes"/>
      <point x="639.4471264367817" y="341.61494252873564"/>
      <point x="589.5413793103447" y="382.848275862069"/>
      <point x="522.6436781609195" y="382.848275862069" type="curve" smooth="yes"/>
      <point x="469.07011494252873" y="382.848275862069"/>
      <point x="432.9873563218391" y="353.883908045977"/>
      <point x="412.14942528735634" y="325.55517241379306" type="curve"/>
      <point x="449.9229885057471" y="501.92413793103447" type="line"/>
      <point x="583.7827586206897" y="501.92413793103447" type="line"/>
      <point x="596.264367816092" y="560.0413793103448" type="line"/>
      <point x="142.55172413793102" y="560.0413793103448" type="line"/>
    </contour>
  </outline>
</glyph>
<glyph name="ca-tamil" format="2">
  <advance width="674.7931034482759"/>
  <unicode hex="0B9A"/>
  <note>
uni0B9A
</note>
  <anchor x="284.8781609195402" y="0.0" name="bottom"/>
  <anchor x="593.0344827586207" y="560.0413793103448" name="imatra"/>
  <anchor x="280.7942528735632" y="0.0" name="nukta"/>
  <anchor x="461.0137931034482" y="560.0413793103448" name="top"/>
  <anchor x="421.8505747126437" y="560.0413793103448" name="vedic"/>
  <outline>
    <contour>
      <point x="216.90919540229885" y="-4.0" type="curve" smooth="yes"/>
      <point x="358.5540229885058" y="-4.0"/>
      <point x="430.6218390804597" y="65.11494252873563"/>
      <point x="458.5091954022989" y="197.75632183908047" type="curve" smooth="yes"/>
      <point x="472.9988505747127" y="266.8896551724138" type="line"/>
      <point x="617.1114942528736" y="266.8896551724138" type="line"/>
      <point x="629.5057471264369" y="325.2344827586207" type="line"/>
      <point x="485.3793103448276" y="325.2344827586207" type="line"/>
      <point x="522.744827586207" y="501.6965517241379" type="line"/>
      <point x="666.7183908045977" y="501.6965517241379" type="line"/>
      <point x="679.0988505747127" y="560.0413793103448" type="line"/>
      <point x="212.69425287356322" y="560.0413793103448" type="line"/>
      <point x="155.85977011494253" y="292.93103448275866" type="line"/>
      <point x="218.29425287356324" y="292.93103448275866" type="line"/>
      <point x="262.28045977011493" y="501.6965517241379" type="line"/>
      <point x="392.97701149425285" y="501.6965517241379" type="line"/>
      <point x="355.3574712643678" y="325.2344827586207" type="line"/>
      <point x="226.132183908046" y="325.2344827586207" type="line" smooth="yes"/>
      <point x="114.29655172413793" y="325.2344827586207"/>
      <point x="26.944827586206895" y="257.24827586206897"/>
      <point x="26.944827586206895" y="150.1057471264368" type="curve" smooth="yes"/>
      <point x="26.944827586206895" y="63.614942528735625"/>
      <point x="94.07011494252873" y="-4.0"/>
    </contour>
    <contour>
      <point x="197.0103448275862" y="57.13103448275862" type="curve" smooth="yes"/>
      <point x="133.55402298850575" y="57.13103448275862"/>
      <point x="93.81149425287356" y="94.4"/>
      <point x="93.81149425287356" y="156.9310344827586" type="curve" smooth="yes"/>
      <point x="93.81149425287356" y="225.58850574712645"/>
      <point x="139.64597701149427" y="266.8896551724138"/>
      <point x="221.89540229885054" y="266.8896551724138" type="curve" smooth="yes"/>
      <point x="342.97701149425285" y="266.8896551724138" type="line"/>
      <point x="327.37471264367815" y="191.8137931034483" type="line" smooth="yes"/>
      <point x="307.8919540229885" y="98.90804597701148"/>
      <point x="269.28275862068966" y="57.13103448275862"/>
    </contour>
  </outline>
</glyph>
<glyph name="ja-tamil" format="2">
  <advance width="943.3977011494253"/>
  <unicode hex="0B9C"/>
  <note>
uni0B9C
</note>
  <anchor x="412.77931034482754" y="0.0" name="bottom"/>
  <anchor x="343.3367816091954" y="-311.10344827586204" name="nukta"/>
  <anchor x="533.2287356321839" y="560.0413793103448" name="top"/>
  <anchor x="529.1011494252874" y="560.0413793103448" name="vedic"/>
  <outline>
    <contour>
      <point x="147.5298850574713" y="-311.10344827586204" type="curve" smooth="yes"/>
      <point x="362.6528735632184" y="-311.10344827586204"/>
      <point x="429.71034482758614" y="-20.94942528735632"/>
      <point x="595.1896551724137" y="-20.94942528735632" type="curve" smooth="yes"/>
      <point x="652.8574712643677" y="-20.94942528735632"/>
      <point x="684.1540229885057" y="-59.83793103448276"/>
      <point x="684.1540229885057" y="-115.13563218390804" type="curve" smooth="yes"/>
      <point x="684.1540229885057" y="-191.1632183908046"/>
      <point x="638.9172413793104" y="-250.6287356321839"/>
      <point x="560.051724137931" y="-250.6287356321839" type="curve" smooth="yes"/>
      <point x="530.7068965517242" y="-250.6287356321839"/>
      <point x="500.0919540229885" y="-241.38735632183906"/>
      <point x="468.8816091954023" y="-220.46896551724137" type="curve"/>
      <point x="439.4885057471265" y="-263.0609195402299" type="line"/>
      <point x="483.7333333333334" y="-296.87471264367815"/>
      <point x="531.1988505747127" y="-311.10344827586204"/>
      <point x="589.5034482758621" y="-311.10344827586204" type="curve" smooth="yes"/>
      <point x="705.9356321839081" y="-311.10344827586204"/>
      <point x="810.1149425287357" y="-241.78620689655173"/>
      <point x="810.1149425287357" y="-114.99655172413794" type="curve" smooth="yes"/>
      <point x="810.1149425287357" y="-12.419540229885058"/>
      <point x="736.6448275862069" y="40.95172413793104"/>
      <point x="630.1022988505748" y="40.95172413793104" type="curve" smooth="yes"/>
      <point x="400.0954022988506" y="40.95172413793104"/>
      <point x="329.6333333333334" y="-250.16666666666666"/>
      <point x="178.4655172413793" y="-250.16666666666666" type="curve" smooth="yes"/>
      <point x="121.20804597701151" y="-250.16666666666666"/>
      <point x="94.9609195402299" y="-207.48275862068965"/>
      <point x="94.9609195402299" y="-138.26896551724138" type="curve" smooth="yes"/>
      <point x="94.9609195402299" y="27.0264367816092"/>
      <point x="228.91954022988506" y="57.316091954022994"/>
      <point x="461.7747126436782" y="82.69885057471264" type="curve" smooth="yes"/>
      <point x="719.4689655172415" y="110.95517241379311"/>
      <point x="908.4793103448276" y="173.80114942528735"/>
      <point x="908.4793103448276" y="391.37931034482756" type="curve" smooth="yes"/>
      <point x="908.4793103448276" y="506.5850574712644"/>
      <point x="827.5839080459771" y="565.4344827586208"/>
      <point x="721.5206896551723" y="565.4344827586208" type="curve" smooth="yes"/>
      <point x="631.1149425287356" y="565.4344827586208"/>
      <point x="563.3183908045978" y="523.1862068965518"/>
      <point x="521.2022988505747" y="439.2149425287356" type="curve"/>
      <point x="501.70344827586206" y="521.1379310344828"/>
      <point x="426.296551724138" y="565.4344827586208"/>
      <point x="325.10114942528736" y="565.4344827586208" type="curve" smooth="yes"/>
      <point x="180.1183908045977" y="565.4344827586208"/>
      <point x="64.56666666666666" y="462.5528735632184"/>
      <point x="64.56666666666666" y="313.7241379310345" type="curve" smooth="yes"/>
      <point x="64.56666666666666" y="226.6103448275862"/>
      <point x="116.26781609195402" y="156.72413793103448"/>
      <point x="204.916091954023" y="156.72413793103448" type="curve" smooth="yes"/>
      <point x="289.0609195402299" y="156.72413793103448"/>
      <point x="364.34137931034485" y="209.7896551724138"/>
      <point x="364.34137931034485" y="302.48850574712645" type="curve" smooth="yes"/>
      <point x="364.34137931034485" y="370.27701149425286"/>
      <point x="319.53678160919543" y="410.9862068965517"/>
      <point x="255.48735632183906" y="410.9862068965517" type="curve" smooth="yes"/>
      <point x="190.59885057471266" y="410.9862068965517"/>
      <point x="130.95172413793102" y="371.6816091954023"/>
      <point x="95.56896551724138" y="259.01609195402295" type="curve"/>
      <point x="118.71034482758621" y="232.2425287356322" type="line"/>
      <point x="144.63103448275862" y="317.8275862068965"/>
      <point x="182.18505747126437" y="348.7747126436782"/>
      <point x="218.45977011494253" y="348.7747126436782" type="curve" smooth="yes"/>
      <point x="250.683908045977" y="348.7747126436782"/>
      <point x="269.90000000000003" y="328.07471264367814"/>
      <point x="269.90000000000003" y="293.79655172413794" type="curve" smooth="yes"/>
      <point x="269.90000000000003" y="247.41494252873562"/>
      <point x="240.1448275862069" y="216.14482758620687"/>
      <point x="196.78620689655173" y="216.14482758620687" type="curve" smooth="yes"/>
      <point x="153.82643678160923" y="216.14482758620687"/>
      <point x="123.76091954022988" y="253.82068965517237"/>
      <point x="123.76091954022988" y="314.43908045977014" type="curve" smooth="yes"/>
      <point x="123.76091954022988" y="424.3287356321839"/>
      <point x="202.3241379310345" y="506.2413793103448"/>
      <point x="314.8229885057471" y="506.2413793103448" type="curve" smooth="yes"/>
      <point x="416.1379310344828" y="506.2413793103448"/>
      <point x="462.0034482758621" y="446.2298850574712"/>
      <point x="441.2057471264368" y="349.332183908046" type="curve" smooth="yes"/>
      <point x="412.4586206896551" y="214.87586206896552" type="line"/>
      <point x="535.7172413793104" y="214.87586206896552" type="line"/>
      <point x="570.1241379310344" y="378.49999999999994" type="line" smooth="yes"/>
      <point x="586.3540229885057" y="456.65862068965515"/>
      <point x="628.1816091954023" y="506.0137931034483"/>
      <point x="693.0908045977012" y="506.0137931034483" type="curve" smooth="yes"/>
      <point x="751.2816091954023" y="506.0137931034483"/>
      <point x="782.3655172413793" y="468.63793103448273"/>
      <point x="782.3655172413793" y="401.43333333333334" type="curve" smooth="yes"/>
      <point x="782.3655172413793" y="196.26321839080458"/>
      <point x="647.5333333333333" y="148.39770114942527"/>
      <point x="389.4678160919541" y="120.74597701149426" type="curve" smooth="yes"/>
      <point x="152.42758620689654" y="95.20000000000002"/>
      <point x="-30.7735632183908" y="48.04252873563218"/>
      <point x="-30.7735632183908" y="-131.6689655172414" type="curve" smooth="yes"/>
      <point x="-30.7735632183908" y="-238.99655172413796"/>
      <point x="31.50689655172414" y="-311.10344827586204"/>
    </contour>
  </outline>
</glyph>
<glyph name="nya-tamil" format="2">
  <advance width="1245.125287356322"/>
  <unicode hex="0B9E"/>
  <note>
uni0B9E
</note>
  <anchor x="592.4505747126436" y="0.0" name="bottom"/>
  <anchor x="1029.1402298850574" y="560.0413793103448" name="imatra"/>
  <anchor x="525.7873563218391" y="-348.7080459770115" name="nukta"/>
  <anchor x="723.6724137931035" y="560.0413793103448" name="top"/>
  <anchor x="690.4908045977012" y="560.0413793103448" name="vedic"/>
  <outline>
    <contour>
      <point x="525.0919540229886" y="-348.7080459770115" type="curve" smooth="yes"/>
      <point x="892.7448275862071" y="-348.7080459770115"/>
      <point x="1167.8528735632183" y="-121.5367816091954"/>
      <point x="1167.8528735632183" y="175.34712643678162" type="curve" smooth="yes"/>
      <point x="1167.8528735632183" y="281.816091954023"/>
      <point x="1116.9862068965517" y="343.6551724137931"/>
      <point x="1028.5149425287357" y="343.6551724137931" type="curve" smooth="yes"/>
      <point x="942.783908045977" y="343.6551724137931"/>
      <point x="883.4195402298851" y="275.1793103448276"/>
      <point x="864.5344827586207" y="188.70689655172413" type="curve" smooth="yes"/>
      <point x="855.7758620689656" y="148.4724137931034" type="line"/>
      <point x="881.5896551724138" y="148.4724137931034" type="line"/>
      <point x="889.7275862068966" y="189.08735632183908" type="line" smooth="yes"/>
      <point x="898.7885057471265" y="234.09080459770112"/>
      <point x="925.4747126436781" y="265.93333333333334"/>
      <point x="968.8988505747127" y="265.93333333333334" type="curve" smooth="yes"/>
      <point x="1013.1517241379311" y="265.93333333333334"/>
      <point x="1037.2310344827586" y="231.52873563218392"/>
      <point x="1037.2310344827586" y="166.87586206896552" type="curve" smooth="yes"/>
      <point x="1037.2310344827586" y="-78.37931034482759"/>
      <point x="836.9724137931036" y="-289.6804597701149"/>
      <point x="528.648275862069" y="-289.6804597701149" type="curve" smooth="yes"/>
      <point x="272.0425287356322" y="-289.6804597701149"/>
      <point x="90.72873563218391" y="-121.66091954022988"/>
      <point x="90.72873563218391" y="132.7103448275862" type="curve" smooth="yes"/>
      <point x="90.72873563218391" y="334.9011494252874"/>
      <point x="181.40689655172415" y="487.3770114942528"/>
      <point x="346.82068965517243" y="630.6954022988506" type="curve"/>
      <point x="309.4367816091954" y="672.4712643678162" type="line"/>
      <point x="133.73103448275862" y="521.5586206896552"/>
      <point x="29.06551724137931" y="345.0137931034483"/>
      <point x="29.06551724137931" y="125.63448275862068" type="curve" smooth="yes"/>
      <point x="29.06551724137931" y="-150.1344827586207"/>
      <point x="232.95747126436785" y="-348.7080459770115"/>
    </contour>
    <component base="e-tamil" xOffset="198.5436781609195"/>
  </outline>
</glyph>
<glyph name="tta-tamil" format="2">
  <advance width="839.5172413793103"/>
  <unicode hex="0B9F"/>
  <note>
uni0B9F
</note>
  <anchor x="375.3183908045977" y="0.0" name="bottom"/>
  <anchor x="375.3183908045977" y="0.0" name="nukta"/>
  <anchor x="511.75977011494257" y="560.0413793103448" name="top"/>
  <anchor x="514.8850574712643" y="560.0413793103448" name="vedic"/>
  <outline>
    <contour>
      <point x="23.449425287356323" y="0.0" type="line"/>
      <point x="768.1275862068966" y="0.0" type="line"/>
      <point x="780.6091954022988" y="58.3448275862069" type="line"/>
      <point x="166.0436781609195" y="58.3448275862069" type="line"/>
      <point x="272.8034482758621" y="560.0413793103448" type="line"/>
      <point x="142.55172413793102" y="560.0413793103448" type="line"/>
    </contour>
  </outline>
</glyph>
<glyph name="nna-tamil" format="2">
  <advance width="1654.9689655172415"/>
  <unicode hex="0BA3"/>
  <note>
uni0BA3
</note>
  <anchor x="826.8264367816092" y="0.0" name="bottom"/>
  <anchor x="1570.2954022988506" y="560.0413793103448" name="imatra"/>
  <anchor x="826.3206896551725" y="0.0" name="nukta"/>
  <anchor x="937.3183908045977" y="560.0413793103448" name="top"/>
  <anchor x="908.6402298850576" y="560.0413793103448" name="vedic"/>
  <outline>
    <contour>
      <point x="632.316091954023" y="-4.772413793103448" type="curve" smooth="yes"/>
      <point x="744.4471264367817" y="-4.772413793103448"/>
      <point x="836.1816091954023" y="80.37471264367815"/>
      <point x="836.1816091954023" y="225.61494252873564" type="curve" smooth="yes"/>
      <point x="836.1816091954023" y="436.50459770114946"/>
      <point x="671.1632183908046" y="565.0413793103448"/>
      <point x="443.66436781609195" y="565.0413793103448" type="curve" smooth="yes"/>
      <point x="227.716091954023" y="565.0413793103448"/>
      <point x="41.00000000000001" y="409.43908045977014"/>
      <point x="41.00000000000001" y="209.38275862068966" type="curve" smooth="yes"/>
      <point x="41.00000000000001" y="88.15632183908048"/>
      <point x="112.51264367816093" y="-5.0"/>
      <point x="229.45172413793102" y="-5.0" type="curve" smooth="yes"/>
      <point x="332.4609195402299" y="-5.0"/>
      <point x="418.4712643678161" y="62.5919540229885"/>
      <point x="418.4712643678161" y="178.1816091954023" type="curve" smooth="yes"/>
      <point x="418.4712643678161" y="261.1379310344828"/>
      <point x="360.75172413793103" y="315.41379310344826"/>
      <point x="281.164367816092" y="315.41379310344826" type="curve" smooth="yes"/>
      <point x="187.00114942528737" y="315.41379310344826"/>
      <point x="118.92873563218392" y="243.64367816091954"/>
      <point x="83.35057471264366" y="125.15517241379311" type="curve"/>
      <point x="114.33333333333334" y="100.93333333333332" type="line"/>
      <point x="138.5632183908046" y="190.77586206896552"/>
      <point x="183.53563218390804" y="238.91724137931033"/>
      <point x="235.72643678160918" y="238.91724137931033" type="curve" smooth="yes"/>
      <point x="282.1655172413793" y="238.91724137931033"/>
      <point x="303.2390804597701" y="203.3287356321839"/>
      <point x="303.2390804597701" y="161.18275862068964" type="curve" smooth="yes"/>
      <point x="303.2390804597701" y="105.35172413793104"/>
      <point x="272.74827586206897" y="56.90344827586207"/>
      <point x="210.5954022988506" y="56.90344827586207" type="curve" smooth="yes"/>
      <point x="144.12528735632182" y="56.90344827586207"/>
      <point x="100.73678160919542" y="124.86781609195403"/>
      <point x="100.73678160919542" y="213.66091954022988" type="curve" smooth="yes"/>
      <point x="100.73678160919542" y="377.4655172413793"/>
      <point x="257.8206896551724" y="506.2413793103448"/>
      <point x="433.4333333333334" y="506.2413793103448" type="curve" smooth="yes"/>
      <point x="612.5448275862069" y="506.2413793103448"/>
      <point x="715.912643678161" y="389.4413793103448"/>
      <point x="715.4574712643679" y="231.62413793103445" type="curve" smooth="yes"/>
      <point x="715.2298850574713" y="128.11494252873564"/>
      <point x="675.5839080459771" y="59.42413793103448"/>
      <point x="608.5298850574712" y="59.42413793103448" type="curve" smooth="yes"/>
      <point x="567.564367816092" y="59.42413793103448"/>
      <point x="543.8149425287357" y="102.46781609195402"/>
      <point x="543.8149425287357" y="170.2942528735632" type="curve" smooth="yes"/>
      <point x="543.8149425287357" y="336.5459770114943"/>
      <point x="706.4137931034483" y="506.2413793103448"/>
      <point x="893.6931034482758" y="506.2413793103448" type="curve" smooth="yes"/>
      <point x="1066.083908045977" y="506.2413793103448"/>
      <point x="1134.9356321839082" y="392.6632183908046"/>
      <point x="1134.4804597701152" y="237.04827586206898" type="curve" smooth="yes"/>
      <point x="1134.2528735632186" y="132.8183908045977"/>
      <point x="1093.393103448276" y="59.42413793103448"/>
      <point x="1026.8321839080459" y="59.42413793103448" type="curve" smooth="yes"/>
      <point x="985.6264367816091" y="59.42413793103448"/>
      <point x="962.8379310344827" y="98.63218390804597"/>
      <point x="962.8379310344827" y="166.9390804597701" type="curve" smooth="yes"/>
      <point x="962.8379310344827" y="356.9068965517242"/>
      <point x="1149.4022988505749" y="501.92413793103447"/>
      <point x="1343.1862068965515" y="501.92413793103447" type="curve" smooth="yes"/>
      <point x="1684.4264367816093" y="501.92413793103447" type="line"/>
      <point x="1696.6804597701148" y="560.0413793103448" type="line"/>
      <point x="1351.0459770114942" y="560.0413793103448" type="line" smooth="yes"/>
      <point x="1115.5563218390803" y="560.0413793103448"/>
      <point x="902.9103448275863" y="389.2022988505747"/>
      <point x="902.9103448275863" y="165.67931034482757" type="curve" smooth="yes"/>
      <point x="902.9103448275863" y="71.12988505747127"/>
      <point x="945.6839080459772" y="-4.772413793103448"/>
      <point x="1050.6183908045978" y="-4.772413793103448" type="curve" smooth="yes"/>
      <point x="1163.583908045977" y="-4.772413793103448"/>
      <point x="1255.2045977011494" y="87.69080459770116"/>
      <point x="1255.2045977011494" y="233.79080459770117" type="curve" smooth="yes"/>
      <point x="1255.2045977011494" y="437.648275862069"/>
      <point x="1125.3977011494253" y="565.0413793103448"/>
      <point x="904.2022988505746" y="565.0413793103448" type="curve" smooth="yes"/>
      <point x="674.187356321839" y="565.0413793103448"/>
      <point x="483.8873563218391" y="368.84137931034485"/>
      <point x="483.8873563218391" y="169.0344827586207" type="curve" smooth="yes"/>
      <point x="483.8873563218391" y="74.48505747126437"/>
      <point x="527.3816091954022" y="-4.772413793103448"/>
    </contour>
    <contour>
      <point x="1311.2413793103449" y="0.0" type="line"/>
      <point x="1439.655172413793" y="0.0" type="line"/>
      <point x="1552.3505747126437" y="530.9862068965517" type="line"/>
      <point x="1424.3298850574713" y="530.9862068965517" type="line"/>
    </contour>
  </outline>
</glyph>
<glyph name="ta-tamil" format="2">
  <advance width="802.7954022988506"/>
  <unicode hex="0BA4"/>
  <note>
uni0BA4
</note>
  <anchor x="322.632183908046" y="0.0" name="bottom"/>
  <anchor x="591.9666666666667" y="560.0413793103448" name="imatra"/>
  <anchor x="325.45977011494256" y="-136.17241379310346" name="nukta"/>
  <anchor x="461.3793103448276" y="560.0413793103448" name="top"/>
  <anchor x="448.8735632183908" y="560.0413793103448" name="vedic"/>
  <outline>
    <contour>
      <point x="69.29425287356321" y="-259.9896551724138" type="curve"/>
      <point x="84.65172413793103" y="-180.57701149425287"/>
      <point x="115.24022988505749" y="-131.81034482758622"/>
      <point x="212.85287356321837" y="-131.81034482758622" type="curve" smooth="yes"/>
      <point x="354.74942528735636" y="-131.81034482758622" type="line" smooth="yes"/>
      <point x="575.0873563218391" y="-131.81034482758622"/>
      <point x="721.4574712643678" y="-41.04482758620691"/>
      <point x="721.4574712643678" y="141.63103448275862" type="curve" smooth="yes"/>
      <point x="721.4574712643678" y="264.88045977011495"/>
      <point x="630.6298850574713" y="325.2344827586207"/>
      <point x="507.22758620689655" y="325.2344827586207" type="curve" smooth="yes"/>
      <point x="486.3022988505747" y="325.2344827586207" type="line"/>
      <point x="523.667816091954" y="501.6965517241379" type="line"/>
      <point x="667.6413793103449" y="501.6965517241379" type="line"/>
      <point x="680.0218390804598" y="560.0413793103448" type="line"/>
      <point x="213.61724137931034" y="560.0413793103448" type="line"/>
      <point x="156.78275862068966" y="292.93103448275866" type="line"/>
      <point x="219.21724137931034" y="292.93103448275866" type="line"/>
      <point x="263.20344827586206" y="501.6965517241379" type="line"/>
      <point x="393.9" y="501.6965517241379" type="line"/>
      <point x="356.28045977011493" y="325.2344827586207" type="line"/>
      <point x="227.0551724137931" y="325.2344827586207" type="line" smooth="yes"/>
      <point x="115.21954022988506" y="325.2344827586207"/>
      <point x="27.867816091954026" y="257.24827586206897"/>
      <point x="27.867816091954026" y="150.1057471264368" type="curve" smooth="yes"/>
      <point x="27.867816091954026" y="63.614942528735625"/>
      <point x="94.99310344827587" y="-4.0"/>
      <point x="217.832183908046" y="-4.0" type="curve" smooth="yes"/>
      <point x="359.47701149425285" y="-4.0"/>
      <point x="431.54482758620696" y="65.11494252873563"/>
      <point x="459.432183908046" y="197.75632183908047" type="curve" smooth="yes"/>
      <point x="473.9218390804598" y="266.8896551724138" type="line"/>
      <point x="493.03908045977016" y="266.8896551724138" type="line" smooth="yes"/>
      <point x="553.403448275862" y="266.8896551724138"/>
      <point x="596.6666666666666" y="226.58620689655174"/>
      <point x="596.6666666666666" y="140.27586206896552" type="curve" smooth="yes"/>
      <point x="596.6666666666666" y="-2.296551724137932"/>
      <point x="506.4459770114942" y="-80.60574712643678"/>
      <point x="331.032183908046" y="-80.60574712643678" type="curve" smooth="yes"/>
      <point x="174.60919540229884" y="-80.60574712643678" type="line" smooth="yes"/>
      <point x="61.55057471264368" y="-80.60574712643678"/>
      <point x="-22.970114942528735" y="-106.0022988505747"/>
      <point x="-22.970114942528735" y="-187.59885057471263" type="curve" smooth="yes"/>
      <point x="-22.970114942528735" y="-234.98850574712645"/>
      <point x="12.129885057471267" y="-259.9896551724138"/>
    </contour>
    <contour>
      <point x="197.93333333333334" y="57.13103448275862" type="curve" smooth="yes"/>
      <point x="134.4770114942529" y="57.13103448275862"/>
      <point x="94.73448275862067" y="94.4"/>
      <point x="94.73448275862067" y="156.9310344827586" type="curve" smooth="yes"/>
      <point x="94.73448275862067" y="225.58850574712645"/>
      <point x="140.5689655172414" y="266.8896551724138"/>
      <point x="222.8183908045977" y="266.8896551724138" type="curve" smooth="yes"/>
      <point x="343.9" y="266.8896551724138" type="line"/>
      <point x="328.2977011494253" y="191.8137931034483" type="line" smooth="yes"/>
      <point x="308.8149425287357" y="98.90804597701148"/>
      <point x="270.20574712643673" y="57.13103448275862"/>
    </contour>
  </outline>
</glyph>
<glyph name="na-tamil" format="2">
  <advance width="751.5643678160919"/>
  <unicode hex="0BA8"/>
  <note>
uni0BA8
</note>
  <anchor x="297.42413793103447" y="0.0" name="bottom"/>
  <anchor x="541.0011494252874" y="560.0413793103448" name="imatra"/>
  <anchor x="270.2080459770115" y="-204.02758620689656" name="nukta"/>
  <anchor x="421.62068965517244" y="560.0413793103448" name="top"/>
  <anchor x="442.87586206896555" y="560.0413793103448" name="vedic"/>
  <outline>
    <contour>
      <point x="66.53563218390805" y="-263.52988505747123" type="curve"/>
      <point x="81.89310344827587" y="-184.11724137931034"/>
      <point x="113.94827586206897" y="-135.3505747126437"/>
      <point x="211.56091954022992" y="-135.3505747126437" type="curve" smooth="yes"/>
      <point x="297.367816091954" y="-135.3505747126437" type="line" smooth="yes"/>
      <point x="499.98505747126444" y="-135.3505747126437"/>
      <point x="679.267816091954" y="-23.863218390804597"/>
      <point x="679.267816091954" y="186.23793103448278" type="curve" smooth="yes"/>
      <point x="679.267816091954" y="288.5229885057471"/>
      <point x="625.8390804597701" y="344.5655172413793"/>
      <point x="544.6908045977012" y="344.5655172413793" type="curve" smooth="yes"/>
      <point x="485.0632183908046" y="344.5655172413793"/>
      <point x="449.7689655172413" y="313.31264367816095"/>
      <point x="425.2206896551724" y="282.8436781609195" type="curve"/>
      <point x="471.5758620689655" y="501.92413793103447" type="line"/>
      <point x="600.9551724137931" y="501.92413793103447" type="line"/>
      <point x="613.5758620689655" y="560.0413793103448" type="line"/>
      <point x="142.62758620689655" y="560.0413793103448" type="line"/>
      <point x="23.765517241379317" y="0.0" type="line"/>
      <point x="87.37931034482759" y="0.0" type="line"/>
      <point x="193.60689655172413" y="501.92413793103447" type="line"/>
      <point x="341.85632183908046" y="501.92413793103447" type="line"/>
      <point x="235.4896551724138" y="0.0" type="line"/>
      <point x="364.81609195402297" y="0.0" type="line"/>
      <point x="405.3724137931035" y="191.23678160919542" type="line" smooth="yes"/>
      <point x="414.68735632183905" y="234.68505747126437"/>
      <point x="443.85977011494253" y="265.832183908046"/>
      <point x="482.18850574712644" y="265.832183908046" type="curve" smooth="yes"/>
      <point x="524.5574712643679" y="265.832183908046"/>
      <point x="547.8241379310346" y="237.19770114942528"/>
      <point x="547.8241379310346" y="178.6264367816092" type="curve" smooth="yes"/>
      <point x="547.8241379310346" y="20.91264367816092"/>
      <point x="448.667816091954" y="-84.3735632183908"/>
      <point x="289.3034482758621" y="-84.3735632183908" type="curve" smooth="yes"/>
      <point x="173.54482758620688" y="-84.3735632183908" type="line" smooth="yes"/>
      <point x="60.486206896551735" y="-84.3735632183908"/>
      <point x="-25.72873563218391" y="-109.77011494252874"/>
      <point x="-25.72873563218391" y="-191.36666666666667" type="curve" smooth="yes"/>
      <point x="-25.72873563218391" y="-238.75632183908047"/>
      <point x="9.371264367816094" y="-263.52988505747123"/>
    </contour>
  </outline>
</glyph>
<glyph name="nnna-tamil" format="2">
  <advance width="1256.0494252873561"/>
  <unicode hex="0BA9"/>
  <note>
uni0BA9
</note>
  <anchor x="557.7597701149425" y="0.0" name="bottom"/>
  <anchor x="1164.3586206896553" y="560.0413793103448" name="imatra"/>
  <anchor x="558.2149425287356" y="0.0" name="nukta"/>
  <anchor x="710.4" y="560.0413793103448" name="top"/>
  <anchor x="706.7068965517241" y="560.0413793103448" name="vedic"/>
  <outline>
    <contour>
      <point x="229.45172413793102" y="-5.0" type="curve" smooth="yes"/>
      <point x="332.4609195402299" y="-5.0"/>
      <point x="418.4712643678161" y="62.5919540229885"/>
      <point x="418.4712643678161" y="178.1816091954023" type="curve" smooth="yes"/>
      <point x="418.4712643678161" y="261.1379310344828"/>
      <point x="360.75172413793103" y="315.41379310344826"/>
      <point x="281.164367816092" y="315.41379310344826" type="curve" smooth="yes"/>
      <point x="187.00114942528737" y="315.41379310344826"/>
      <point x="118.92873563218392" y="243.64367816091954"/>
      <point x="83.35057471264366" y="125.15517241379311" type="curve"/>
      <point x="114.33333333333334" y="100.93333333333332" type="line"/>
      <point x="138.5632183908046" y="190.77586206896552"/>
      <point x="183.53563218390804" y="238.91724137931033"/>
      <point x="235.72643678160918" y="238.91724137931033" type="curve" smooth="yes"/>
      <point x="282.1655172413793" y="238.91724137931033"/>
      <point x="303.2390804597701" y="203.3287356321839"/>
      <point x="303.2390804597701" y="161.18275862068964" type="curve" smooth="yes"/>
      <point x="303.2390804597701" y="105.35172413793104"/>
      <point x="272.74827586206897" y="56.90344827586207"/>
      <point x="210.5954022988506" y="56.90344827586207" type="curve" smooth="yes"/>
      <point x="144.12528735632182" y="56.90344827586207"/>
      <point x="100.73678160919542" y="124.86781609195403"/>
      <point x="100.73678160919542" y="213.66091954022988" type="curve" smooth="yes"/>
      <point x="100.73678160919542" y="377.4655172413793"/>
      <point x="253.29999999999998" y="506.2413793103448"/>
      <point x="430.4850574712643" y="506.2413793103448" type="curve" smooth="yes"/>
      <point x="609.8367816091954" y="506.2413793103448"/>
      <point x="717.3540229885057" y="389.4413793103448"/>
      <point x="716.8988505747126" y="231.62413793103445" type="curve" smooth="yes"/>
      <point x="716.671264367816" y="128.11494252873564"/>
      <point x="676.5448275862069" y="59.42413793103448"/>
      <point x="609.2505747126437" y="59.42413793103448" type="curve" smooth="yes"/>
      <point x="568.0448275862069" y="59.42413793103448"/>
      <point x="545.2563218390804" y="98.63218390804597"/>
      <point x="545.2563218390804" y="166.9390804597701" type="curve" smooth="yes"/>
      <point x="545.2563218390804" y="356.9068965517242"/>
      <point x="731.4390804597701" y="501.92413793103447"/>
      <point x="937.016091954023" y="501.92413793103447" type="curve" smooth="yes"/>
      <point x="1285.506896551724" y="501.92413793103447" type="line"/>
      <point x="1297.76091954023" y="560.0413793103448" type="line"/>
      <point x="944.8758620689655" y="560.0413793103448" type="line" smooth="yes"/>
      <point x="697.5931034482758" y="560.0413793103448"/>
      <point x="485.32873563218396" y="389.2022988505747"/>
      <point x="485.32873563218396" y="165.67931034482757" type="curve" smooth="yes"/>
      <point x="485.32873563218396" y="71.12988505747127"/>
      <point x="528.1022988505747" y="-4.772413793103448"/>
      <point x="633.0367816091955" y="-4.772413793103448" type="curve" smooth="yes"/>
      <point x="745.4080459770115" y="-4.772413793103448"/>
      <point x="837.6229885057471" y="81.99540229885058"/>
      <point x="837.6229885057471" y="226.40114942528734" type="curve" smooth="yes"/>
      <point x="837.6229885057471" y="437.29080459770114"/>
      <point x="668.4551724137932" y="565.0413793103448"/>
      <point x="440.716091954023" y="565.0413793103448" type="curve" smooth="yes"/>
      <point x="223.19540229885055" y="565.0413793103448"/>
      <point x="41.00000000000001" y="409.43908045977014"/>
      <point x="41.00000000000001" y="209.38275862068966" type="curve" smooth="yes"/>
      <point x="41.00000000000001" y="88.15632183908048"/>
      <point x="112.51264367816093" y="-5.0"/>
    </contour>
    <contour>
      <point x="912.3218390804598" y="0.0" type="line"/>
      <point x="1040.735632183908" y="0.0" type="line"/>
      <point x="1153.4310344827588" y="530.9862068965517" type="line"/>
      <point x="1025.4103448275862" y="530.9862068965517" type="line"/>
    </contour>
  </outline>
</glyph>
<glyph name="pa-tamil" format="2">
  <advance width="842.4114942528736"/>
  <unicode hex="0BAA"/>
  <note>
uni0BAA
</note>
  <anchor x="363.4517241379311" y="0.0" name="bottom"/>
  <anchor x="811.0379310344828" y="560.0413793103448" name="imatra"/>
  <anchor x="363.4517241379311" y="0.0" name="nukta"/>
  <anchor x="480.67701149425284" y="560.0413793103448" name="top"/>
  <anchor x="481.38965517241377" y="560.0413793103448" name="vedic"/>
  <outline>
    <contour>
      <point x="23.449425287356323" y="0.0" type="line"/>
      <point x="700.2528735632184" y="0.0" type="line"/>
      <point x="819.1011494252874" y="560.0413793103448" type="line"/>
      <point x="689.5080459770115" y="560.0413793103448" type="line"/>
      <point x="582.748275862069" y="58.3448275862069" type="line"/>
      <point x="164.47126436781608" y="58.3448275862069" type="line"/>
      <point x="271.2310344827586" y="560.0413793103448" type="line"/>
      <point x="142.55172413793102" y="560.0413793103448" type="line"/>
    </contour>
  </outline>
</glyph>
<glyph name="ma-tamil" format="2">
  <advance width="851.803448275862"/>
  <unicode hex="0BAE"/>
  <note>
uni0BAE
</note>
  <anchor x="366.19885057471265" y="0.0" name="bottom"/>
  <anchor x="830.8574712643679" y="560.0413793103448" name="imatra"/>
  <anchor x="366.80574712643676" y="0.0" name="nukta"/>
  <anchor x="511.7816091954023" y="560.0413793103448" name="top"/>
  <anchor x="501.57931034482755" y="560.0413793103448" name="vedic"/>
  <outline>
    <contour>
      <point x="23.449425287356323" y="0.0" type="line"/>
      <point x="584.5471264367816" y="0.0" type="line" smooth="yes"/>
      <point x="734.4896551724138" y="0.0"/>
      <point x="796.6034482758621" y="151.30689655172415"/>
      <point x="796.6034482758621" y="329.067816091954" type="curve" smooth="yes"/>
      <point x="796.6034482758621" y="475.25287356321843"/>
      <point x="734.1298850574713" y="565.4344827586208"/>
      <point x="615.893103448276" y="565.4344827586208" type="curve" smooth="yes"/>
      <point x="514.244827586207" y="565.4344827586208"/>
      <point x="448.68275862068964" y="503.4183908045977"/>
      <point x="427.1229885057472" y="400.2770114942529" type="curve" smooth="yes"/>
      <point x="355.0758620689655" y="58.3448275862069" type="line"/>
      <point x="166.0436781609195" y="58.3448275862069" type="line"/>
      <point x="272.8034482758621" y="560.0413793103448" type="line"/>
      <point x="142.55172413793102" y="560.0413793103448" type="line"/>
    </contour>
    <contour>
      <point x="484.6425287356322" y="58.3448275862069" type="line"/>
      <point x="557.8425287356323" y="405.89080459770116" type="line" smooth="yes"/>
      <point x="571.6666666666666" y="470.73333333333335"/>
      <point x="597.2149425287356" y="497.7862068965517"/>
      <point x="641.383908045977" y="497.7862068965517" type="curve" smooth="yes"/>
      <point x="696.0413793103448" y="497.7862068965517"/>
      <point x="732.4091954022989" y="442.7241379310344"/>
      <point x="732.4091954022989" y="321.43333333333334" type="curve" smooth="yes"/>
      <point x="732.4091954022989" y="193.01724137931035"/>
      <point x="692.3206896551724" y="58.3448275862069"/>
      <point x="590.9287356321839" y="58.3448275862069" type="curve" smooth="yes"/>
    </contour>
  </outline>
</glyph>
<glyph name="ya-tamil" format="2">
  <advance width="926.3643678160919"/>
  <unicode hex="0BAF"/>
  <note>
uni0BAF
</note>
  <anchor x="437.8436781609195" y="0.0" name="bottom"/>
  <anchor x="896.4689655172415" y="560.0413793103448" name="imatra"/>
  <anchor x="438.03333333333336" y="0.0" name="nukta"/>
  <anchor x="529.3436781609196" y="560.0413793103448" name="top"/>
  <anchor x="524.1034482758621" y="560.0413793103448" name="vedic"/>
  <outline>
    <contour>
      <point x="177.49425287356323" y="-7.648275862068966" type="curve" smooth="yes"/>
      <point x="251.11149425287357" y="-7.648275862068966"/>
      <point x="291.3528735632184" y="32.86551724137931"/>
      <point x="311.4919540229885" y="59.45862068965518" type="curve"/>
      <point x="298.9850574712644" y="0.0" type="line"/>
      <point x="784.2057471264368" y="0.0" type="line"/>
      <point x="902.8137931034483" y="560.0413793103448" type="line"/>
      <point x="773.1080459770116" y="560.0413793103448" type="line"/>
      <point x="666.4873563218391" y="58.3448275862069" type="line"/>
      <point x="428.9816091954023" y="58.3448275862069" type="line"/>
      <point x="535.4367816091954" y="560.0413793103448" type="line"/>
      <point x="408.04712643678164" y="560.0413793103448" type="line"/>
      <point x="320.2988505747127" y="146.8206896551724" type="line" smooth="yes"/>
      <point x="309.07241379310346" y="94.09195402298852"/>
      <point x="277.0942528735632" y="60.862068965517246"/>
      <point x="233.2931034482759" y="60.862068965517246" type="curve" smooth="yes"/>
      <point x="191.82183908045977" y="60.862068965517246"/>
      <point x="169.716091954023" y="96.59885057471264"/>
      <point x="182.8816091954023" y="157.55172413793105" type="curve" smooth="yes"/>
      <point x="268.60229885057475" y="560.0413793103448" type="line"/>
      <point x="139.21149425287356" y="560.0413793103448" type="line"/>
      <point x="57.277011494252875" y="172.92183908045976" type="line" smooth="yes"/>
      <point x="35.03678160919541" y="67.65517241379311"/>
      <point x="86.34942528735633" y="-7.648275862068966"/>
    </contour>
  </outline>
</glyph>
<glyph name="ra-tamil" format="2">
  <advance width="604.1275862068966"/>
  <unicode hex="0BB0"/>
  <note>
uni0BB0
</note>
  <anchor x="242.77586206896555" y="0.0" name="bottom"/>
  <anchor x="570.2275862068965" y="560.0413793103448" name="imatra"/>
  <anchor x="196.81149425287356" y="-216.5448275862069" name="nukta"/>
  <anchor x="379.88275862068963" y="560.0413793103448" name="top"/>
  <anchor x="395.28620689655173" y="560.0413793103448" name="vedic"/>
  <outline>
    <contour>
      <point x="67.49655172413793" y="-245.92528735632183" type="line"/>
      <point x="396.2701149425287" y="28.825287356321837" type="line"/>
      <point x="496.1942528735632" y="501.92413793103447" type="line"/>
      <point x="633.5850574712643" y="501.92413793103447" type="line"/>
      <point x="645.8264367816092" y="560.0413793103448" type="line"/>
      <point x="142.55172413793102" y="560.0413793103448" type="line"/>
      <point x="23.449425287356323" y="0.0" type="line"/>
      <point x="87.56896551724138" y="0.0" type="line"/>
      <point x="194.18965517241378" y="501.92413793103447" type="line"/>
      <point x="365.2954022988506" y="501.92413793103447" type="line"/>
      <point x="256.7988505747127" y="-7.656321839080459" type="line"/>
      <point x="29.548275862068962" y="-199.183908045977" type="line"/>
    </contour>
  </outline>
</glyph>
<glyph name="rra-tamil" format="2">
  <advance width="812.2735632183908"/>
  <unicode hex="0BB1"/>
  <note>
uni0BB1
</note>
  <anchor x="340.71494252873566" y="0.0" name="bottom"/>
  <anchor x="310.16551724137935" y="-191.44827586206895" name="nukta"/>
  <anchor x="449.2712643678161" y="560.0413793103448" name="top"/>
  <anchor x="475.32873563218396" y="560.0413793103448" name="vedic"/>
  <outline>
    <contour>
      <point x="64.3287356321839" y="-258.567816091954" type="curve"/>
      <point x="79.68620689655172" y="-179.1551724137931"/>
      <point x="111.74137931034481" y="-130.86896551724138"/>
      <point x="209.35402298850573" y="-130.86896551724138" type="curve" smooth="yes"/>
      <point x="317.26781609195405" y="-130.86896551724138" type="line" smooth="yes"/>
      <point x="611.1839080459771" y="-130.86896551724138"/>
      <point x="767.8977011494253" y="50.39425287356321"/>
      <point x="767.8977011494253" y="331.77126436781606" type="curve" smooth="yes"/>
      <point x="767.8977011494253" y="480.7988505747127"/>
      <point x="690.4011494252874" y="565.0413793103448"/>
      <point x="571.5620689655171" y="565.0413793103448" type="curve" smooth="yes"/>
      <point x="477.8298850574713" y="565.0413793103448"/>
      <point x="423.2770114942529" y="510.6747126436782"/>
      <point x="394.9712643678161" y="463.48735632183906" type="curve"/>
      <point x="384.06091954022986" y="514.43908045977"/>
      <point x="345.17011494252876" y="564.2689655172414"/>
      <point x="267.58620689655174" y="564.2689655172414" type="curve" smooth="yes"/>
      <point x="182.8218390804598" y="564.2689655172414"/>
      <point x="123.9551724137931" y="506.22183908045974"/>
      <point x="103.58390804597701" y="408.7712643678161" type="curve" smooth="yes"/>
      <point x="16.627586206896552" y="0.0" type="line"/>
      <point x="80.01379310344828" y="0.0" type="line"/>
      <point x="165.57701149425287" y="403.26091954022985" type="line" smooth="yes"/>
      <point x="179.18850574712644" y="467.0632183908046"/>
      <point x="207.86206896551727" y="503.0482758620689"/>
      <point x="255.9597701149425" y="503.0482758620689" type="curve" smooth="yes"/>
      <point x="311.5609195402299" y="503.0482758620689"/>
      <point x="328.8574712643678" y="455.2114942528736"/>
      <point x="315.27241379310345" y="390.4896551724138" type="curve" smooth="yes"/>
      <point x="232.22528735632184" y="0.0" type="line"/>
      <point x="362.7022988505747" y="0.0" type="line"/>
      <point x="445.83563218390805" y="392.2287356321839" type="line" smooth="yes"/>
      <point x="461.548275862069" y="466.09770114942523"/>
      <point x="502.2620689655173" y="503.8206896551724"/>
      <point x="552.6931034482758" y="503.8206896551724" type="curve" smooth="yes"/>
      <point x="612.8252873563218" y="503.8206896551724"/>
      <point x="640.6724137931034" y="451.64942528735634"/>
      <point x="640.6724137931034" y="357.60919540229884" type="curve" smooth="yes"/>
      <point x="640.6724137931034" y="114.23793103448276"/>
      <point x="544.2413793103449" y="-78.00804597701149"/>
      <point x="313.5356321839081" y="-78.00804597701149" type="curve" smooth="yes"/>
      <point x="171.73103448275862" y="-78.00804597701149" type="line" smooth="yes"/>
      <point x="58.279310344827586" y="-78.00804597701149"/>
      <point x="-27.935632183908048" y="-104.58045977011494"/>
      <point x="-27.935632183908048" y="-186.1770114942529" type="curve" smooth="yes"/>
      <point x="-27.935632183908048" y="-233.56666666666666"/>
      <point x="7.164367816091957" y="-258.567816091954"/>
    </contour>
  </outline>
</glyph>
<glyph name="la-tamil" format="2">
  <advance width="1000.4770114942529"/>
  <unicode hex="0BB2"/>
  <note>
uni0BB2
</note>
  <anchor x="442.516091954023" y="0.0" name="bottom"/>
  <anchor x="442.516091954023" y="0.0" name="nukta"/>
  <anchor x="574.9114942528736" y="560.0413793103448" name="top"/>
  <anchor x="559.767816091954" y="560.0413793103448" name="vedic"/>
  <outline>
    <contour>
      <point x="230.85747126436783" y="-5.0" type="curve" smooth="yes"/>
      <point x="333.8666666666667" y="-5.0"/>
      <point x="419.8770114942529" y="62.5919540229885"/>
      <point x="419.8770114942529" y="178.1816091954023" type="curve" smooth="yes"/>
      <point x="419.8770114942529" y="261.1379310344828"/>
      <point x="361.7022988505748" y="315.41379310344826"/>
      <point x="282.1149425287357" y="315.41379310344826" type="curve" smooth="yes"/>
      <point x="187.95172413793102" y="315.41379310344826"/>
      <point x="120.3344827586207" y="243.64367816091954"/>
      <point x="84.75632183908046" y="125.15517241379311" type="curve"/>
      <point x="115.73908045977012" y="100.93333333333332" type="line"/>
      <point x="139.9689655172414" y="190.77586206896552"/>
      <point x="184.94137931034481" y="238.91724137931033"/>
      <point x="237.13218390804596" y="238.91724137931033" type="curve" smooth="yes"/>
      <point x="283.57126436781607" y="238.91724137931033"/>
      <point x="304.6448275862069" y="203.3287356321839"/>
      <point x="304.6448275862069" y="161.18275862068964" type="curve" smooth="yes"/>
      <point x="304.6448275862069" y="105.35172413793104"/>
      <point x="274.15402298850574" y="56.90344827586207"/>
      <point x="212.00114942528737" y="56.90344827586207" type="curve" smooth="yes"/>
      <point x="145.53103448275863" y="56.90344827586207"/>
      <point x="102.14252873563218" y="124.86781609195403"/>
      <point x="102.14252873563218" y="213.66091954022988" type="curve" smooth="yes"/>
      <point x="102.14252873563218" y="378.04022988505744"/>
      <point x="219.98390804597702" y="505.5586206896552"/>
      <point x="386.98620689655166" y="505.5586206896552" type="curve" smooth="yes"/>
      <point x="515.9781609195402" y="505.5586206896552"/>
      <point x="569.4448275862069" y="421.8609195402299"/>
      <point x="540.6448275862069" y="287.95287356321836" type="curve" smooth="yes"/>
      <point x="518.7298850574714" y="188.62068965517238" type="line" smooth="yes"/>
      <point x="494.6655172413793" y="77.56896551724138"/>
      <point x="547.3942528735632" y="-2.420689655172414"/>
      <point x="669.8988505747127" y="-2.420689655172414" type="curve" smooth="yes"/>
      <point x="839.5091954022988" y="-2.420689655172414"/>
      <point x="960.0172413793102" y="155.8942528735632"/>
      <point x="960.0172413793102" y="358.69425287356324" type="curve" smooth="yes"/>
      <point x="960.0172413793102" y="439.4459770114943"/>
      <point x="938.2666666666667" y="505.26666666666665"/>
      <point x="904.9206896551725" y="565.2816091954023" type="curve"/>
      <point x="850.7045977011494" y="536.3413793103448" type="line"/>
      <point x="878.5080459770115" y="483.1574712643678"/>
      <point x="899.835632183908" y="422.25287356321843"/>
      <point x="899.835632183908" y="351.05747126436785" type="curve" smooth="yes"/>
      <point x="899.835632183908" y="193.00114942528737"/>
      <point x="805.0448275862069" y="60.55172413793104"/>
      <point x="700.8379310344828" y="60.55172413793104" type="curve" smooth="yes"/>
      <point x="640.0919540229886" y="60.55172413793104"/>
      <point x="630.4436781609196" y="113.87471264367817"/>
      <point x="645.7103448275863" y="180.97931034482758" type="curve" smooth="yes"/>
      <point x="670.819540229885" y="293.13563218390806" type="line" smooth="yes"/>
      <point x="709.3425287356322" y="466.18045977011496"/>
      <point x="595.7367816091954" y="565.0413793103448"/>
      <point x="411.56551724137927" y="565.0413793103448" type="curve" smooth="yes"/>
      <point x="197.01724137931035" y="565.0413793103448"/>
      <point x="42.405747126436786" y="409.3310344827586"/>
      <point x="42.405747126436786" y="209.38275862068966" type="curve" smooth="yes"/>
      <point x="42.405747126436786" y="88.15632183908048"/>
      <point x="113.9183908045977" y="-5.0"/>
    </contour>
  </outline>
</glyph>
<glyph name="va-tamil" format="2">
  <advance width="1070.5045977011496"/>
  <unicode hex="0BB5"/>
  <note>
uni0BB5
</note>
  <anchor x="507.3287356321839" y="0.0" name="bottom"/>
  <anchor x="936.0563218390805" y="560.0413793103448" name="imatra"/>
  <anchor x="505.96321839080457" y="0.0" name="nukta"/>
  <anchor x="595.4045977011494" y="560.0413793103448" name="top"/>
  <anchor x="583.235632183908" y="560.0413793103448" name="vedic"/>
  <outline>
    <contour>
      <point x="229.84482758620686" y="-5.0" type="curve" smooth="yes"/>
      <point x="332.8540229885058" y="-5.0"/>
      <point x="418.86436781609194" y="62.5919540229885"/>
      <point x="418.86436781609194" y="178.1816091954023" type="curve" smooth="yes"/>
      <point x="418.86436781609194" y="261.1379310344828"/>
      <point x="360.68965517241384" y="315.41379310344826"/>
      <point x="281.10229885057475" y="315.41379310344826" type="curve" smooth="yes"/>
      <point x="186.9390804597701" y="315.41379310344826"/>
      <point x="119.32183908045978" y="243.64367816091954"/>
      <point x="83.74367816091953" y="125.15517241379311" type="curve"/>
      <point x="114.72643678160921" y="100.93333333333332" type="line"/>
      <point x="138.95632183908046" y="190.77586206896552"/>
      <point x="183.9287356321839" y="238.91724137931033"/>
      <point x="236.11954022988508" y="238.91724137931033" type="curve" smooth="yes"/>
      <point x="282.5586206896552" y="238.91724137931033"/>
      <point x="303.632183908046" y="203.3287356321839"/>
      <point x="303.632183908046" y="161.18275862068964" type="curve" smooth="yes"/>
      <point x="303.632183908046" y="105.35172413793104"/>
      <point x="273.1413793103448" y="56.90344827586207"/>
      <point x="210.98850574712642" y="56.90344827586207" type="curve" smooth="yes"/>
      <point x="144.5183908045977" y="56.90344827586207"/>
      <point x="101.12988505747127" y="124.86781609195403"/>
      <point x="101.12988505747127" y="213.66091954022988" type="curve" smooth="yes"/>
      <point x="101.12988505747127" y="373.2793103448276"/>
      <point x="237.57241379310346" y="505.5586206896552"/>
      <point x="395.23333333333335" y="505.5586206896552" type="curve" smooth="yes"/>
      <point x="516.0988505747126" y="505.5586206896552"/>
      <point x="590.3701149425287" y="431.68620689655177"/>
      <point x="589.9149425287357" y="309.2942528735632" type="curve" smooth="yes"/>
      <point x="589.4597701149426" y="201.85287356321837"/>
      <point x="540.9068965517241" y="120.91609195402297"/>
      <point x="472.6011494252873" y="43.203448275862065" type="curve"/>
      <point x="483.14597701149427" y="0.0" type="line"/>
      <point x="928.3459770114943" y="0.0" type="line"/>
      <point x="1047.1942528735633" y="560.0413793103448" type="line"/>
      <point x="917.6275862068965" y="560.0413793103448" type="line"/>
      <point x="810.7666666666667" y="58.3448275862069" type="line"/>
      <point x="577.8597701149426" y="58.3448275862069" type="line"/>
      <point x="657.1022988505747" y="127.02183908045978"/>
      <point x="716.2977011494253" y="210.20919540229883"/>
      <point x="716.2977011494253" y="324.2689655172414" type="curve" smooth="yes"/>
      <point x="716.2977011494253" y="481.0252873563219"/>
      <point x="585.8689655172413" y="565.0413793103448"/>
      <point x="414.5781609195402" y="565.0413793103448" type="curve" smooth="yes"/>
      <point x="207.84252873563216" y="565.0413793103448"/>
      <point x="41.393103448275866" y="403.36896551724135"/>
      <point x="41.393103448275866" y="209.38275862068966" type="curve" smooth="yes"/>
      <point x="41.393103448275866" y="88.15632183908048"/>
      <point x="112.90574712643678" y="-5.0"/>
    </contour>
  </outline>
</glyph>
<glyph name="ssa-tamil" format="2">
  <advance width="1376.732183908046"/>
  <unicode hex="0BB7"/>
  <note>
uni0BB7
</note>
  <anchor x="637.1298850574713" y="0.0" name="bottom"/>
  <anchor x="549.6666666666667" y="0.0" name="nukta"/>
  <anchor x="776.3919540229886" y="560.0413793103448" name="top"/>
  <anchor x="753.6114942528735" y="560.0413793103448" name="vedic"/>
  <outline>
    <contour>
      <point x="229.84482758620686" y="-5.0" type="curve" smooth="yes"/>
      <point x="332.8540229885058" y="-5.0"/>
      <point x="418.86436781609194" y="62.5919540229885"/>
      <point x="418.86436781609194" y="178.1816091954023" type="curve" smooth="yes"/>
      <point x="418.86436781609194" y="261.1379310344828"/>
      <point x="360.68965517241384" y="315.41379310344826"/>
      <point x="281.10229885057475" y="315.41379310344826" type="curve" smooth="yes"/>
      <point x="186.9390804597701" y="315.41379310344826"/>
      <point x="119.32183908045978" y="243.64367816091954"/>
      <point x="83.74367816091953" y="125.15517241379311" type="curve"/>
      <point x="114.72643678160921" y="100.93333333333332" type="line"/>
      <point x="138.95632183908046" y="190.77586206896552"/>
      <point x="183.9287356321839" y="238.91724137931033"/>
      <point x="236.11954022988508" y="238.91724137931033" type="curve" smooth="yes"/>
      <point x="282.5586206896552" y="238.91724137931033"/>
      <point x="303.632183908046" y="203.3287356321839"/>
      <point x="303.632183908046" y="161.18275862068964" type="curve" smooth="yes"/>
      <point x="303.632183908046" y="105.35172413793104"/>
      <point x="273.1413793103448" y="56.90344827586207"/>
      <point x="210.98850574712642" y="56.90344827586207" type="curve" smooth="yes"/>
      <point x="144.5183908045977" y="56.90344827586207"/>
      <point x="101.12988505747127" y="124.86781609195403"/>
      <point x="101.12988505747127" y="213.66091954022988" type="curve" smooth="yes"/>
      <point x="101.12988505747127" y="373.2793103448276"/>
      <point x="237.57241379310346" y="505.5586206896552"/>
      <point x="395.23333333333335" y="505.5586206896552" type="curve" smooth="yes"/>
      <point x="513.696551724138" y="505.5586206896552"/>
      <point x="590.3701149425287" y="430.7252873563218"/>
      <point x="589.9149425287357" y="308.3333333333333" type="curve" smooth="yes"/>
      <point x="589.4597701149426" y="200.8919540229885"/>
      <point x="540.9068965517241" y="120.91609195402297"/>
      <point x="472.6011494252873" y="43.203448275862065" type="curve"/>
      <point x="483.14597701149427" y="0.0" type="line"/>
      <point x="1263.0712643678162" y="0.0" type="line"/>
      <point x="1332.7183908045977" y="327.46436781609196" type="line"/>
      <point x="1197.7103448275864" y="272.36781609195407" type="line"/>
      <point x="1152.0022988505748" y="58.3448275862069" type="line"/>
      <point x="577.8597701149426" y="58.3448275862069" type="line"/>
      <point x="657.1022988505747" y="127.02183908045978"/>
      <point x="716.2977011494253" y="209.248275862069"/>
      <point x="716.2977011494253" y="323.30804597701143" type="curve" smooth="yes"/>
      <point x="716.2977011494253" y="480.064367816092"/>
      <point x="587.5505747126437" y="565.0413793103448"/>
      <point x="413.6172413793103" y="565.0413793103448" type="curve" smooth="yes"/>
      <point x="206.8816091954023" y="565.0413793103448"/>
      <point x="41.393103448275866" y="404.0896551724138"/>
      <point x="41.393103448275866" y="209.38275862068966" type="curve" smooth="yes"/>
      <point x="41.393103448275866" y="88.15632183908048"/>
      <point x="112.90574712643678" y="-5.0"/>
    </contour>
    <contour>
      <point x="835.0919540229885" y="-294.1103448275862" type="line"/>
      <point x="958.4781609195404" y="-294.1103448275862" type="line"/>
      <point x="1108.7103448275861" y="410.948275862069" type="line" smooth="yes"/>
      <point x="1129.3724137931035" y="507.4712643678161"/>
      <point x="1082.732183908046" y="565.4344827586208"/>
      <point x="987.9459770114943" y="565.4344827586208" type="curve" smooth="yes"/>
      <point x="877.7758620689655" y="565.4344827586208"/>
      <point x="804.7712643678161" y="478.7689655172414"/>
      <point x="804.7712643678161" y="374.12183908045984" type="curve" smooth="yes"/>
      <point x="804.7712643678161" y="277.1367816091954"/>
      <point x="876.5344827586206" y="204.56091954022986"/>
      <point x="1002.7195402298851" y="204.56091954022986" type="curve" smooth="yes"/>
      <point x="1112.0942528735632" y="204.56091954022986"/>
      <point x="1204.6804597701148" y="235.1080459770115"/>
      <point x="1331.325287356322" y="320.132183908046" type="curve"/>
      <point x="1333.4908045977013" y="332.3114942528736" type="line"/>
      <point x="1307.1091954022988" y="363.87931034482756" type="line"/>
      <point x="1202.0885057471266" y="296.0103448275862"/>
      <point x="1111.0356321839079" y="258.39425287356323"/>
      <point x="1011.13908045977" y="258.39425287356323" type="curve" smooth="yes"/>
      <point x="907.9310344827586" y="258.39425287356323"/>
      <point x="861.9390804597701" y="303.32183908045977"/>
      <point x="861.9390804597701" y="380.3862068965517" type="curve" smooth="yes"/>
      <point x="861.9390804597701" y="437.8827586206897"/>
      <point x="893.471264367816" y="489.4551724137931"/>
      <point x="943.5770114942529" y="489.4551724137931" type="curve" smooth="yes"/>
      <point x="979.544827586207" y="489.4551724137931"/>
      <point x="995.4379310344827" y="462.3655172413793"/>
      <point x="987.425287356322" y="423.45402298850576" type="curve" smooth="yes"/>
    </contour>
  </outline>
</glyph>
